<mxfile host="Electron" modified="2023-09-17T06:16:14.499Z" agent="Mozilla/5.0 (Windows NT 10.0; Win64; x64) AppleWebKit/537.36 (KHTML, like Gecko) draw.io/21.7.5 Chrome/114.0.5735.289 Electron/25.8.1 Safari/537.36" etag="LVhk5ly6Qttl7GCftTq5" version="21.7.5" type="device">
  <diagram name="Page-1" id="5HrmAYw3aEdRMt5S-cDk">
    <mxGraphModel dx="1036" dy="606" grid="1" gridSize="10" guides="1" tooltips="1" connect="1" arrows="1" fold="1" page="1" pageScale="1" pageWidth="827" pageHeight="1169" math="0" shadow="0">
      <root>
        <mxCell id="0" />
        <mxCell id="1" parent="0" />
        <mxCell id="Gbblwmmtm5f7akuRL1Uf-1" value="" style="shape=image;verticalLabelPosition=bottom;labelBackgroundColor=default;verticalAlign=top;aspect=fixed;imageAspect=0;image=data:image/jpeg,/9j/4AAQSkZJRgABAQAAAQABAAD/4gHYSUNDX1BST0ZJTEUAAQEAAAHIAAAAAAQwAABtbnRyUkdCIFhZWiAH4AABAAEAAAAAAABhY3NwAAAAAAAAAAAAAAAAAAAAAAAAAAAAAAAAAAAAAQAA9tYAAQAAAADTLQAAAAAAAAAAAAAAAAAAAAAAAAAAAAAAAAAAAAAAAAAAAAAAAAAAAAAAAAAAAAAAAAAAAAlkZXNjAAAA8AAAACRyWFlaAAABFAAAABRnWFlaAAABKAAAABRiWFlaAAABPAAAABR3dHB0AAABUAAAABRyVFJDAAABZAAAAChnVFJDAAABZAAAAChiVFJDAAABZAAAAChjcHJ0AAABjAAAADxtbHVjAAAAAAAAAAEAAAAMZW5VUwAAAAgAAAAcAHMAUgBHAEJYWVogAAAAAAAAb6IAADj1AAADkFhZWiAAAAAAAABimQAAt4UAABjaWFlaIAAAAAAAACSgAAAPhAAAts9YWVogAAAAAAAA9tYAAQAAAADTLXBhcmEAAAAAAAQAAAACZmYAAPKnAAANWQAAE9AAAApbAAAAAAAAAABtbHVjAAAAAAAAAAEAAAAMZW5VUwAAACAAAAAcAEcAbwBvAGcAbABlACAASQBuAGMALgAgADIAMAAxADb/2wBDAAMCAgICAgMCAgIDAwMDBAYEBAQEBAgGBgUGCQgKCgkICQkKDA8MCgsOCwkJDRENDg8QEBEQCgwSExIQEw8QEBD/2wBDAQMDAwQDBAgEBAgQCwkLEBAQEBAQEBAQEBAQEBAQEBAQEBAQEBAQEBAQEBAQEBAQEBAQEBAQEBAQEBAQEBAQEBD/wAARCASdA6MDASIAAhEBAxEB/8QAHgABAAMAAwEBAQEAAAAAAAAAAAUGBwMECAIBCQr/xABsEAABAwIDAgUMCgwJCAgEBQUCAAMEBQYBBxITIggRFDKWFRYXGCEjQlJWWNTVMTNVV3WVl7O00yQ0NTZBUWJydIKU0gk3Q1NUYZKitSVlcYGhssLDY2Rzg4SjsdFEkZPEJic4pMFFSHeG4v/EABoBAQEBAQEBAQAAAAAAAAAAAAACAwQBBQb/xAArEQEBAAEDAwMEAgEFAAAAAAAAAgMBEjIRFDEEIlITIUJRBUHRM2GhscH/2gAMAwEAAhEDEQA/AP6poiICIiAiIgIiICIiAiIgIiICIiAiIgIiICIiAiIgIiICIiAiIgIiICIiAiIgIiICIiAiIgIiICIiAiIgIiICIiAiIgIiICIiAiIgIiICIiAiIgIiICIiAiIgIiICIiAiIgIiICIiAiIgIiICIiAiIgIiICIiAiIgIiICIiAiIgIiICIiAiIgIiICIiAiIgIiICIiAiIgIi6s6dEpsR2dPktsR2B2jrjhaRAfx4oOzxYJxYKsYZg0HHDjwhXFjhj+EbcqJYf7GF9df1B/oFydGqj9Qs98/sWXiwTiwVa6/wCg/wBBuTo1UfqE6/6D/Qbk6NVH6hN8/sWXiwTiwVa6/qD/AEC5OjVR+oTr+oP9AuTo1UfqE3z+xZeLBOLBVrr+oP8AQLk6NVH6hOv6g/0C5OjVR+oTfP7Fl4sE4sFWuv6g/wBAuTo1UfqE6/qD/QLk6NVH6hN8/sWXiwTiwVa6/qD/AEC5OjVR+oTr+oP9AuTo1UfqE3z+xZeLBOLBVrr+oP8AQLk6NVH6hOv6g/0C5OjVR+oTfP7Fl4sE4sFWuv6g/wBAuTo1UfqE6/qD/QLk6NVH6hN8/sWXiwTiwVa6/qD/AEC5OjVR+oTr+oP9AuTo1UfqE3z+xZePD2F+qssX9bxvNtO4VSJtDFoXJtHmRWsTLmjg460I/wC1WZezU1xBERWCIiAiIgIiICIiAiIgIiICIiAiIgIi6FQqUSmNCct4gxcLAAEQJwyL8QiOGokHfRQ/XPTv6PVvimV9UnXPTv6PVvimV9UgmEUP1z07+j1b4plfVJ1z07+j1b4plfVIJhFD9c9O/o9W+KZX1Sdc9O/o9W+KZX1SCYRQ/XPTv6PVvimV9UnXRTf6PVvimV9WgmEUP1z07+j1b4plfVJ1z07+j1b4plfVIJhFD9c9O/o9W+KZX1Sdc9O/o9W+KZX1SCYRQ/XPTv6PVvimV9UnXPTv6PVvimV9UgmEUP1z07+j1b4plfVJ1z07+j1b4plfVIJhFD9c9O/o9W+KZX1Sdc9O/o9W+KZX1SCYRQ/XPTv6PVvimV9UnXPTv6PVvimV9UgmEURHuOlSnm2MOUsOObrWEmG6xiX5u0EeNS6AiIgIiICIiAiIgIiICIiAiIgIiICIiAiIgIiICIiAiKIkXHSorzjGPKX3G913CNDdfxH87ZiXEgl0UP1z07+j1b4plfVJ1z07+j1b4plfVIJhFD9dFO/o9W+KZX1Sdc9O/o9W+KZX1SCYRQ/XPTv6PVvimV9UnXPTv6PVvimV9UgmEUP1z07+j1b4plfVJ1z07+j1b4plfVIJhFD9c9O/o9W+KZX1Sdc9O/o9W+KZX1SCYRQ/XPTv6PVvimV9UuMrrpIjiTg1JgeLjxcfpklsB/OIm9I/60E4i+QITHWJahL2F9ICIiAiIgIiICIiAiIgIiICIiAqtmAPHQI48XcKs0gS/N6ox1aVV8wfuDH+GaP/AIjHWOb7Y6NFk1YJqwXFrTWvm92va5OPDHixxTVx9zHBYJmLDoQXrKxzDt6r1mXVnmm7MKEBlsiFgdTDRjp5LI24uO7UsRw0k0WvvRaNdtRuuxbZpUa6ZjcisNQWG6g+33RdkC2O1Md0e5r1Y83/AOS7/UTrgwxk6+XPjyfUup6J/V/Umr+pefaTmdnxmMNx3PlZQ7MCgUWrSqXBhVblHLaqUc9Lpi6Ji1H1HzNQH+UrfUc9rZozV64Vqk1ViTl9T4VRrbDQNu9yU0ToAwWrvpDgBeKuHuXRtanq/qTV/Uske4QtsYXSVp022bnrEuKxCkVAqbDaf5AEoRNrW3tNqe6QkWyBzSoSJwm6VEqF/Y3NadaplNs2qNUxh4WhdcnyDFsQYABLuOmZ7o83RpIyDe4ve5o2t21JqWMSeE5ZNJpVdqNwUG5aRNt2TT4lRpMuG1yxrlhaY7giDpCYFjx8wy5q6fbW2M1Kfj1G070p7lPrLVEqvKqYAhTHX9PJ3Xy2ntTurc0aj8YR3V53NPOmjc9X9Sav6lknbHWDjehWiMark2Fd62Sq+DLXIBqv9F9s2urXuatlo17upcND4Qts3HRqzcNKtK9H6dRZXIn3mqXtdrI5VsDaaADIjxDHETPHmiH6wr3uae7Ww6v6k1f1Kt3pdtNse0a1eFXLEYdGguznfyhAdWn84uastyjz3rNVtC6apnXBplv1iz2o9RqLUFp3BoKfIihJaPSZEevi2oEPjNLzuTo3bUmpYFd/ClYoOXlfvWFlvdrEmlQI8+LGq0MGGpDEgtDUjag4Q7LVpwMePajq5imq7wkrZoD82PJs275L9GpjVWrrcSC06VDjuiRDyrid52kDLS1td0NS97mjpo2PV/Umr+pZbSc9bWr9+DYNv0yu1WScOFUcJsSIJQhiSmzcafNzVuhxaPB1b4c7e06brXnc6HRX8yi4svboLDDDjGjTSH87YGrRh7CqmZBf/l5dHwNN+YNWvD8C6PSZfq1Tyn6iIu9IiIgIiICIiAiIgIiICIiAiIgIiIChZuPFdVN+D5pf+bGU0oGplpuim4/5vm/OxkEvtE2i6u1TaoO1tE2i6u1TaoO1tE2i6u1TaoOxrww9jHiX7qww7uHcxWVZl0y35t3W/Ku+2JFao0enVNsxGiO1UW5Zuw9lqaaad0loF/e0+N4ypr0bJuvs06VlrYTmFRjXLTxGZGsmZEwYOLVGhld/KMIho2T4nveCQrpj0+lzOvX/AIcV+pqaqf8A16I2ibRef+Ejnnc+UlTs+mUh6g0Ol3I7Lan3RX6fKlwKYbQCTTRhHIN90iLSRmA7nhLuZf5+PSIlm03MF636hUL1qVQp1LrdpSuVUN844bUNRGWtp10BPS133eAt9T9Ctu5r3OPd9Num0wTaYLAj4XtguNUfqHbF2VqXX5VTj0uJCjRdrNagO7KRIa2r4ATWrm721LTzF+SOFHDh5tRbDn2RcFPouNmu3fOq1QjbAoMcCHedaMtYCPfQPd17XQOnTvrzt8nxe9zi+Tftom0Xn6DwysspVCrFel0O56e1TLc6647MmKxtqjStQjyhjQ+XhGO67sj3x3V0Kjw3Mu6U3XDlWPmCBW/FiVSYHUYNXUx/mT/bfaOZztLu9zN09Pvb5Pinu8HyekNom0UfDnRqjDjz4b21jyGgdacHwgPeAlzbVYOl2tom0XV2qbVB2tom0XV2qbVB07lL7Aj4f5xp/wBKaU6q5cJ6ocf4Rp/0ppWNAREQEREBERAREQEREBERAREQEREBERAREQEREBERAUFbRfYEjD/ONQ+lOqdVct49MOR8I1D6U6gnNom0XV2qzPMynW/Mu63pV32u/W6NHp1TbMBojtVFuWbsPZammmndJ6Rf3tPjeMrxRvrozzZPpzuargWCYuY/gLi/1Lzy6xk1X2adKy1sI8KlGuWniMyNZMyJgwcWqNDK7+UYRDRsnxPe8EhUhnFnXcmW+cOXFo0ygzK1Tboh1t2ZT6dEF6c+7FaYNoWtRCAe2lq1kIrWvTffbP8Ahz4/U9Z3V/lu+0TaLC+2ss2VYdHv+3rMviuQquE0jZgUsNrT+RahkDKJ10GmiEgPd2usvA1L6qvCvy8jhScbaoV03W5VbdC6iZodOB92HSjx0g++JmH5Xeg1O7hbin6OT4te5xfJuW0X5rwXmxjhTsUzN28rTrDUifT2mLbwtWlU+BxVSdInsOuujodMeaICZatAtAJ61ZpnCpy3gXo9ZpRK0bcWtx7amVkWGsYEWrO6dEUi2u11azASIWiACLeJO3yfEn1OL5Nt14L92iwOn8L7L2o3DT6IFt3c3EqF0O2aNXdpwDBaqoOkIMG5tNW/p3SAS529oVbu7hbY1Gt2dBy0oVX6mVXMaJaEmtVCnByCe1qdGUMY9rr1AYjvEI6tJ6dekkn0+T4pr1eL5PUG0QiAxIC3hNdXaptVi6XBaJarUopFzup0fH/yhUwoe0PvTovwbH+aFTCAiIgIiICIiAiIgIiICIiAiIg/MfZ/1KsZg/cGP8M0f/EY6s+Ps/6lV7/aedtvF2O245jFnwJjgNBqPFpiYy65pH8O4BLn9V/o09lN6/601f1qr45jWDj3Dvigj+SVRaEv95fvZFy98vLe+NGP31+K7i9NXRtZBcuXdmXbXsaxZOWFHqsO3Z7sqrP4MtBjWpGggditGY9+MdRmRkWjaiAatesmtcy7xtELXjuWJDYh0czMhistbLk7uvvoE3/JkJ6tQ+NqX1hmLl9h7N+W98aMfvL97IuX34b8t740Y/fX1PV/zeX1WCcFaV7f9/8Aty4fSzivczVzIa9qK7X6XlvnA/bFuXNPfqUqF1HF+VDef9v5HJ2o7HV7PMLR4K6l6cG2s3JOu3GiZnyqbT74ocKk1lqTTRmyHiitE007t8XQ5wnv4aN7f3h1buq9kbL7y8t740Y/eTsi5feXlvfGjH7y+b3uV07WU5gcGmVf8yJhKu+ksMRGITDU3rdDqvB5OIfas8HRINWI6u+i7p1Ls3DwcZNenXmQXxyOHdFXhXHAEabrfplVj7LQ7r2ul1vvXM0DzuctN7IuX3l5b3xox+8nZFy+8vLe+NGP3k73KbWV1bg31a6mrjqt136xKuO5ZlIffnRaRixFYYp7outR2o+3I97e1ETuPPUjdHB4xuQb7ArvwjdetbpVZ4+p2vGHjC2Xevbd/Xsudu6dXhLQ+yLl75eW98aMfvJ2RcvfLy3vjRj99O7yvNrMaXwa4tCzCnXdT6hb7lPqFwncjrEy140mohIPHUbbU5wsdk1td/da1j4J4KzWflbcVhZbzLJtW+Rh1GRV5NRaqx0gXRaF+Xtza2BO724RNatf5StHZFy98vLe+NGP307IuXvl5b3xox++nd5Xu1FZv5cFm1arVky63jApUioxX6oIMYuHMiNO4OnG49Y7LXpDf3uLxVRJXBRsRuo1rG15b9Dody25IoNWpre1f25GWpqUDrrpaDa/NISWodkXL3y8t740Y/fTsi5e+XlvfGjH76T6vLP9PNrNarkNe925d17L29s3SqDFSpMekQeS0YYzEXYGJDINvamTrpaR1b4h+Qviu5BXjVptyVKn5nRKdJv2jx6RdnFQtoMrZNE1tYvG/wDY5bIyDe2vjLTeyLl95eW98aMfvJ2RcvvLy3vjRj95O9ym1XMvMnYGXV31W4KTVScgzaJR6JFgmxvRWoDRtAW11b+oS8QeatJ14fjVZ7IuX3l5b3xox+8nZFy98vLe+NGP31PcXX9PdrlzFP8A/L26Pgab8wat4+xgsxu28LXuC1qxb9AuOmVKo1OBIhxo8KUD7pOugQjuB4O9zlpvsCvv/wALrdTVWzyPpERfeZiIiAiIgIiICIiAiIgIiICIiAiIgKu1stNz0zH/AKhN+diqxKq3S83BqtOqkrHBuKMeQwThcwTImjHV4vtZIO7tU2qg+ui3vd6n/tQJ10W97vU/9qBBObVNqoProt73ep/7UCddFve71P8A2oEE5tU2qg+ui3vd6n/tQJ10W97vU/8AagQTm1/qVcsCPVINDkt1Zme1IOt1h0AmShku8nOoyTaMSH+SJogIA8ANIeCufrot73ep/wC1AnXRb3u9T/2oFW727UbPduVzM2ycwrmqFKrGX+aPW09BF1iVAm0sahTqi0X861qaPUPgkBrBcwOD/cVgZNTLJshmr3Lfdy3iF1QKtS6a1Bg0mrbVr7I2WvRFji0JD4WrUa9O9dFve71P/agTrot73ep/7UC0x+orGxyemnKyC7+DCzW8vbRy4odStjGj2xS+pfJLitcKq04egR5U0QOtOx390i1C7pLXzV1YvBPKLMoodkSTOpsfL6Rl5XG5sPav1GnukRbVp3a/Y5ay8IHdwNP5a2nrot73ep/7UCddFve71P8A2oE7jJx3HaY/i8/0TgcnT8vbgsCTdlrNYVO3OtqHPplkxYcoA3e/ynQd2sh0gEdW+0Bc7TqVlujgwYXK5ep9fPJuu+yYVnfcvVyXYa+/+27+rXzN385a310W97vU/wDagTrot73ep/7UCrusnyO0wfF3qDA6iUGm0TbbfqfFai7XRp1aAEdWn9Vd7aqD66Le93qf+1AnXRb3u9T/ANqBc7pTm1TaqD66Le93qf8AtQJ10W97vU/9qBBObVNqoProt73ep/7UCddFve71P/agQd2uHqjRvhGn/SmlbFQ3arArDsSBS5jEx7CZFd0sOg7oAHxIzLTzNwVfEBERAREQEREBERAREQEREBERAREQEREBERAREQEREBVOhnpjSfhGofSnVbFQmqpAozsyBVJjER7lkt0RfdBrUJOkQkOrn7hILBtU2qg+ui3vd6n/ALUCddFve71P/agTT7HTq69gR6pBockKszPakHW6w6ATJQyXeTnUZJtGJD/JE0QEAeAGkPBVPzSyjua9cwbOzLtO+4tv1azYtTjxW5NJ5cxJ5aLQ99761ujsvA8bnbu9eOui3vd6n/tQJ10W97vU/wDagWn1K3bpZfSmp+nTzofAejlT7ZgO5gsVEaZFqzFW6qW+1MalPT39rImRWjd0RXx5oFpd0ho5+nekrb4Kd8WIzR5lj50RqXWolqhZ0yaVubUH4TTpFHkNNFK71KAS06tRgXiLeeui3vd6n/tQJ10W97vU/wDagWmvqs2vnVj2WCfxYldHBFjXHelazHDMJ9i65DdCOg1t2li7KpUqmgYm6RgQBIGQJ99a0NAuSFwT41NzNqN7Ra5bDsGtV0LinsTrOizJ4y9zatRpjplydgzDVp0EYeAfhraeui3vd6n/ALUCddFve71P/agU9xk+Su1wfFkTHBe2Fu0ug9fOrqbmaGZG16l+2/ZRP8j07X8rTtf7qh6bwTK9THrfo7Ga49aNq3yF7UmllQfsgS2rrpxXX9vvD30tB6B556hLc07r10W97vU/9qBOui3vd6n/ALUCdxk+R2mP4pzaptVB9dFve71P/agTrooJ+1ViG6XgttSAIy/NEOesXSsNofenRfg2P80KmFFW5Feh29S4UoNLsaGw06PimIDhxKVQEREBERAREQEREBERAREQEREBERB+cWH4k4sPxL9RedNB+cWH4sE4sPxL9ROmg/OLD8ScWH4l+onTQfnFh+JOLD8S/UTpoPziw/Eq3auGHV68e5//AFtr/DYasqjYHUrldS6n7Pb8qDl+n2eUbFrTr/K2Wx/1aVFaaCR4sPxJxYfiX6ivpoPziw/EnFh+JfqJ00H5xYfiTiw/Ev1E6aD84sPxJxYfiX6idNB+cWH4l+oi96dAREQEREBERAREQEREBERAREQEREBERAREQEREBERAREQEREBERBD2x9z3vhGf9KdUwunTuScnLkGnZ7d7Vp/ndqW1/v6l3EBERAREQEREBERAREQEREBERAREQEREBERAREQEREBERAREQEREBERAREQEREBERAREQFDyvvtpvwdN+diqYXSd5J1RZ16OV7B3Z8fO2WoNfF+ts0HdREQEREBERAREQEREBERAREQEREBERAREQEREBERAREQEREBERAREQFWrV+714/DbX+Gw1ZVG0+oU+ZMqUaIOAvQZQsSt3Tji7sG3OP8AK3HW1FCSREV6AiIgIiICIiAiIgIiICIiAiIgIiICIiAiIgIiICIiAiIgIiICIiAiIgIiICIiAiIgh7Y+573wjP8ApTqmF06dLizGDdiYcQC860W7xb4OkB/3hJdxAREQEREBERAREQEREBERAREQEREBERAREQEREBERAREQEREBERAREQEREBERAREQEREBQ8r77ab8HTfnYqmF0zlRm6gzDPDv7rLrodzwBIMC/wBpig7iIiAiIgIiICIiAiIgIiICIiAiIgIiICIiAiIgIiICIiAiIgIiICIiD8ww4lWrWYMK5dxkGIi9WWjHjw5w9ToY/wDqOK/ZUXqpccmBIkTBZiwo7whGlOsb7hviRFsyHV7WK7fWvSv6VWPjmZ9asuT3omkWWXjnBlZkhIqB5m5lUq3afhDYlxsKxVcMHXS1Oi4LAultXfaw3R1ez/WvJObP8MvkPaTjkHKqz69fz4l9su/5KgkPjCbom/x/kkwP5yua3PH9CURFQIiICIiAiIgIiICIiDGswrkzGoGfOWFMh3PFZtO5J9Qp0qktU4MXpBNUuXJ2rkg8SLdNlrQDQh7BaiPVgI6ZS5VelS6s1VaG1BZizcGqe8EzbcsY2TRYukOkdljtCdDRve1auPe04Z7mLkZUMwr0o17N50Xxb0m3HTkUmHSGKMUeI84w4w67hyunvuHibTjg75kO9uiK0OkUd6mzKrMcrdRn4VKXhKbZlG2TcINk23sGNAjxNcbeLm/qLU6e9p0iIef5fC7l021mbqq1j0ajxa1dk2z7ddql0DGYlPwn5wSpEp3GN9isCMA9GI7UzM9Gkd0z71q8KmdmCdCt2wrIpdVuiqS60xIZxuLEKQ0zTeTcofZnhFMpAny6Hsu8Dq2patGglcj4PlrM2lSLbo9w3DS5VvXFULqo9XjPRymQp02RLdf062iaNshnyWdBtF3o/Hw1qs5i5R3pAwtG4rUq16XHc1Ak1IZFcYrVOjVPYTQHatCzKilCJgiaj97EWtnsgIdRatQVmDwtX51M69wy8r+DwWtUqq5RcKgLotlFrfU89qLTRFu6cXTdDVoaE91znKQLhHZhVscu5FnUCwqpFum98bblTqXeXVGA9H6lyZmth9qLqEx2BiYutAQm0I74O7UPnLzg7wcssrINcvS9qxa9aoVu1BmfUqXUxMaYw7Uyqrp7d5otqTRbhm6JC6InrAtWKskPg2W9LeZupvMW5pFwuXLFu/rgEacDzshqE7DANkMXYbIosh0Pate9q18YjxBVbL4atu3hcVIp0GkUN2lXFKqEOllEuUJVUaOK2+6Ls+CLH2K06EU9Ji67iJG0JiOrd78ThO3Y/lnZWYlQsSzrfxv1oZ1JZuK/WoLQQTitPtE4fJjdJ8toXemmndIhrM29WIjdrTyIi2WY0+jZh3bhbEQ5pwLYN+KMCJyrF3UGoGBkOtBtT2TbrpiHEPihoh6LkbaEyh5fTrDzEuelDYdvPWfTanAOKb8ymfYrTrTu3jmOrVAYx2jQtngQlp4tSDMq/wALG7q9bs27qDaUePZx5Q1C/pBt1rFmrMPNYGOzYLkzrWoTb0ifN3tr4OyLQq/wkapR3rkrsLL9iZY9lV6Jb9crDtZ2U8ZDvJdo7Hh7Agdaa5Y1rI5DRbjukC0jr6mHA3sRm2esuJfd6M0krTqtkvs8ohGTtJm4mWDRGcYi1sE7qad5/wDOk6rHWuDhbNaq1Wdxuy5YlAuSrRK5W7ZYOLjAqM2PixpcMjYKQAnyVjaA06Anp/KPWEFTeEjck+uQXHsso8W15d/VDL/GpY13VMxmR5MlgHxi8n0kwZx8O7txMCLHcIR1lcr8zMuKj33R8tbBtGBcNxVKmy626NTrJ0yHFgsOsNYkToMPmbhOviICLXgnqIO5q+Y+RFoM06JSgqVX2UG95V9tFtWtRT5Ep+UbRd77rGuQe7ztOA767t85VMXhc1JvOlXjcFqXHSIkumM1Oj4RTN2FIJo3Y7rcph1oh1stGJaNQkHcLiIxIKVlxwkqjmpeVDt61cvDCHPtuPcVWm1CrC0VME5UuG7FFoGi2zoSIZYc4QIdZax0iJ7us0y6yKs/K6qxqrazlREo9uRLZFqQ+LglHjyH5GDpY6dZPm5KdIy1aS4+aK0tAREQEREBERAREQEREBERBD2zhiNOewxHHDHGfPLu/pTqmF0aXPCoxikCGI4BIkMd38bTpN/8K7yAiIgIiICIiAiIgIiICIiAiIgIiICIiAiIgIiICIiAiIgIiICIiAiIgIiICIiAiIgIiICh5GGON1U8tOPENPmjx/8Aexv/AGUwui5Obaq0em6MdUiO8/q/7M2h/wCag7yIiAiIgIiICIiAiIgIiICIiAiIgIiICIiAiIgIiICIiAiIgIiICIiCryqXS6rdcwKtTY0wWKdF2eD7QuCOp1/VzvzBXb60LQ8laR+wNfur8bLRd1R+DoXzslSO1WO2WmjDcz+CLwdc77kqLeYWVdHlyGqfC2U2M3yaU1vSMMNLjOk+LDSO6Woe5zV47zh/gWKNLF+dkbme5Ed0kTVOuNrUJHj/ANaYHdH8nYY/nL+klPPVdlT+DoXzspTw+wrx8U0yntTuCz5tGVfQ2nfVJ2p3BZ82jKvobTvqlq6K0so7U7gs+bRlX0Np31SdqdwWfNoyr6G076pauiDKO1O4LPm0ZV9Dad9UnancFnzaMq+htO+qWrogyjtTuCz5tGVfQ2nfVJ2p3BZ82jKvobTvqlq6IMo7U7gs+bRlX0Np31SdqdwWfNoyr6G076pauiDKO1O4LPm0ZV9Dad9UnancFnzaMq+htO+qWrogyjtTuCz5tGVfQ2nfVJ2p3BZ82jKvobTvqlq6IMo7U7gs+bRlX0Np31SdqdwWfNoyr6G076pauiDzNwheDLwbaHkNmTWaPwfctIFQp9o1eVFmRrTgNOx3QhukDgGLWoSEsMC1YLzFeOSHB1ZYv2dUMubLp+Z9IqVCj5eW61TorA1OI7Cp5NENOAdlPGRKdnA66607o0nzNkv6bLiJoCMTMBxIOaXioP5oT8k+DLjd8JyZZdnxswHs7MKHUbbapkbBtqgYVQ2ojZU/TsmWHYgxXeUbIdqbukjLa6ceXLnguZE5oPQ6bdOXFCGG1l7V6piECA3CdOaFblMsvk7HEDIwaHRp1aCw06gLSK9yz8kLcq95Rrtq1xXVPZhVcK7FosurG7TmKgA6RfFst7DTxawb17IC3hDDFaUg82ZC8HHg53Zkdl3dVwcHfKyXVKzaVIqE1/GzadxuyHYbRuHj3jwiIlfO1O4LPm0ZV9Dad9UtXRBlHancFnzaMq+htO+qTtTuCz5tGVfQ2nfVLV0QZR2p3BZ82jKvobTvqk7U7gs+bRlX0Np31S1dEGUdqdwWfNoyr6G076pO1O4LPm0ZV9Dad9UtXRBlHancFnzaMq+htO+qTtTuCz5tGVfQ2nfVLV0QZR2p3BZ82jKvobTvqk7U7gs+bRlX0Np31S1dEGUdqdwWfNoyr6G076pO1O4LPm0ZV9Dad9UtXRBlHancFnzaMq+htO+qTtTuCz5tGVfQ2nfVLV0QZR2p3BZ82jKvobTvqk7U7gs+bRlX0Np31S1dEFYsC2aVZ1ssW1QqHBotOgyZQRIEKMEdhhrGS4QC20G4I6S8H8as6j6RUMajEOTiI4YjKkR93/onzb/4VIICIiAiIgIiICIiAiIgIiICIiAiIgIiICIiAiIgIiICIiAiIgIiICIiAiIgIiICIiAiIgKJkxnzuODLAcdi1BlNEXimRsYj/sAlLKPdqGLdai0zQPFIiyJGr8WzNof+agkEREBERAREQEREBERAREQEREBERAREQEREBERAREQEREBERAREQEREFbMtF3VD4OhfOyl39qoySem7p/wdC+dkrs6v6ly72uj4pBa7qqn6BC+dlKw4ewq5RC1XTVMf+oQvnZSseHsLXHxRT9REWqRERAREQEREBERAREQEREBERAREQEREBERAREQEREBERAREQEREBERAREQEREEZQ4TsKG4xI04mUyW/hxeK5IcMf7pYKTUZQ5rs2G4/I04GMyWxhxeK3IcAf7o4KTQEREBERAREQEREBERAREQEREBERAREQEREBERAREQEREBERAREQEREBERAREQEREBERAUY/CeOvQp+GnYsxJLJYflGbBD82Sk1GPzXgr0KBhp2L0SS8WP5QGwI/OEgk0REBERAREQEREBERAREQEREBERAREQEREBERAREQEREBERAREQEREFSnnou2b8HRPnJK5tX9S6dWPTd0v4OifOSV9a1x3yby7NvY6rmqv6BC+dlKzF7Kqls46rkqv6FC/35KtZeyt8PFlfJ9IiLVIiIgIiICIiAiIgIiICIiAiIgrF716v27bsqpWpaki5KsBMtRaY3KGNtjddFvUbp9xpsNesz0liIAWkTLdxpdjZ1yavUK/buYNvRqBXLduGFb74UqY7VoT78qO0+xs3+TtGG46OvatBo8bSQljYc3YOZ9TsGp0/J6ZSIl0ycWmYsqqyjjtR2ydHakJCw/pcwa16NTRhr06gIeMVWsqrYzIsi1WLdZy8sugi1U2nX8Y13T6u7MadPVNlvvvQGHXZhd0t/VrLnGKDX0REBERAREQEREBERAREQEREBERAREQfI+yqvS6UzW2X5s+VUsXOWS2sMGai+wIi0+bYjpaMR5o4KbnSnIcR2SxDflm02TgsMado5p8EcTIR1fnFgs8yizbse+mp1EpM84lwwJkx2fQKi0UOqRBKU5vOxXeI9Pd9tHUBeCRKNeT3TRcm7QorA7Nl2qNjiRniI1aVhvEeoi9s8Zc1svPSKVjg+4R4tSpccSPHjIhbkONjiX490RUrq/wBCibW+5bvwlUPpjqmeb1NoiLVIiIgIiICIiAiIgIiICIiAiIgIiICIiAiIgIiICIiAiIgIiICIiAiIgIiICIiAiIgKPdp+Llai1PWPFHiyI+n8e0Nov+UpBRMmS+FxwYgFjsXYMp0h8YxNjAf9hkglkREBERAREQEREBERAREQEREBERAREQEREBERAREQEREBERAREQEREEDVbbj1WWM9uoS4j2z2JFG0bw90hwLWJexqL+0umFlv8Z67pqmOGJbmGDcXDSP4valaOPjw7qrdqvkdbu4CPEhZrLQDx480ep0Mv/UsVlUzuVvp1wsmXGlSpUS9a9GOUwEfEgCGWjS5rEx1sFvbxhxczSRbuvfXceoNaIyxbvStAOLr5iItQtIg4GkAw42Oa1jvh4Wrn4uDuqw8eC/VcztSrrNBrQmJOXpWjHB1gyEmoWkgbDSYY8THNdx3z8LVzMWx3V8dbNa5JsOyDX9rsNht9hA169rr2v2to16e9c3Ro8HXvqyoqFdeoNaIyJu9K0A4uvmIi1C0iDgaQDDjY5rWO+Hhaufi4O6jNBrQmJOXpWjHB1gyEmoWkgbDSYY8THNdx3z8LVzMWx3VYkQVrrZrXJNh2Qa/tdhsNvsIGvXtde1+1tGvT3rm6NHg699fb1BrRGRN3pWgHF18xEWoWkQcDSAYcbHNax3w8LVz8XB3VYkQV1mg1oTEnL0rRjg6wZCTULSQNhpMMeJjmu475+Fq5mLY7q+Otmtck2HZBr+12Gw2+wga9e117X7W0a9Peubo0eDr31ZUQV16g1ojIm70rQDi6+YiLULSIOBpAMONjmtY74eFq5+Lg7qM0GtCYk5elaMcHWDISahaSBsNJhjxMc13HfPwtXMxbHdViRBWutmtck2HZBr+12Gw2+wga9e117X7W0a9Peubo0eDr319vUGtEZE3elaAcXXzERahaRBwNIBhxsc1rHfDwtXPxcHdViRBXWaDWhMScvStGODrBkJNQtJA2Gkwx4mOa7jvn4WrmYtjurEMxL9zQtLMur2zTr1d63LVsDrvq0l+BGdqMnRKlammNLQtA6YMCGsxIBES70RntQ9Iqtv2Ta0m55l4v0gHarPpQUSU84RkLsIHDdFom9Wji1uud3Tq3/xIPJkfhHZ5Uu0alfFcZq1RhSLVm3DEJi0JVFh0moO4sNxac7JmsEEtoduZg+1oLvB7UDAx0zF8Zg51WfctVsHMG7KVXupB5d1RqVTYOMAZPL7jwp74G1qIw9q2u67vEI80CJpa89wb8vqfaFcte26a8fVS35NvRGK9U6jWIEGI6PcYbjOyu9Maha3GSa3WgHAh0Bpq+XPBgai164bkzOZhzDrDFvxW4MWtVSo6DpE12dHkuzprvKHS5QbXe+YARxHfwI0FGmZo56w51y25Xsw27VrAQK+1RabVbUNt1zkeL8iNNYqOnkVSM2Gh1sNbDZtGZadTWsufLzMjPR2RTafdGa1HwpNFyxp1/XBWJdMajE7y8aiAseHhHBgYbTu3La7wu6wMXQBrbY2QOVzFabreFGqcgmzmOxYcyuT5MCIcoXG5BR4brxMMEYPvBuAOkHDEdOBFx8lv5B5VW5RZVDhW5JlQqhbjVpyQqNUmTifpDRSSbimUh0yxEeWSB8bSWAc0AEQ8sXVn3n23Yt8wWcysWqxEsGPeFLqjdkyKW0xsnOTyGBamiLsgXdqDoyB2Wkx9qEe9K6PXzmxSsxanlNSr6Z67axdFNtcbgkUxrGGDg2/1WkTzh+PoYOO0wDohoMSLU6JunrjnBdyVfakBPt+rTzl0V+3JT9RuWqSn36Y8IYFFN12QRm2OkSDVx7I9RhpMyLGTk8HzKydBlRX6TVHH5c6HVHaljXZ3VEZ0WMEViSMzb7cHRYHRiQnhrEj1atZagxiBmxnvcV7wMraXeFIhV7C47nolTqrlJB2COMSHDfjvx4uOIO6BGYHejkEWvXqddEdJatkTX7xzJy0o95XJdk1mqYy3YlQZiR4uEZx2BKfhv4hqY1i0+TG1IdWsOPSBD+Gw25kzl1acykTqJb7zcuhu1B+JLfnSJD5PTdPKnX3XXCOQ47pDjN3WW77Kn7QtG37GogW5a0DkVNakSZQM7U3O+vvm+6WoyIt510z9nwkHD1s1rkmw7INf2uw2G32EDXr2uva/a2jXp71zdGjwde+vt6g1ojIm70rQDi6+YiLULSIOBpAMONjmtY74eFq5+Lg7qsSIK6zQa0JiTl6VoxwdYMhJqFpIGw0mGPExzXcd8/C1czFsd1fHWzWuSbDsg1/a7DYbfYQNeva69r9raNenvXN0aPB176sqIK69Qa0RkTd6VoBxdfMRFqFpEHA0gGHGxzWsd8PC1c/Fwd1GaDWhMScvStGODrBkJNQtJA2Gkwx4mOa7jvn4WrmYtjuqxIgrXWzWuSbDsg1/a7DYbfYQNeva69r9raNenvXN0aPB176+3qDWiMibvStAOLr5iItQtIg4GkAw42Oa1jvh4Wrn4uDuqxIgrrNBrQmJOXpWjHB1gyEmoWkgbDSYY8THNdx3z8LVzMWx3V8dbNa5JsOyDX9rsNht9hA169rr2v2to16e9c3Ro8HXvqyogrr1BrRGRN3pWgHF18xEWoWkQcDSAYcbHNax3w8LVz8XB3UZoNaExJy9K0Y4OsGQk1C0kDYaTDHiY5ruO+fhauZi2O6rEiCtdbNa5JsOyDX9rsNht9hA169rr2v2to16e9c3Ro8HXvr7eoNaIyJu9K0A4uvmIi1C0iDgaQDDjY5rWO+Hhaufi4O6rEiCrSKZMp0R2oVK/Ku3FibKVIN4YQt4NMB33WWDGHELnPP8XFubMd1eZq5b1w8Iygt0ix6TVXYUSXN5Df1yxGKfyF457jnLaY00w1Ndf0961CUVog5pkW+vYOPsKu26X2DIw/zjUPpTqyrkqXRy7tmsWZZ1Ltiv3tVrtqEBrZP1iqA0D8kvytkAj/vF3N4jLexlrT+5T3wlUPpjq7mr+pdS0vuU78Iz/pTq9/I/BNIiLRIiIgIiICIiAiIgIiICIiAiIgIiICIiAiIgIiICIiAiIgIiICIiAiIgIiICIiAiIgLouQW3atHqWvHVHjvMaf8AtDaL/lLvKHkY44XVTx1Y8RU+aXF/3sb/AN0EwiIgIiICIiAiIgIiICIiAiIgIiICIiAiIgIiICIiAiIgIiICIiAiIgKNp9Pp8OZUpMQsCenShflb2rHB3YNt8X5O402pJVq1fu9ePw21/hsNRQsqIisEREBERAREQEREBERAREQEREBEXRqNQhUmC9UqlMZhxIrZPvvvOC2202OGoiMi5o/jQd5FWbOzDsHMaE9Usvr2oN0Q47mwekUapMTGWnfZ0ETRFgJf1KzICIomJcFDmVufbUaox3KpS2Y8ibEwLvjDT+12Rl+fsneL8wkEsiIgIiICIiAiIgIiICIiAiIgIiIPzH2FWbfL7DkfCNQ+lOqzY+wqvQC+wpWH+cah9KdWVclSlta6tp/chz9Pn/SnVzav6lw2j9xnP0+f9KdUzyK4p1ERbp0EREBERAREQEREBERAREQEREBERAREQEREBERAREQEREBERAREQEREBERAREQEREBdM4sZyoMzDx7+0y60Hd8AiDEv9oCu4oeV99tN+DpvzsVBMIiICIiAiIgIiICIiAiIgIiICIiAiIgIiICIiAiIgIiICIiAiIgIiIPxR0DqVyupdT9nyjlQcv0+zyjYtadf5Wy2P+rSutNqtRwqWNMpVPYkPtMA+7jIlEyIiZEI80C1cwv/AJKKpMG7KZUKxM6m0pzqrNCZpxqLo7LTHYY04d43vaNX6yzqlbVvX5jjgOGovwLy/wAJ2+uHBS2nYHBryysiobKKDkqXJqhSZ7e117zDDosNbuyLw3dXiL+OfCSzK4YN01p2j8JGv3yLurlHUmqNOwYo4Du7UYYiDQ/nYBgr09yX+i5FlPXFwpvecyq+Uuo+ok64uFN7zmVXyl1H1EvRqyLKeuLhTe85lV8pdR9RJ1xcKb3nMqvlLqPqJBqyLKeuLhTe85lV8pdR9RJ1xcKb3nMqvlLqPqJBqyLKeuLhTe85lV8pdR9RJ1xcKb3nMqvlLqPqJBqyLKeuLhTe85lV8pdR9RJ1xcKb3nMqvlLqPqJBqyLKeuLhTe85lV8pdR9RJ1xcKb3nMqvlLqPqJBqyLKeuLhTe85lV8pdR9RJ1xcKb3nMqvlLqPqJBqypubM6zKdl3W6hmFSMalbTEfVVI3IilgUfUOsjaHnAPOL8kSVb64uFN7zmVXyl1H1Eqxe2cefGXdMjVa68r8tWGp80KdCYjX3WZsqXKPAiFphhi3zedPSBnpAC3BIuaOKCh5Z3XaldzHzTr1ezYotbgTWbRwO87Nl4U+mDpmSRh0rcdd7/rMdqWL7u1amNAQtBoHHRuFFeTNs0W0qPOqkmkRrhuIITtQO6jtqC0IRZD+IS6i02brQHssBAGtBuu6A1iOrVnNA4XGac+kSKsGVFgC1jcU634UKPdVbfnypEUcCf2cKPQHZBaPDImhIe7rEF2o/CyzMqF0Ua14eV2X0wK7b0u549UbvWsFS2IUUxF3byeoGhgwLVqE9Ogg0HpM2xMMzo2ZdTr1jUYa5nXTI3W9cd1096jVnMGo2+VTiBKEoH+WxEZBusRyAmhfD7Iaf2p8zWv2BmHccq/zvDb3LR8vKnalhSbzrsmbsq9BikFT2ROk0I6Gid0cqlNaSBoiMNAkTrWoMcKrMmu0SqVGNYuWcAKVHhTn+rN03BDPksl3ZR5AMSLeadeaM90XWtQavCXCzwrc4WeVRqnlHY+E1utVejMQIV11udKe6nPC1IdFmFQHz2AE61xukIj3wNWjVgKD1aBiQYEJah/GvtYzRL74SNx0iDcVGyoynl0+pR2pcWS3mXUdLrJjqAh/wAhfhElIdcXCm95zKr5S6j6iQasiynri4U3vOZVfKXUfUSdcXCm95zKr5S6j6iQasiynri4U3vOZVfKXUfUSdcXCm95zKr5S6j6iQasiynri4U3vOZVfKXUfUSdcXCm95zKr5S6j6iQasiynri4U3vOZVfKXUfUSdcXCm95zKr5S6j6iQasiynri4U3vOZVfKXUfUSdcXCm95zKr5S6j6iQasiynri4U3vOZVfKXUfUSdcXCm95zKr5S6j6iQasiynri4U3vOZVfKXUfUSdcXCm95zKr5S6j6iQasqlQi4okrD/ADjUPpTqq3XFwpvecyq+Uuo+olLWM/W5Fvi9csCDTqocyaUmNCmHLjtO8qd1C0+bTRuj+UbQ/mrDIqVj1f6Es37jn+nz/pbq49a+7N+4p/p8/wClurzHyVXBPIiLoZiIiAiIgIiICIiAiIgIiICIiAiIgIiICIiAiIgIiICIiAiIgIiICIiAiIgIiICIiAuk7yTqizr0cr2Duz4+dstQa+L9bZruqHlffbTfg6b87FQTCIiAiIgIiICIiAiIgIiICIiAiIgIiICIiAiIgIiICIiAiIgIiICIiCviem7qh8HQvnZKk9v+UoSSem7p/wAHQvnZK7e1WG9rp4flOPXdtT+DoXzspfV0Wfad70dy37ztmlV6mP4d9h1OE1KYP/SDokOK69ELVdNUx/6hC+dlKx4ewqxcUV5fqIi1SIiICIiAiIgIiICIiAiIgLLM4rIu25KlYd4WUNKkVixrgOsBAqktyMxPadgSoLre1Bp0mjEJmJgWgt4NOPO1YamiDyKfBgzMeq8K+as1QZ9bj3Jc1Udo9Puqp0iOcSrclLQE+M0Lu1aOG3zmtDokZbhY4aZg+DzmnbzFLcyydtm2p5WNctvvvhV5z/Uip1GUMxqawT7brsv7IE9ZOk0W9rw/mlrt05z2jaGZtnZS1AZ8q4L1cfbijFZE2ogtRX5GuSWrvQuDFfFruERk0fggZDcqTV6XW4pzaTU4c+OMh6KTkaQLoC6y6TTreoe5rAwMSHwSEhx9hB5OqfBazfrc6rz8MLdp7ddtun0N1iZeNXrL7DsWpNzNvjKlMa3dr30dOkNOgOdrLTZ6zwe74AJjjFu23WpLt0XFWocti6qjQKpTQqEgHGsWJ8Rgz5o99Y0aC0Nbx6NJ7XTs2sr6tjWgpWZdrTjttk36zyasR3epjQatZydJ95EdB6iPTxaVC3DwhckLaoNbuWoZq2s7AtqQ1FqxRatHeKE+6egGnRA9wyLwS8UvxILLlzSbot+wbdol8V4a7cUGlxo9UqQhoGZLBsRdd4vyi48VZ1Tuyvledcpls9ka1sKvWmG5VNgY1iPhKnNOjqbdYb1anQIe6JDx4Y/gXfo97WfX6tULeoV3Uap1SmYljMhRJ7Tz8XS6bRbRoS1B31pwN7wgMfBxQWJERAREQEREBERAREQEREBERAVKo5d5lfCNQ+lOq6qkUguJiZ8I1D6U6ufM0xeUlq/0Lnsv7hf+OnfSnV1Na7dmfcL/AMfN+lOqcXMrgnkRF1MxERAREQEREBERAREQEREBERAWbU3PfL+r3dIsikjdU2oQqk5SJD8ezaydOZltY77RTxjYxR09zUWLun+taSvJJQahbOZTdOyrHOKFc03MXllXg1aA+VvvUh+Zrnv7cGuRbAmMXTYLa8q2uyAvDBB6149OG9isuoHCPyiuir0ilUmv1MxuCRjFo9QkW9UYtLqbugjwGLPdYGLI1ABkGh0tenc1Kw2a1QIlpSBtS051Oh8uqpdTpcQ4jjsjGY+T5aH/AAHXsXXQLmkDomO4WC82WI9WbbqNl2nk01myxSjqEWn1mwbytWQVIodJx3ZAtVN+MOnk4e1CEp9p3QIAJBviHrKi1qj3BT8KrQ6ixMiG462D7BagImzJs8P1TAh/VUkvBuWWXVp2zTrIp2Y+SdUfseitXVArNF6xJkmONxFPjFFmOwmopcqA4YuttSgF1oeYJ6iUtlnk7mPPksz7htirN3JSMqiatOTWAIxplSKo1IoAE6W6MyPGdjB3S1gJn4xIPbijItRblVGbTgizGsYWLeBOuMELTuodXey8Pi8JeU+Cfl/Kol20Wrsx6hRZUS0zhXDCDLybQmpM0jjcWM+ZKfIahNAgd0vtCWoTdIj0uhr7GZeXFw3bnTVWalaNZnW9NzAtR+QWEJ0or8JqkyhfxItOg4+shad8He0FzkHrdFjXBytFyxmMxLZj26/QqHGveadChckKNFbgnFin9ihzNhtif5m7r18S2VAREQEREBERAREQEREBERARFXrevSzbsl1WHbF10isSaJLOn1NqBPbfODJEiEmnxAu9OCYEOkt7dQWFdM5UZuoMwzw7+6y66Hc8ASDAv9piu4oeRhjjdVPLTjxDT5o8f/exv/ZBMIiICIiAiIgIiICIiAiIgIiICIiAiIgIiICIiAiIgIiICIiAiIgIiIKhUT03bM+DonzslfW3XfqluR6rMGe3UJUR7ZbEijaN8e6Q4FrEvY1F/aUNTrXqz8yrNTq7VWmI8wG4RYDFw2rOwaLX7V/Ok6P6q46mtzaKnTy7ltlruaq/oUL/AH5KtJeyqk3ZUuPKlSol616MctgI+JAEMtGlzWJjrYLe3jDi5mky3de+u69Qa0Rli3elaAcXXzERahaRBwNIBhxsc1rHfDwtXPxcHdXTjnbLOvvSxIq6zQa0JiTl6VoxwdYMhJqFpIGw0mGPExzXcd8/C1czFsd1fHWzWuSbDsg1/a7DYbfYQNeva69r9raNenvXN0aPB176tKyoq69Qa0RkTd6VoBxdfMRFqFpEHA0gGHGxzWsd8PC1c/Fwd1GaDWhMScvStGODrBkJNQtJA2Gkwx4mOa7jvn4WrmYtjuoLEirXWzWuSbDsg1/a7DYbfYQNeva69r9raNenvXN0aPB176+3qDWiMibvStAOLr5iItQtIg4GkAw42Oa1jvh4Wrn4uDuoLEirrNBrQmJOXpWjHB1gyEmoWkgbDSYY8THNdx3z8LVzMWx3V8dbNa5JsOyDX9rsNht9hA169rr2v2to16e9c3Ro8HXvoLKirr1BrRGRN3pWgHF18xEWoWkQcDSAYcbHNax3w8LVz8XB3UZoNaExJy9K0Y4OsGQk1C0kDYaTDHiY5ruO+fhauZi2O6gsSKtdbNa5JsOyDX9rsNht9hA169rr2v2to16e9c3Ro8HXvr7eoNaIyJu9K0A4uvmIi1C0iDgaQDDjY5rWO+Hhaufi4O6gsSKus0GtCYk5elaMcHWDISahaSBsNJhjxMc13HfPwtXMxbHdXx1s1rkmw7INf2uw2G32EDXr2uva/a2jXp71zdGjwde+gsqKuvUGtEZE3elaAcXXzERahaRBwNIBhxsc1rHfDwtXPxcHdRmg1oTEnL0rRjg6wZCTULSQNhpMMeJjmu475+Fq5mLY7qDA61kNnZEzWtO9qfets1uOeYUi5atJctt1qXDhY0mow2GidKo6XWmmn2ooA00G+7yghLvuvbmqfU65ZdapsahPWhMnFU4rAYkyRgZvOAEzvBEPfd1/2dffN/SWpUfMy570tOtWrYdo1iq125LuGUxF5fMhU+Oy1F7/ACJjroU5/iLASaYERZIC2uG6Jcbqxag8KK5qXRabTbiueLFuet1e95RMXFcMCkU+nQoVbfgsReVcjfN11rSOyER3tk6Tp6NAoIymcHbM2bk/Os2oWje2Ny2/lVXbPpwT6tQW6W5LlQAY5LDwiCLrrDrrYGJyja0aQ172rRd85ckb8rD9WesezW34g5d0ijRWY8iKxtZUKrDJ5KGsx4u9CWki0tb3OXBafCFv+5rhfr1N2p2dEy9pt84NzarAhzid1SmnYrpOwwjgLrsU8HT24CGjaAYieyHipvCJnXFEqlKlXS+7U6LVrNpuMy1blgVGG+3XKyDDUgZXU1rvobN0HWNloJrT4R7UA61RyWzBrd6XgxX7czCxpF+XVSrna6n1OgswoYNNQeIZhOi7KB+K7FL7X2oFoa2R7x6NqyBsCrWLRbuarlFbp8yuXxcVb1CTZE+xJqLrjDxEBFzmNjulvDxaSWG0rhF3rb1v0lqsV9t6XWKveezqVxV6HQ6cQRazJhxYEeUcF8DkgACbTTptflEY7g+oabSay9HiTn7rrrZuYxXziuBALTob4nGiIGOLvpbx4gXOw72QD3EFpRVrrZrXJNh2Qa/tdhsNvsIGvXtde1+1tGvT3rm6NHg699fb1BrRGRN3pWgHF18xEWoWkQcDSAYcbHNax3w8LVz8XB3UFiRV1mg1oTEnL0rRjg6wZCTULSQNhpMMeJjmu475+Fq5mLY7q+Otmtck2HZBr+12Gw2+wga9e117X7W0a9Peubo0eDr30FlRV16g1ojIm70rQDi6+YiLULSIOBpAMONjmtY74eFq5+Lg7qM0GtCYk5elaMcHWDISahaSBsNJhjxMc13HfPwtXMxbHdQWJFWutmtck2HZBr+12Gw2+wga9e117X7W0a9Peubo0eDr319vUGtEZE3elaAcXXzERahaRBwNIBhxsc1rHfDwtXPxcHdQWJFXWaDWhMScvStGODrBkJNQtJA2Gkwx4mOa7jvn4WrmYtjur462a1yTYdkGv7XYbDb7CBr17XXtftbRr0965ujR4OvfQWVFXXqDWiMibvStAOLr5iItQtIg4GkAw42Oa1jvh4Wrn4uDuozQa0JiTl6VoxwdYMhJqFpIGw0mGPExzXcd8/C1czFsd1BYl0Z0p2HEdksQ35ZtNk4LDGnauafBHEyEdX5xKI62a1yTYdkGv7XYbDb7CBr17XXtftbRr0965ujR4OvfXHU6VNYiyqhLv+rQorHKpTpkMIW2Gyb7nGRMc1ni1Bqx/HtcXB3UEbYucNjZhypFIo1QfhV+AOBT6BVI5QqpEHHi3nIruk9H4BdHU0XgGSUotyXh/nGofSnVid70SucI9mJCsWg1Z+nQn2JMG97qit00IRAGAm7TGmmGqi4TvOJ0TigX8k/o3VpGVlt1ez7MjW5Xbzqd1T4EmUw/V6kDQSJRjKd3z2QiP/H4xFzlz52mJcNX9SpVOovCDkty5Fo5m5fU2lFUJ2MWLUrFmzpLYcqd7hvBV2BP/Tsh/wBCuOtSdkfcD/xs36U6s8PJVcVJ63eFN78eVXyaVH16nW7wpvfjyq+TSo+vVqyLsYsp63eFN78eVXyaVH16nW7wpvfjyq+TSo+vVqyIMp63eFN78eVXyaVH16nW7wpvfjyq+TSo+vVqyIMp63eFN78eVXyaVH16nW7wpvfjyq+TSo+vVqyIMp63eFN78eVXyaVH16nW7wpvfjyq+TSo+vVqyIMp63eFN78eVXyaVH16nW7wpvfjyq+TSo+vVqyIMp63eFN78eVXyaVH16nW7wpvfjyq+TSo+vVqyIMp63eFN78eVXyaVH16nW7wpvfjyq+TSo+vVqyIMp63eFN78eVXyaVH16qHfV58Jey7hodoxL2su5rgr7UuXFplHyzkbUIsXZcokunIuNpoGwKQwHP1ETo4CJL0ksyv/La567fNtZmWNdtPoVdoNOqFHd6p0c6jFkwZpxnHA2YPsGLguw2DE9XFzxxHHVxiHnm38/eFBNysoWYxVOg1aPUoNQqsrqfljIIYEWLINstq6/X4om7iI4kLDQk7unubupStPzu4TNbu26qNSaxa9Uo1u21SLki1amZaSpJVUZ+1KOyxFG4duJHst0jDTuu7XZCAG7Jt8CV8KZRqLMv6kVmPCtuTbUl+s2qEx9sHZj8k5kHW/sosouUaTIgdEti0Wnc0Ltv8Ee6Xbcm2y7mbR3o9Ute2qBOFy2ndlIdoko3WMTHlm9FfaImJEcuPWJFpdDVpQUy4eEJwk4EFvCPctqR63Cu+lWxUaC7l27jNA5rW1YMCYuF+O6Bjp5ro8W9rJvSSscTNzhL1GlTH6fVKLJr1Krp29ULdDKx3GbBlcmGVrfd65uRNNEw40YOlI0ltQEccTLSu/G4INw0+rz61Q8xreo78u4KJc/JKZZgx4TE2nA4ItttDK9odEh1iRbXVrLB3fHAO7VeCrX69Vsbur16WxV7jmXQ7ctTaqlqHJokrVTWqew0MDlmrA2GmGiB0nT3jd8fcCpxeEDntVotudat42xcVVuWNVpTVIh5YONTIw02VyWaLvKLmaaM2pHetLJukWnEg1BvrkuvPzOy0plUwk37asuBbsOLPuSotZWSmmqC1IawdDlTUi425BELWIumLLTpNDjv6VPR+CPWablzHyxG7rHr9Bg1GsTIsW4rCCYEfl005YuNbKU1sZDRvuiJtaA04hpaAg1F9HwN4rFYKoxq7a9ccqVLpEGr1C7rOYrdUddgRW4vKmJDrog066003rF1p0de/4wkGi4W9wpSw1DnLlVp//wAaVH16v3rd4U3vx5VfJpUfXq1MBBscAEcBEd0cMF9oMp63eFN78eVXyaVH16nW7wpvfjyq+TSo+vVqyIMp63eFN78eVXyaVH16nW7wpvfjyq+TSo+vVqyIMp63eFN78eVXyaVH16nW7wpvfjyq+TSo+vVqyIMp63eFN78eVXyaVH16nW7wpvfjyq+TSo+vVqyIMp63eFN78eVXyaVH16nW7wpvfjyq+TSo+vVqyIMp63eFN78eVXyaVH16nW7wpvfjyq+TSo+vVqyIMp63eFN78eVXyaVH16v4y1rg98KbMHhS5k3BlTSqzIrsS+K7jjcFutv09jCWNRfF0m3dqfI9RayAHX+b4Zc5f3wX5xacN3BB464Mtg8PPL4qXEztzvtuu0SU5yaPAqdL5dVGu9E4W0ktONb+4fOdkfg/V9VbK7fdukfFbv16+blLRMoJfiqJfRX1z8p/rWFV7laOo3MrdPqUGPU5cKU3PeNgNhFJgmywaNzwnD1e1krEqxPe2lXoA/8AXz+ivqzqsZQiItUiIiAiIgIiICIiAiIgIiICIiAiIgIiICIiAiIgIiICIiAiIgKGo9YxqdQrcQ2QHClTxhgQ+GJRWH9X/m8X6qmVB0KmS4NUuKY/p2dSqQSWOLHwMIcZr/eaNRQnERFegIiICIiAiIgIiICIiAiIgIiICIiChZg5Xw7/AKpbtfYuWt21XrYekP06q0rCOTgg+3sn2iCQ060YmGnnB3CACHmqmUbgv0G1I1JcsrMO8qHWqOdawGtA7CkypUeqTynSmHxkRjZMeUcRgWy1jp5xaj17giDFbx4MtqXxi91XvW7hKZa0e1KgWEuO4U5qO6b0eQ6TrBlt23nDc1DpEsS3xId1cRcF+g1G5pl2XBmNetYqVTdoD9RKS7BFuU9Raly6AelqKGywEsTaIWtAkDh6uN3vq29EGMvcG6mhbDlpW/mbelFpEvqry6IzjBktSxqE1+W7qalRXQEhOS6IEAiWjQJ4npwWn23b9PtO3qZa1GE26fRobECKLhkRiy0AgOGJlzt0cO6pdEBERAREQEREBERAREQEREBERB+cWPdVEwp1bgPSWWaDKltnKkPg4y4xpIXXSc8J0S8JXxFlePcqa2/dn8V+rzAJ2LbNQLAHTa1bWLzgMhP+V8cSWKY5tZqVbMJzJDCBIyrFypEESqVAI0mqVpp1110naZtXeRaWh0696U7v/aoL0xQ4TsKG4xI04mUyW/hxeK5IcMf7pYLo3ZZdq35Qn7cvK34FapkjuuxZ0cXW9X4DwwLDdIfBLDeH2cEjHsKrcqVhW5Cy6pssqRY14SZtREZlRnVWqMTZ86QLmy0uunJLe074gOlkQ3R0cxW47hqAmYYWdWiwF2QGBCUbSWzDUJe3813mh+Vz9C4rMs6LZFFwt6BXa1U4rThFHKrzzmPsNFzWsHz76YD3dO0Iz/KVlWqVebuCo6gArNrQji4wGsji6RwdDURe3c1rmn/c1r467Zuw2/WVXuPY7bRpj69e02ey4trz+Lf8XT4WrdVkRBAOXFNAzb606yWh6QHGIsaS2QahL23mu80PyudoX43cMwjbaxtWst6nY7WBEDWIjtQ1EW65zWuaf9fN1qwIgrfXZJ2HKOtOve07fZ8nb1ce02ez5/O8L83urkcuJ0XTDrcrJ6HpDWBCwOktkGvAufzT5o4/hLxVYEQV9u4zxcbZ636yGp2O1xlG3R2o6tXO5o80/FxXH13955T1sXD7Rt9nyPe9t2Wjnc7w9Pi7ysiIIBy5tk642dBrPEL0lrUEPEhLBoNer2eaXNDxiRu6GTIAwotZw1Ox2tRQSwEdqOrV+aPh+Kp9EFb68GuT8p63rh9p5Ro6mu6vbdlp0+N4WnxN5ch3LGZcNo6TWtx6Q1gQ050hLZBqI90eaXgY+GXcHjVgRBXm7qhOmDWFNrPGTkdrjKmPiOO3HUPgc0fYPxPC4lx9ecPY8q6j3Bp2HKNn1If1adrstOnRz+Pe087Rvc1WVEFdO64jbxNlBrOOIvSGt2lSSHvAayx7gc0vYAvDLdDUjd0wSdBoYNawxcdjtYaqTKEfsgNQ48eIc0fDL2GuaelWJZZn5mvJyls2JVYDtPaqNYrUOgwHKgDrsZl6QePfXG2u+u6GhcPBoMRJ0hEBINWrALdje1L5LjIKBcIhixyn7gzCPTtdlp0i1q16vA4tWnf5m8vo7spQOE0cWs6mnpDOOIUaaQ6mA1nxFg1vD4h81wt0MSLuKj5V5qVa6KCzKq0mBdMkrjeoTsy3KXIgjBEGdrgc+HNPbwjHmkGp3HvrJ81zc6HCEzZuHLGTasaDUqNblHrDssapdldpkqoU+l7FoTaadbjutaCexItLrroAOxLDeIhwQaOF2Uo3BaCLWdTr0dnDE6NNEdT4aw4yxa3R8c+a2W6eIl3F89e9D5Jygma0OHJ+U44FQZwnp2uy5my1atXgc7Tv8WjeWRUrPe8ac/lvSplMt+/+yDcc6mM3BZE9jqbjCYiOvjK0SH9QOd632gdfERad0mR7Jo5SmcKazKm1T6q7a91QKDX4U+oW5W5DEbCLXW4rByD5MIPk8OJR2nHQwfaa1gOJCg0w7spAumJN1PHFt2Q2WmlSy3mA1H/J/i5peweO6GpAuykE6Ai3U8MXHY7Y6qVLHefDUH8n+LnF7AY7p6VmULhQUWqQbfk0XLW95826ID1YplLEIDEpyktbL7PPayxaaaMpDYiJmLxb3et1RN3cK63ismq1zLCgXDc78aysbwOXFiscno8Z0H+SlMB51t3URxX9TLQOO96Pd5vGGv8AX3bvJ+V6qjo2HKePqVK1aNrs+bsudq8Hnad/m7y5zvKhtmYEczU27IaL/J0jHfYDW74Hi83x/B1L5sOsTLisi3q/UcA5VU6TEmv7MdI7R1oTLT/rLFWFBX2rwoTrjbQPSsCddjtDqgvhvvjqa5weL7Pi+FpXD1723seWctf2Ww5Xq5E/7Vtdl4nj+D+Le5vdVmRBX3Lxt9txxpyS/gTTshovsR3Hfjjqd8HxfY8bwdS/QvO23XAbCo8ZOusNDhsnO6b46msOb4QqfRBW+v60thyvqt3rY8q1cnc9q2mz1c3x91cp3nbLTjjTlUACadkNFrAh3mA1PeD4A91T6IIELytl4wZbrDBE67HaEd7eN8dbI/rCuPr9tHk/K+rsfY7DlWrjL2na7LV7H87uqxIgr7l5Wky6407X4Qm27JaMSdw3TYDW+P6g7xI3edpvOttNV+ERuOxmgHa4bxvjrYH9cd4VYEQVvG/rJwY5cV0UwWNhyralIEQ2W12WvV4u13OPxlyOXtaDLjjTtyU0TadkNGJSgw0nHHW+Ps/yY7x+L+FWBEFfbva0HnG2mrkppG67HaARlBjqOQOtgfZ/lB3g8b8C4cb/ALF2PLTvWhixsOVbQqk0I8n2my2vO5m13NXjbqsyIKDdl4WpyukMtXNSyfaq0hgmxltkYutRXdqGnVzg2o6vF1jqX512297vU/8Aah/eV+x7qjZEJ469Cn4adizEkslh+UZsEPzZLCse6lTXRVYVUg1mvUgKZNYl8nlOuu7B0D0hsHR1Fp/KIVfV+Yez7C/VWONpVbhERapEREBERAREQEREBERAREQEREBERAREQEREBERAREQEREBERAUHQqnLnVS4ob+nZ02pBGY4sPAxhxnf9501OKGo9HxplQrcs3gLCqzxmAI+AIxWGNP/AJXH+sooTKKjZkZy5U5OU3qzmjmJQbYjEBuM4VGcDTj+A87Bprnulh4oCRLxfmz/AAy+Q9pOOQcqrPr1/PiX2y7/AJKgkPjCbom/x/kkwP5yvQf0JREQEREBERAREQEREBERAREQEREBYxAzRzjiZtUHLm6ssbOaarbEya9Ko95yp0inwWB+2XWHaYwOg3jZaEdrq1OFiOoQPEdnWeWdYtdpGZl/Zg1+TElY3G7TYVHwZMidjUqLEHvTuoRwEuWPz3N3Vuuh3fBELTbdx0y7qDTrnoL7ztOqscJUVx2M6wZNEOocSadETD2cN0hElNKGtt25HLfgHeMOnRq2UcMZzFNfN+KL+neFpx0AMx/ERCOKmUBERAREQEREBERAREQEREBERAREQfC+sPYTDDDBVOm09mstyJs+XUsXMJktriaqL7AiLT5tiOloxHmioqugmqHNdmw3H5GnAxmS2MOLxW5DgD/dHBSXHgq4zatHYHQ07VGx1mWIjVpQ7xHqIvbfGXYth996lY4SHScxaly44kWOoiFuQ4A6v1RFJrqronERFaRERAREQEREBERAREQEREBERAVEzYy3czJoMCHCrfUisUWrQq5RpxxuUtMTYrusNqzqHatkOoDHAwLQZaSEuIsLnId2Udx0zbbwESLU53BH85eMqjnXnVYVgVyRfN8ViPdx2hIr8A3oNHl0KZsJEMXZtJlRB18lEZQd6mCTuh1otW4ZGG/WDlfeloTqrck++qdMr113IFduV1ihEzGksNQAhtQ4zRPmUfSLEUtqRukWg93f3Jy/bczLqtQplZy4zEhW9IgC+1JgVOjdUqfPB3RpMwB1h0HA07hA7p3z1Afc04/mxnTe9DzWuewbcuhmDBHCw6cMsY7DpUV6r1SosSn+Ix0k6TTEUQF3UAkQFpLUQF2Jtw5gDmDbWSEDPx6XhUpNeemXHCp9L6rRShR4LjVLeAmDi8oLCeT5FhHAtk0G6O8ZB3qLwZKzQapSLtiX5SMLkZveReVT2Vuk1S5G3pfUx+PHhjK1R+NjSW1N10trrMtevSuvTOC1Xo9BteyKxmTEl2vYFPqEC1WGaITM1nlEF+Aycx/bkEjYRZLgbrTWst8lV7uzSzPt4mrylZuuVmxqLRKa/OuGyoNIlwm5GBu8qlVOG+ZStg6AtaORu8Y8Tv4l80TNXP8Aue/qlV6QFUZo1NzJkWg7BedoUejDTGZvJSPU6fVIphNfZQ+CREAC0QFrQW64+DNSblOzJlHq9lVetWHbuFoygua2QrUJ5nSwQOcl5Q2Ud8Sa1DxO810xLVumPXr/AAdqlBYrNMtHNW37YZuqyIlp3G2dtNcRC1jKBuZDbakNNRTLlz46MQdD2rxd6j8F+oV+y7itO2eu+RPgXrWszKhVjnRIIOypcCvi007tWGGiI8RJ8j1eOWnSAAA5zcV71fMigDe9eqTdQmVOzKUZSWhAQdAL2EGiHTucwBQe9bQoWNsWrRraKRyjCkQI8DB7Rp2myaENWnwePT7Cml5vtXNbMeq5nwMiptaw65KBdFUm3BM5G1jym2GmgfhHgOI6QJ0p8FjEh8KPL083HT6QQEREBERAREQEREBERAREQEREBRj814K9CgYadi9EkvFj+UBsCPzhKTUe7T8XK1FqeseKPFkR9P49obRf8pBIIiICIiAiIgIiICIiAiIgIiICIiAiIgIiICIiAiIgIiICIiAiIgIiIK1KpsCsXPMjVaBHmssQIptNSGhcECJ1/UWkvzA/srtdZ9o+S1H/AGJr91fLZ6buqXwbC+dlKU1rKZlTCs0OCNwds7rintZg5V0WbIagQiamx2+Symy1yO5tWtJ4jujuFqH8leOs4f4FijSxfnZG5nuRHdJE1Trja1CR4/8AWmB3R/J2GP5y/pNCx47sqeP+boXzspTg+wqx8SmU9qdwWfNoyr6G076pO1O4LPm0ZV9Dad9UtXRWllHancFnzaMq+htO+qTtTuCz5tGVfQ2nfVLV0QZR2p3BZ82jKvobTvqk7U7gs+bRlX0Np31S1dEGUdqdwWfNoyr6G076pO1O4LPm0ZV9Dad9UtXRBlHancFnzaMq+htO+qTtTuCz5tGVfQ2nfVLV0QZR2p3BZ82jKvobTvqk7U7gs+bRlX0Np31S1dEGUdqdwWfNoyr6G076pO1O4LPm0ZV9Dad9UtXRBlHancFnzaMq+htO+qTtTuCz5tGVfQ2nfVLV0Qfzlyay6sG48rKXS7TyEyQdnWhlvR7qrE+57HYqD9XkTOV6GBdE2iax0wT1Pntd50dzdxUhWo+VtXsO9s2rD4K2QsWgWXDopY0qs2NFdmTHZ9NhziLlAaBaFoKg0OjZHtCaPfDUvWEzgxZMyqVTaIFuVCFBptHC3gbp9dnxOUUoCIhhySaeEpTW+e69ifPPxy1ULOHgsTMx6/VI1Gj29SqBccemRag63KqTDjTUUhHegtO8ilu7IBBp10BJjSHP0CgyljLfKqp5i4Ze2bwZsi4T1UvG4qOU+q2U1NbiswIsV8HRY1BqItoQ7ITaHwh072rU8isjuD1mTlrAuq5uDBk6zVcZtSpswYNlwQYJ+FOfhm42BtGQiRMa9JEWnVxai4uNbFT8osvqTcDd1waDi1V2alPqzcnGW+WmXNaBuS5iOvTvi0GGni0jp3dKl7StS3bLo429alNKDTm5Uubgzi6bnG9KfckPnqMiLedddL9bd3e4gpPancFnzaMq+htO+qTtTuCz5tGVfQ2nfVLV0QZR2p3BZ82jKvobTvqk7U7gs+bRlX0Np31S1dEGUdqdwWfNoyr6G076pO1O4LPm0ZV9Dad9UtXRBlHancFnzaMq+htO+qTtTuCz5tGVfQ2nfVLV0QZR2p3BZ82jKvobTvqk7U7gs+bRlX0Np31S1dEGUdqdwWfNoyr6G076pO1O4LPm0ZV9Dad9UtXRBlHancFnzaMq+htO+qTtTuCz5tGVfQ2nfVLV0QZR2p3BZ82jKvobTvqk7U7gs+bRlX0Np31S1dEGUdqdwWfNoyr6G076pTNiUmhWrbYW3blHgUem0+ZNYjQYMUWI7DXKndINNBuCH5Iq/KijDr9Odkx2aDKltHKkPg4y4xpIXXSc8J0C8JYZVSneVY+OlnFroxn/ANfn/S3VDcdx+SdQ/wDrxfrVO2xAfp9IBiWGl43pD5jq1acXXSc0/wB5Ti3bvuqtfamURF0sxERAREQEREBERAREQEREBERAVFpGTGUNu4VQaHlZaNOCuRThVMYtEjNjMjnz2ncBDfaLwgLjHFXpEFGpuTeUdFo1QtukZXWlFpdVihBnQmaLHGPLjgbhA08GjS6Im66WkuPDU4ePhL5fyUyflWqxYcrKy037biyClR6S5R45w2pBatTos4howPfPe528SvaIKRUcmspKvUKbVKxlhakyZR2mo9Offo0dw4jTWPem2yINwQ8AcO4PHu8S7TmVmW7t3jmA5YFunc4FqGslS2OW6tGjVt9OvVo3ePj5u77CtqIKXXMpcrbkpcWi3DlnbFRp0GZIqUaLLpMd1pmU6Rm88AEOkTcNx0jLwtZauPViuzhlnlyMTCGOXttgwLQxxa6lMacGRf5QIadPN2/fdPj73OVrRBQLMy063r1uTMauVnGtXDcgx4WMnGGMYIdMjm6UeI2I6scdJPumRkWJGReCIgA39EQEREBERAREQEREBERAREQEREBRMmS+FxwYgFjsXYMp0h8YxNjAf9hkpZdFyC27Vo9S146o8d5jT/2htF/ykHeREQEREBERAREQEREBERAREQEREBERAREQEREBERAREQEREBERAREQV/AuK7qj8HQvnZKkdX9SizPTd1R+DoXzspd7V/oXO008OrTvvrqfwdB+dlKeH2FXqTvXVVMf+oQvnZSsI+wtMfFNeX6iItEiIiAiIgIiICIiAiIgIiICKLuCuU216FUrlrUjCPApUV2dLe08ezZaAjM/7I4rOLR4Q1s16ZjBuW3K5ZOq3yuuO/chw2mX6UBCLsrB1iQ6DQhtWtYvbIx2o7vO0hraKMq9cotBpMmvVqsQqfTIjWL782XIFqO014xuFuiKr4Zr5YSbfjXfFzLtVygyXnY7FUGsx8YbrrQG4Yi9r0EQg04RDgXHpAy8HFBc0WclnzkyVVtOkRczramSL4J0LfOPVWHmqjst09kQFpPf3N3nHuqUg5r5X1dyss0nMq1prttNOv1kY1Xju40xsNWs5OAn3oR0lqxPTxaceNBckUNQbmty6oZz7Wr9Oq0RuQ7FKRAlhIbF1o8QdbxIMceIhLDSQ+Dj3FMoCIiAiIgIiICIiAiIgIiICIiAiIgh7ZxxKnPY4ljjjhPnj3f0p1TC6dOiRYbBtRMeMCeddLe4983SM/7xEu4gIiICIiAiIgIiICIiAiIgIiICIiAiKsXjmPl9lyxGkZgX3b1stTHNlGcrNUYhg+fiBi6Y6iQWdFwtOtvNi62Yk2Q6hIS1CQrmQEUVQK/RbnpY1m3akxUIJvPMC+wWoCNp0mnR/VMDH9VSqAiiq1cNFtwIj1cqkeEFQmM06Ni8enayHS0tND+URKVQEREBERAREQEREBERAREQEREBERAUPIxxwuqnjqx4ip80uL/vY3/uphdM4sZyoMzDx7+0y60Hd8AiDEv9oCg7iIiAiIgIiICIiAiIgIiICIiAiIgIiICIiAiIgIiICIiAiIgIiICIiCryfvun/B0L52Su3q/0LpTD03bP+DoXzslc+tYa+W+nhT6/nDlPlneEqNmNmfaNqPTabEcjNVqtxoJviLsnUYi6Q6lx9tjwWeP/APUtlX0yp31quNAPVc1U/QIXzspWXH2cFePiyvkyntseCz5y+VfTKnfWp22PBZ85fKvplTvrVq6LRLKO2x4LPnL5V9Mqd9anbY8Fnzl8q+mVO+tWrogyjtseCz5y+VfTKnfWp22PBZ85fKvplTvrVq6IMo7bHgs+cvlX0yp31qdtjwWfOXyr6ZU761auiDKO2x4LPnL5V9Mqd9anbY8Fnzl8q+mVO+tWrogyjtseCz5y+VfTKnfWp22PBZ85fKvplTvrVq6IMo7bHgs+cvlX0yp31qdtjwWfOXyr6ZU761auiDBMwuE3kBVsv7kpNm8J3KFi4JlHmx6S9Lu2muMNzCYMWSdEnS1BgeI6vx4YY/jXnPKTN7g/WJW3K1Ra7Z8GjQ8vnaLVKLX8zrfqL9bqIONHFiwyKoutMMCPLBLUTDBcoa3Nzc/oOvNHCPz4v2hWfnLTMsLYYJzL61HZdQrhVbk8qDNfhOvMFFjYsGD+LQ7J08Tda7hbust1BXeEtnfkPmLlxCgWjwjstznUy4KPW3IMS9qK2/JZiy23XGmikOlH2u7rDa4bLW2GrEecs2o1/wCQlRuK1bvlZ0WsRlmdHuisYXTmBbDsnYR6DMhtTibhOCwJ7Uoo6QJ13dAy0+Btlx8Mu3Lcveq2xhTaHJp1u1yFb9SxcuIGqy5Je2Gt6LTtkW3Ya5QOsydaLvT2gC0jr/aRwkMwoVp1WvXfbNiwnhvyq2pAcnXj1OhA1FfkDqdddjbUj+x9Iiw06R6tRC0IlpDD4+ZuVVGvyJWoudOW4w37zvE8ZMK/aHrgRKu20MefpKYG4JiREI6nfyFTaDcmVErKV2zKnnRQeuG2srq7aVN6oZjWgNJdlyoIx9hD5KQSHWnTAXdcomtGkNW9q07pmLwp6lc+Uc277IGfQatKy7virRXolRbkRo02kVGHBMh713/vpkbTu7uatQb+5qtN4Qsyq51TsqAtiiRyp1T5DizNuQYtbfa5OLmM+PTnWBGRD3tO1akEXO3O5pQfFm8JTgq25adGoTHCGymhjT4DEXCO3eNMwFvQ2I6cNLvF4Kmu2x4LPnL5V9Mqd9atXRBlHbY8Fnzl8q+mVO+tTtseCz5y+VfTKnfWrV0QZR22PBZ85fKvplTvrU7bHgs+cvlX0yp31q1dEGUdtjwWfOXyr6ZU761O2x4LPnL5V9Mqd9atXRBlHbY8Fnzl8q+mVO+tTtseCz5y+VfTKnfWrV0QZR22PBZ85fKvplTvrU7bHgs+cvlX0yp31q1dEGUdtjwWfOXyr6ZU761O2x4LPnL5V9Mqd9atXRBlHbY8Fnzl8q+mVO+tWB8MH+EOsjJbLqjXbkVfuWeYNZfuNiBPpLFdamuBTyYkm46IxX9bfE40wG1LUGGvm46hXtNYVws+DDR+FdYdCsCu3G9SafSriZrz5NRdsckAjSWNkPfA0fbOvXvczmlqQeeMo/4Yrg83jsoGaNAruXswtWp8g6pwBww5vE6wO248f62NP5S9jWpm5ldfVAi3JaWYlu1amShwxakw6i2QFj7OI87dL8nHeFZJlT/B+cGHKeO3ySwWbgmDgGByK9okg4Q80yjCIRdeHj7LX+UtvsyOxDo7kWLGbYabnzQBtsNI4AElwRw/siKiqHStu6rZjU95uTctKbLl009JTGsN0pLpD4Xiq0NOtSGxeYdFxsx4xIS1Djh/pXJifGshj5m3pRXp1HpfB1zCr0OJUprTVRp0y324z48pc9rGRU2ndOHN32x5qTXWldGwosp7MWYvmn5q/GVq+uU7MWYvmn5q/GVq+uVaWrIsp7MWYvmn5q/GVq+uU7MWYvmn5q/GVq+uUGrIsp7MWYvmn5q/GVq+uU7MWYvmn5q/GVq+uUGrIsp7MWYvmn5q/GVq+uU7MWYvmn5q/GVq+uUGrIsp7MWYvmn5q/GVq+uU7MWYvmn5q/GVq+uUGrIsp7MWYvmn5q/GVq+uU7MWYvmn5q/GVq+uUGrIsp7MWYvmn5q/GVq+uU7MWYvmn5q/GVq+uUGrIsp7MWYvmn5q/GVq+uU7MWYvmn5q/GVq+uUGrLzXwg6zSsus2aFmPOuqxYZTrUqtBKBecp+HFOPt47puxnQYdF53micPdN8dGkh0Er92YsxfNPzV+MrV9cr4LOHMMufwTc1C093eqNq+uEFd4K9OxtzLbL+2bpuGptXlAy/pQSqBJlGPJYmotk6UXHuA7/JEXO71p8FVeo3fbzmd13QczM3Lltev0q7KLCsuiU2rSGcahTHYsM9ynBqang7KdntOuk07shaLea2WsejWuHXJYuWm2dRODfme9Pk3O1bMh2Z1HahnK3trFjTAqJR3ZQ6C71td3Sesg0rtR+HVb86XJZjcHHOB4ocec+y+ESik1OCLx8q5A/1S0TiDQWoIxOlu+wgouXce4bLtbKu77PuO4pFXuTMG76I/S3qxIxpkljZ3DIaa5Hq2AkMiEwW0Adrz9/eVcsW/86H8vZd02PmdT6xezeW1XqVWoQ3bPr1ROsBFAmnTpz7AtUt9qVrDk46RLUTWgtGGjUR/hAqDGtqjXXP4NmdLUOtUoq82TVLpjuwp4lpOY+HLsHY0bxX3wbAw3x3V2ajwxLwiXgFu0/g1Xi5yivUqlnrqNC2pDMhuvhhgQVImjcIWtQb+DejVqMS0iQUvMGv2fItulBwfc06lmNPbu+zZTUStXFKqdOjzTlO7IjnGLpsG7pDasAXehESFoNW/6F4OVfO4stGZ1UrdXqNyszZEe6Gqs53+DWBP7KjYNatLDQFxbIA3Nli0Y6tesqHYfDLazFnjTrN4NGbz5yIp1KK49HocRifF1gJSIr79TBqU1qda740Rhvh3d4eO/wDZizF80/NX4ytX1yg1ZFlPZizF80/NX4ytX1ynZizF80/NX4ytX1yg1ZFlPZizF80/NX4ytX1ynZizF80/NX4ytX1yg1ZFlPZizF80/NX4ytX1ynZizF80/NX4ytX1yg1ZFlPZizF80/NX4ytX1ynZizF80/NX4ytX1yg1ZFlPZizF80/NX4ytX1ynZizF80/NX4ytX1yg1ZFlPZizF80/NX4ytX1ynZizF80/NX4ytX1yg1ZFlPZizF80/NX4ytX1ynZizF80/NX4ytX1yg1ZFlPZizF80/NX4ytX1yv5I3Fw+eGDlZwhcy2LTuWsyqPCvKsG9bNzNtVJqmNDMdEIpuAZ7AGsOIOJh/Brc3SIUH9xFDyvvtpvwdN+diryvwXuGLnnnDjDg5l8FG5aG3IwBpu4aZKawpcp3ESPE2glE0WjSOPtTr69QHU5hSm5ZWVV9s0BtiW1h7olpxL+X/JFRuE/xYL9UJHrzhymIk2iTaeUkyBkn8WiEjENWnvThd3SJf2VNYr2a3D9REVAiIgIiICIiAiIgIiICIiAiIgIiICIiAiIgIiICIiAiIgIiIKhP++6Z8HRPnZK5ta69TLiu2Zh/m6J85JTWuO+TeXYtz75qr+gQvnZKs5eyqtbP3y1T9Chf78lWnH2Vvh4Mr5PpERapEREBERAREQEREBERAREQFi2Z3BntrMuXd2D973XQIOYFJCkXLAo7sUWqgDTRttO6nmHDadEHNO4YgYiImB8S2lEGWs5Is067KhclvZhXbQoVbqkes1ei092KMKbLaBpvXqNgpDWDosNbUWnQE9P5R64R3gyUqPX+uSg5k3jSJ0e4qnccDGN1OcCA9URPlrTQuxS1NOmZH33WYlgOghHUJbaiDz6HA3y7xt2fbL92XhIgTaRctDHB6ZGJ2NFrkyPMmaHcWNREL8fUBu4mXfXdWvc026t5GRLluun3FXswrrqFOpddauOFQpBwziRprfdDQ7sOVC0J72y2+nweZuLVEQEREBERAREQEREBERAREQEREBERB+Y+wq/bZf5PkfCNQ+lOqwY+wq3bxfYUj4RqH0p1ZVyVKa1qOtT7lu/CVQ+mOrs611rS+5Dv6fP+lOpPM/BOIiLVIiIgIiICIiAiIgIiICIiAiIgIiIPMUPInN6E7btltY2p1q2zmZLvlqqHUJBT5cSRPly+SlG2GgHQKYQ7TakJC0PN1lojMquChXLKiUK1a3SqTKh2dCnw6XcDt3VmdId2sZ2K06FLewGJFPYPkLuk3R5wgO/uesEQeQJnByz8rliUqwq9NoWEJjL2JZYMxLyq7EKmTWBkMO1Hk7DDQz9u0UXvT2jZbIgwIhIiKbt7g35mx65RK7WplsR3oVbtmpvtRpb8gdNNpL8N3ACJhrUROugQ9wd3VzV6kRB5+yVyfzGy+vePOeiUa1rUZpEmLMoFGuSfU6dLmm60TT8WHKaEKW0Ag/3poyHvuA+BrP0CiICIiAiIgIiICIiAiIgIiICIiAsztng85K2jdU+9qLlrRRuCpVKXV36pJa5TKCTKeJ98mnXdRNanDItDWkf6lpiIISt48VSoHwkf0OQpTaKJuLHTOoGP+ci+ivrvbRZ/krR0awXHU6B8JH9DfU5h7OKr1VPXVqB8In9FfVhw9nFTPmin6iIttEiIiAiIgIiICIiAiIgIiICIiAiIgIiICIiAiIgIiICKt3/AFKbRLFuKr0t7YzIFKlyo7mkSwF0GiIS0l+Vh7C4utC4ffUuj9npfoaC0oqt1oXD76l0fs9L9DTrQuH31Lo/Z6X6Gg6dwYPxLhcmlCluMSIbLQYx4pvcRAbpFqwEC/nBXSGsNkTgDBqhE0WktNLlbpc7+aUx1o3Djh/GndH7PS/Q1G02j1moTKtBHM26BOlTBhliUel75Ew0/qw+w/xO/wB1YVj600nJ0ZjeOfrOXuY1MsClWfValdN6x249EGosu0ulkcfbuHtZjrXFzfAaB13m7m8KsthnUjqsa98ys6os2c7HiYxaHTv8mUeIE8tEbDZO9/kOukOIAT57xcxpslZLpykYveiSravG8axWqXMDS/DmwKS8yf8ApEoahbNyZuqw8SpVOz5viXbYMaIkCqDBnSYp6vBmOsE6bWnHuA5r0+Np3VpM7Z2pqt33aRFrdHnjrh1eG+PG97XIEvaT2bvseKe6Xil3MVJrP6hlYNVbcjVG8arLaeZdjOtv0ykuA406WBOtFgUPugZYCRj4WOC4SyiaOTjUML4rzcg5Tsw3GolLbI5DjGwJ0tMPePZbmrxVaWjIs1j5QSYmzCNmvfwCyMMWwwnxsRwGLx7IdOLGni7u/wDzv8rr04Lnwy1ukGcW4ueF8tFg28Ili1SXNJGerAt+CXN5o/koNDRZ65YuYIO44x87q8IbR0sBepNMLiEmtLQ7sYeae/8Alc3dXC3ZWajRNYO5wzJWGqKLpYUqCzu4fbRD3g+d4A+D4RGg0hFjcuLm3DuKnUMrwmycZVIqE4gZmQBIpDEmM2ACR0/dDZPkRF4/EP5ZTj1NvtonQO4L4dAXZAi4z1ELUDYagPSTA+2luCP9vQg0hFm7Ue4SNpmVeGYEY3HI7G/S6Y4Im4GreJqKQ6R5plzBL8K4sJoDFGZIzTvWI2THKi5XRY0bSG1xb3sHYA6S14c3HiLix1c3eQaaizwTh4ukz2dKmLguSGiEjpAlqj/bA/a38n4fi/hUhFoFSm92Nm5cTvsF3tml484dQ/8Awf4R7qC5oqt1oXD76l0fs9L9DTrQuH31Lo/Z6X6GgtKKrdaFw++pdH7PS/Q060Lh99S6P2el+hoLSiq3WhcPvqXR+z0v0NOtC4ffUuj9npfoaC0oqt1oXD76l0fs9L9DTrQuH31Lo/Z6X6GgtKKrdaFw++pdH7PS/Q060Lh99S6P2el+hoLSiq3WhcPvqXR+z0v0NOtC4ffUuj9npfoaC0oqt1oXD76l0fs9L9DTrQuH31Lo/Z6X6GgtKKrdaFw++pdH7PS/Q060Lh99S6P2el+hoLSiq3WhcPvqXR+z0v0NOtC4ffUuj9npfoaC0oqt1oXD76l0fs9L9DTrQuH31Lo/Z6X6GgtKKrdaFw++pdH7PS/Q060Lh99S6P2el+hoLSiq3WhcPvqXR+z0v0NOtC4ffUuj9npfoaC0qqUIvsST8I1D6U6vrrQuH31Lo/Z6X6GuhbIORaY5GfmuynWp80TecwDU4fKnd4tAiGr80RWGRUp3Wvmz/uOf6fP+lOrj2qg6DbtZnQ35cS/a9TmXJ07TGjMwCaa+ynebi7GI/wC0S8x8lVwX1FVutC4ffUuj9npfoadaFw++pdH7PS/Q10M1pRVbrQuH31Lo/Z6X6GnWhcPvqXR+z0v0NBaUVW60Lh99S6P2el+hp1oXD76l0fs9L9DQWlFVutC4ffUuj9npfoadaFw++pdH7PS/Q0FpRVbrQuH31Lo/Z6X6GnWhcPvqXR+z0v0NBaUVW60Lh99S6P2el+hp1oXD76l0fs9L9DQWlFVutC4ffUuj9npfoadaFw++pdH7PS/Q0FpRVbrQuH31Lo/Z6X6GnWhcPvqXR+z0v0NBaUVW60Lh99S6P2el+hp1oXD76l0fs9L9DQWlFVutC4ffUuj9npfoadaFw++pdH7PS/Q0FpRVbrQuH31Lo/Z6X6GnWhcPvqXR+z0v0NBaUVW60Lh99S6P2el+hp1oXD76l0fs9L9DQWlFVutC4ffUuj9npfoadaFw++pdH7PS/Q0FpRVbrQuH31Lo/Z6X6GnWhcPvqXR+z0v0NBaUVW60Lh99S6P2el+hp1oXD76l0fs9L9DQWlFVutC4ffUuj9npfoadaFw++pdH7PS/Q0FpRVbrQuH31Lo/Z6X6GnWhcPvqXR+z0v0NBaUVW60Lh99S6P2el+hp1oXD76l0fs9L9DQWlFVutC4ffUuj9npfoadaFw++pdH7PS/Q0FpRVbrQuH31Lo/Z6X6GnWhcPvqXR+z0v0NB2ro3ZdB+ES+ivrm2qrlQodTpdSosiZeVYq7eM4gwYmtQhAC5K/vYbJho9X63hKb2q5q5NYcE0tdZoH6ef0V9WhUeuMSajMo0OLVJNNcOceiRGBonW/sV/m7UDH+0C7/WhcPvqXR+z0v0NaYkUtKKrdaFw++pdH7PS/Q060Lh99S6P2el+hrVK0oqt1oXD76l0fs9L9DTrQuH31Lo/Z6X6GgtKKrdaFw++pdH7PS/Q060Lh99S6P2el+hoLSiq3WhcPvqXR+z0v0NOtC4ffUuj9npfoaC0oqt1oXD76l0fs9L9DTrQuH31Lo/Z6X6GgtKKrdaFw++pdH7PS/Q060Lh99S6P2el+hoLSiokuJX7dr1sgd8Vmox6lUXIciNMZh4AQYQ5LvstMAerW0HhK9oCIiAiIgIiICIiAiIgIiIKtmn/Fnd3wDUPo5qxSH2YrDkmSeAttCREXiiq7mn/Fnd3wDUPo5qwSgccjONtumyRDiIuBgOofyt7dQYRl/wyctswqBUL6j2tedIs2BSptcwuifTGypb8SL7bjtI7jptHp3hafFp08B3Rx9hRUHh5ZLdbNwXPcVMue2mrft2PdgxqrFYxfqVJfdFhl+MLD7o7zxtNbN0mzE3Q1iKqNJ4AMR64q1WLzvSg7GuW1VbandaNpBbztVGeGkpVR2T7jEh1vnBoaaHXv8A5K44f8H5Cl5U3Tlbct3WoPVm3olAg1S3Mv4dHktclfafCVKdBw3ZTpOx45GG1aaLZ8zVvCGp2fwqLevK56zZDOVeYlLueiUyn1eZRqlS2G5Qx5T+yaxHQ+YFp9sLSW6OBeGJBhNXJdcvL642sZDVSIrtvQYEGNFisuHUNNCxd2et11oGtRQz75j4QYDzS1jj+XGVmftF4Ul7XFc91tzp1Rsehw2rrwtkmaWbrU50n4rUfb8evZYY/wArjpJ3XxadLS3C57UezKuagySqQ0/DLi9GqsI4MbXlw9SXWtlzx2X3R1at/wBq5u9uxQpWUecd5XNwY6nndmDFk0ebhTalWwFqDHPYRGmjMcGGhkntdOAfyptGRDjqEF26hwprUo7tVYkWhd9Qg21IpUa4KxGhxQhwOXsRXmHTE3xdMNMoNQtA4YaT1Dp0EU5RckDpPB0kZAdc+0wkW5Nt/qtjD06eUNuhtcGNp4O15mvwecoKo8Gk5lp5gWsN6YDhfrtIdxf6m92HyKFDi8Wna9918j1+Dp2vhad6xZoWfVnTo1KNqFWMJtWu2XZbVP5OHKgnxSf2+JjgftQtxXn9YkXetJeFpVGvvhQYwLIvV2m2Nc1rXLT7Frt4W7hckNgAnBAYHUeyafN1rEDei6mnwad0u83naZ/Dg7xOzJW80xu2azDqkGVgxSWGMGuRVWUwxFkVJp/V7aUeGw2I6d3U8Wotru5fG4DtUjUEKSzf9qU08LErdhPvUmyeSlMj1GO20U18uWa3Zm1YbdIyLSXGY6RItqg0djhC02FU6lQCplfuOvnccegQKNSokVp0pBUSLU3dm66+DRtC06bpOuk1vFstJbmuwZAZk1vNO061cNbi4xHYd2V2jx2HGNg6zHiz3WGgdHUXfRAMBP8AK41UpfBtrUC7Hcw7TzBiRLgbusLjhlPo5SooNHQYtHfiutA+0R6xjbUTEw0FoHSWAb18yby1nZWW1UaHV7qxuCdVq9Va/JmYQ+SDi7NlG+YA3rPSIk5pHe9hBoaIq3cVxY0UmadT4+E6rztQwYIlp1eM66XgNB4Rf6sNREI4hwTyDsn0ENe8NCq27/4inq1qt27buNFJ6o1CRhOq87SU6cQ6dXitND4DQeCP+vHUREWNkQEREHXfjMPhi2+y2YkJCQlhx8YlzsFGPWvbrz4TpFApjjzchqWDxRGyIXmx0NOcenj1AJEIl4I4qbRBWMLEtVpgYsamYw2W2GowBEedY0tNO7QAHQQ6d/u9znLketWMQu4xq5XY2LuEvHUNRdcxE38d4h2urmfyY8wPBFWNEEANCqTT4ut3dV9nt2nSYcCOQ7IGtmTOrZa9JF30i1a9XNIQ3VwYUu9WYzYBdsB54GIzZOP0nVqdF3U+5pB0ee1uiPgFvb+G4rMiCtPHfLTbhx2KHMc0zSaE3HY3GWr7DEi0uadzVg6enHu8WIh4K5sJlzDNwafoMXkrksW8Xmp+rEY+wwInSEmh7u171ow1buOvUPMU+iCrM3LWMY4PSbDrbBmzDcIBciu6XX3dm41uv85juOOlzNBcYEZagHkfu+FDbkSplNrjDcdufILTSpDveopYCZDshPUR8epoMN90ePEBLSrKiCBG56HjPwppTialFNGnC042Y4nJ5NyrQGJYb3eeMv1S8LDiXzT7ytSrssy6ddFJmMSo0WYw4zMaIXY8o9MV0OIu6DpCQAXhkOOlWBdB+nQpfdkwWHt9ou+NCW80etv2fFPeHxS7uCDsMusP4amjEsNRYY44Y+EOOklzqtSrEsyeDrEu1aViL8aowjwGIAlixPdF2aGocOPS+4AG745CJFvYLsdbFKxqOFTDCYL+M7qmWznPiJyMI3Jt8NWkh2X8mWGjUInp1jgaCdRVqPaYwW2IkO4a8ARo8CMBHPxkGTcV3E983tZGbo46HXC4zMeLewLeX49Q7jGO+zFvebtnGJwtOSoUZzZvPu4EweOAAGoY497AfDD20jPfQWZFBFFucZmPFWKacIppPbIoJ4OjF2HELWva+2co39pp4tG5o1d9XXju3yy0wMmBQpLmDcAXDCU8wOsjxwmkGGLZ7ohpJofDLdIg56CyoqwdZuePHdees45DjbMt0WodQaInSB7THaDa7IdbrW/vaRDHd1FzlznX5LUw4x2zVxwwlORwkCDRgQixtNvuukWgse9jgQ69fgad5BYEVaau6lvbEnoFYik6MLDS9SZQ6ClY6Wx1aNOoceLX/NeHp1L8K/bMajnJk3NT4jLbEiUbkp/YCDLTuydcLXp0iLm7qxQWZFHM1mkvPHHYqkV19t4o5Ng8JELojqIOLDwtO9pXeExMcDEtQkg+0REBUikFxMTPhGofSnVd1QqaW7M+EZv0p1c+Zpi8pTWu1Zn3Ex/Tpv0p1RutZTA4TFt4yZlg5VwmbzueFWZFNmYYT2oVJp0t2W/g01KnHu7UtJd4jg+/u+1KcXJd8XodFmNi3e/ApcurZjZwWhVZU4BnA1SsWo0CnxdpscNkRuE66G13CeM+Ij5oNcxWw72s5p02Xbvo4G07IaISnNYEJxw1vjzuc0O8fijzl1MFiRV0L2s510GWrvo5m67HaERnNYkRyA1sDzuc6O8HjDzVx9kGwdhyzr3oHJ9jyva9U2NHJ9pstrq18za961exr3fZQWZFXTvazmnTZdu+jgbTshohKc1gQnHDW+PO5zQ7x+KPOQL2s510GWrvo5m67HaERnNYkRyA1sDzuc6O8HjDzUFiRVnsg2DsOWde9A5PseV7Xqmxo5PtNltdWvmbXvWr2Ne77K5DvazmnTZdu+jgbTshohKc1gQnHDW+PO5zQ7x+KPOQWJFXQvaznXQZau+jmbrsdoRGc1iRHIDWwPO5zo7weMPNXH2QbB2HLOvegcn2PK9r1TY0cn2my2urXzNr3rV7Gvd9lBZkVdO9rOadNl276OBtOyGiEpzWBCccNb487nNDvH4o85AvaznXQZau+jmbrsdoRGc1iRHIDWwPO5zo7weMPNQWJFWeyDYOw5Z170Dk+x5XteqbGjk+02W11a+Zte9avY17vsrkO9rOadNl276OBtOyGiEpzWBCccNb487nNDvH4o85BYkVdC9rOddBlq76OZuux2hEZzWJEcgNbA87nOjvB4w81cfZBsHYcs696ByfY8r2vVNjRyfabLa6tfM2vetXsa932UFmWT5rZhZg2RfGXtMotIoR27c1wsUSoy5brpTNTrElzQw0GkA07AO+mZcevTo8NXY72s5p02Xbvo4G07IaISnNYEJxw1vjzuc0O8fijzlk+cNHr2ZVwWpMsrPPL+hRLaq9Pq0WHUKIdUfkVJ1p8Y4E61Uo+GydZf1A0Iay0ahMh3UEbf2euY9CdzIve3WbaxszKapR6fV4MqG+7UaoAxI0ya6xIF8Go+yamCICTTuJm0fN1Ctxo1aeq8ipsOUWpU/CnTThA5LbAAl4CIFt2NJFqa39OotO8Bbq8/3PltSLk66Io59WdEs/MQoVbvGCMUCdlE0MeDIchSOWaYrEjCK0wWsH9J6tJ6yWy068aFTKhUo9yZlW3JcfqMzqewLzUZ2MzHYbKRHLvpbU2t50z4h0gYahHTqIKPbnClsu4KnRRO1LqpVGuKVUoFOr9SYitwH5UAJDkprdfJ8cRCHKITJrBssGi0nj3FL2FwgKBfdZodH60Lpt/C66W9WbblVdmKLVXiN7IjJrZPum0Wl9o9m+LR6S5u6eA0iJk/l+dr2BZU3NejTo9p3DUKi8LZNCVT6tQ6m01FHif70RtVMjA97a4Nbo4at36y8sulW3VbNrt5Z72ncVNy5t1+nW5yWO1BI4rpNROWS3cZLoOnxMAxraBoNZu7u8IAGg3TnlaNoR8xpNUh1QxyxojdfrODLIFg5HNh98RY3t49Ec+dp8FcNNz0pdcvyp2RQrKumpsUWqNUaqVmMzFKHBlOxwfAHGtvyrToda77sNlvc/dLizjODKhi+52ZUK3c9rZt2BmXbh2vXWJMEJkmO7DYfF02D5U2IaGpXfmzAsREOc3r1Dy13LS3L3zQo1+tZt5el1Lr1MlxKhCpLA3BgG4TVL6otSR1MSNkY6CaIjaIw3ueIWejcKWxK1IhPtUC44tIrbdQdt+svtReS1rkTTr7osAD5vhiTLDrgbdprWAEQq75YZixs1rOgX3S7ardKplWBt+nYVZppt2XFNoHG5Ai04egCwPua9J7uO7xacSwDL7IHLPL2mtU6m5g5Ut0Cm0me1S6hHtqE3WeSSNpGadk1HF8tqDRO4ta2gaxdLARIucJ7lYcqzrBse3LCevyjTDtmmDRCeKUy0Tp0+KAvns9ZaCEQ1mGrcE95BoSKuhe1nOugy1d9HM3XY7QiM5rEiOQGtgedznR3g8YeauPsg2DsOWde9A5PseV7Xqmxo5PtNltdWvmbXvWr2Ne77KCzIq6d7Wc06bLt30cDadkNEJTmsCE44a3x53OaHePxR5yBe1nOugy1d9HM3XY7QiM5rEiOQGtgedznR3g8YeagsSKs9kGwdhyzr3oHJ9jyva9U2NHJ9pstrq18za961exr3fZXId7Wc06bLt30cDadkNEJTmsCE44a3x53OaHePxR5yCxIq6F7Wc66DLV30czddjtCIzmsSI5Aa2B53OdHeDxh5q4+yDYOw5Z170Dk+x5XteqbGjk+02W11a+Zte9avY17vsoLMirp3tZzTpsu3fRwNp2Q0QlOawITjhrfHnc5od4/FHnIF7Wc66DLV30czddjtCIzmsSI5Aa2B53OdHeDxh5qCxIqz2QbB2HLOvegcn2PK9r1TY0cn2my2urXzNr3rV7Gvd9lch3tZzTpsu3fRwNp2Q0QlOawITjhrfHnc5od4/FHnILEiroXtZzroMtXfRzN12O0IjOaxIjkBrYHnc50d4PGHmrj7INg7DlnXvQOT7Hle16psaOT7TZbXVr5m171q9jXu+yg+rwx0u0P4RP6K+uDa/wBai7uu+1Dk0qO1c1KJ9qqyI5NjLbIxdaiu7UNOrnBtQ1eLrHUuHrmt73ep/wC1AuPLWym88UiR6q7Qf0136K+rnh7Cz+n1KDVq9SApk1iXyeU667sHQc0hsHR1Fp/KIVoGHsLbBxRk8v1ERbMxERAREQEREBERAREQVa7/AL4LH+Hnf8LnK0qrXf8AfBY/w87/AIXOVpQEREBERAREQEREBERAREQVbNP+LO7vgGofRzTsc0D3QufpVVPSEzT/AIs7u+Aah9HNWlBVuxzQPdC5+lVU9ITsc0D3QufpVVPSFaUQVbsc0D3QufpVVPSFDUfLSltVSuuS5tw4MyJ4ORtnctRHEmuSsDvaX98tYOd0t7TgOHNwFaEoOhVOXOqlxQ39OzptSCMxxYeBjDjO/wC86aih0uxzQPdC5+lVU9ITsc0D3QufpVVPSFaUV6Crdjmge6Fz9Kqp6QnY5oHuhc/SqqekK0ogq3Y5oHuhc/SqqekJ2OaB7oXP0qqnpCtKIKt2OaB7oXP0qqnpC7lFtOiW+89Jp7Ekn5WkXZMqa/LfMR5o7R4iPT+Tx6VOogIiICIiAiIgIiICIiAsp4S8OtPZEXrJoN3Vm3JNKoNQqAy6S4DEk8WIrpi2LunE2uMxEtTWk93dMeNasqHd1l2tnbZxUC8YNysUmUTmD8Niqz6M+6GIuNG0/wAldaM2iEy72REBcYFp7goMv4QLl04cGGHddHv64KJLptOpk1xymyti7NdImB76/wC26N4iLSY6vC1BqAtyxwuLrkZdbdp+NC5G5tW8WXOWYytYaCEtWjZaNpqHTq1afwLMpOQeSt32w7lZMqV2VKk25JxYlU8r9ruts3mmXRZfPlm1dDANgQNOkQhq4wEdWKvVuZf25a78GZTirj8imwnqdHeqVen1Bwo7rwuHtClOmTp6gHvjmoxHcEsB3UFtRQEW7KVUJceNSXHaiJTpNPefiNbRqLIYE9oD54e18RBo/P4hU+gIiICIiAiIgIiICIiCMkUOjTSwOTSobxazLU4wBbxDoL2cPCDd/NXRbsm02cWyjUCCxi1jE07BrZ8WEX7XHc4t1vwR9jBWFEFZKx6QDBR48usRhxYJjjarModIk7tSL23na/D5+nc1ad1crttzsXXHY121pjU7IexDDFlwe+hpEcNbRbreO+A+NztQ7qsKIK8FJuJlxvRdZvtgcbAsH4jeJEADpd5mned52r2B8EVDwbOumIweD1yUx191918ywpRgGJG4R7o7fjw53jK8r5x4sPxqKma5KmtvhTItu3O6JE7WqY2WJGOkacZbuvHSXt/hDxF/rUBWsgLNqssbhpUioWzd4a8cbnoLoQ57uoyLS/uk1KawIi0tSAdAePDdWgUOY5OhuPyOLAxmS2MOLxW5DgD/AHRwUok45jiVW5ULDi5k02JKp2Y1ZotZcjuiMCpU6KcNySzxf/EMERgDv5TZ6D7uOhrmq3oitIiIgIiICIiAiIgIiICIiAiIgIiIC8ecIqqXBYOe1z5sUSvPFULXysKZTo8qHEdhwzdnkwbp965Rsh1bc9Do6tlpItG6vYah37ct6dOeqc2hwJEyVCKnPPvRhN1yKRaiYIscOMmtRczm+yg80XzmbmllReU2wwzMl3PFE7IqB1apwYAPw2qjcrdOlMFyVhprZOx9egiDWOIu73M09i983cyZua9WsC172CmxQzFoVsYvsQor7kWFKoLsyQA6xLvu1ESEz1aS0bpBqAtvpuTWUNGtup2bScrrUiUKtYf5RpjFHYCLM8XatYDoP9bBdiiZX5aW0xHj29l5bdNCHKCayMSkMN7OQIG2Dw6R9sEDMdfO0kWHhIPPluZj5s3DmBS8kpeaVViYs3Tc8B25mKZTuqUyNTmIbrDBicYoomXLj1kDA4kEXd08ZEtA4GchyVwf6ZJeqMeoG7XrnIpjAaWpH+Xp/fRHxS53+taFXcqcsrpp7tOuXLu26tEkz+qzrEykMOi5N06MZJCY48bujd187TuqZoVBods05ukW7RIFKpzbjzwRIUYI7Qk6ZOuEIBu8ZGZEXjERF7KCYREQEREBERAREQEREBERAREQEREBRj8J469Cn4adizEkslh+UZsEPzZKTUY/NeCvQoGGnYvRJLxY/lAbAj84SCTREQEREBERAREQEREBERAREQVa7/vgsf4ed/wucrSqtd/3wWP8PO/4XOVpQEREBERAREQEREBERAREQVbNP+LO7vgGofRzVpVWzT/izu74BqH0c1aUBERAUNR6PjTKhW5ZvAWFVnjMAR8ARisMaf8AyuP9ZTKr1uTJUqsXRHkSMXW4dWbZYEv5IOQxT0/2zIv1lFCwoiK9AREQEREBERAREQEREBERAREQY1woLTmXrYVBt6PSJ1TYkXrbXL2IjThHyLqoxjKItG8Dey16y8ENS8/XtlFWMM17qpLkB6jOdWaIzl/OpWXUqqP0ulMRYYNNU6otPtR6a00+1K2rR6B06iLUDoivcyIPCFw0Sn0y7aVIuKxK+1mFKz1jyJFwOUqQ01KojtXI4DXVDRsn2Bi4xQGKLpaDa1aB0ESjatl9UYdjW9VLisOs1W4abQ6qxDoFesGpVmDJMqpMcEIz8Xv9LnkOy+yC/kjaIdWgtPsUMlMrQvPDMELOiYVzlpVLbbR3ZYTSb2RSthq2O3xDd2unXxeEr4g8M1rKRus3/edOlZQVKFKufMy0axPNihyCakUc6ZAGYLs4G9DrWEoJmDo7Tnk6Zc/UuHNm162xmBWKvbWUT9OqlpXja/Up2kWLUZ0/qBFdgbV+LUxLk7Ufk+3a5BFa8F3WJkbph7sRB4Wo+Wlx0qtnSsscuqjbtwMX/fUzlrVvPQWBGVS6n1KfKTshaNrvrAiWs9BEI7hbqhbpsGVOyzqcPJTKe6aDPHJ64KbeDWNszIMip1t1qHyNotbQFUJm1CYW3a2vOPf76Or+gaIMKy8y3h5d8Ii58LNswqFbFVsyjuvuRYpNxZlVCbOFx0z5rsrZE1rMuN0h0a+PdW6oiAiIgIiICIiAiIgIiICIiAiIgj6RT8adEONiQ44lKkSN3/pXzc/4lIKJt6S/KguuyCxxMZ01vjLxAlOgP90cFLICIiAiIgIiICIiAiIgIiICIiAiIgIiICIiAiIgIiICIiAiIgIiICIiAiIgIiICIiAiIgKPdp+Llai1PWPFHiyI+n8e0Nov+UpBRMmS+FxwYgFjsXYMp0h8YxNjAf8AYZIJZERAREQEREBERAREQEREBERBVrv++Cx/h53/AAucrSqtd/3wWP8ADzv+FzlaUBERAREQEREBERAREQEREFWzT/izu74BqH0c1aVVs0/4s7u+Aah9HNWlAREQFF02ktU+bVpwu4mdUmDLxwx8AhYaY04f/S/vKUVatZ4jrd3AR4kLNZaAdWPNHqdDL/1JRQsqIivQEREBERAREQEREBERAREQEREBERAREQEREBERAREQEREBERAREQEREBERAREQEREHRpcAKdGKOJ4lgciQ/wB38brpOf8AEu8oe2ccSpz2OJY444T54939KdUwgIiICIiAiIgIiICIiAiIgIiICIiAiIgIiICIiAiIgIiICIiAiIgIiICIiAiIgIiICIiAui5Bbdq0epa8dUeO8xp/7Q2i/wCUu8oeRjjhdVPHVjxFT5pcX/exv/dBMIiICIiAiIgIiICIiAiIgIiIKtd/3wWP8PO/4XOVpVWu/wC+Cx/h53/C5ytKAiIgIiICIiAiIgIiICIiCrZp/wAWd3fANQ+jmrSo6q0qBW6XMo1SZ20SoMHGfa1EOpox0mOofxjxqH7HNA90Ln6VVT0hBaUVW7HNA90Ln6VVT0hOxzQPdC5+lVU9IQWlRtPp9PhzKlJiFgT06UL8re1Y4O7Btvi/J3Gm1Edjmge6Fz9Kqp6Qq1bdhUV6r3SyU+4uNirtNDouKogWnkEQ94hf3y3sd4u7xaR5oiooaciq3Y5oHuhc/SqqekJ2OaB7oXP0qqnpCvQWlFVuxzQPdC5+lVU9ITsc0D3QufpVVPSEFpRVbsc0D3QufpVVPSE7HNA90Ln6VVT0hBaUVW7HNA90Ln6VVT0hOxzQPdC5+lVU9IQWlFVuxzQPdC5+lVU9ITsc0D3QufpVVPSEFpRVbsc0D3QufpVVPSE7HNA90Ln6VVT0hBaUVW7HNA90Ln6VVT0hOxzQPdC5+lVU9IQWlFVuxzQPdC5+lVU9ITsc0D3QufpVVPSEFpRVbsc0D3QufpVVPSE7HNA90Ln6VVT0hBaUVW7HNA90Ln6VVT0hOxzQPdC5+lVU9IQWlFVuxzQPdC5+lVU9ITsc0D3QufpVVPSEFpRVbsc0D3QufpVVPSE7HNA90Ln6VVT0hBaUVW7HNA90Ln6VVT0hOxzQPdC5+lVU9IQWlFVuxzQPdC5+lVU9ITsc0D3QufpVVPSEFpRVbsc0D3QufpVVPSE7HNA90Ln6VVT0hBaUVW7HNA90Ln6VVT0hOxzQPdC5+lVU9IQWlFVuxzQPdC5+lVU9ITsc0D3QufpVVPSEFpRVbsc0D3QufpVVPSE7HNA90Ln6VVT0hBaUVW7HNA90Ln6VVT0hOxzQPdC5+lVU9IQWlFVuxzQPdC5+lVU9ITsc0D3QufpVVPSEE7TokWGwbUTHjAnnXS3uPfN0jP8AvES7iz+g2FR5UVx5yfcY6Zk1nvdxVFodIPuBzRf53c53slzi3lL9jmge6Fz9Kqp6QgtKKrdjmge6Fz9Kqp6QnY5oHuhc/SqqekILSiq3Y5oHuhc/SqqekJ2OaB7oXP0qqnpCC0oqt2OaB7oXP0qqnpCdjmge6Fz9Kqp6QgtKKrdjmge6Fz9Kqp6QnY5oHuhc/SqqekILSiq3Y5oHuhc/SqqekJ2OaB7oXP0qqnpCC0oqt2OaB7oXP0qqnpCdjmge6Fz9Kqp6QgtKKrdjmge6Fz9Kqp6QnY5oHuhc/SqqekILSiq3Y5oHuhc/SqqekJ2OaB7oXP0qqnpCC0oqt2OaB7oXP0qqnpCdjmge6Fz9Kqp6QgtKKrdjmge6Fz9Kqp6QnY5oHuhc/SqqekILSiq3Y5oHuhc/SqqekJ2OaB7oXP0qqnpCC0oqt2OaB7oXP0qqnpCdjmge6Fz9Kqp6QgtKKrdjmge6Fz9Kqp6QnY5oHuhc/SqqekILSiq3Y5oHuhc/SqqekJ2OaB7oXP0qqnpCC0oqt2OaB7oXP0qqnpCdjmge6Fz9Kqp6QgtKKrdjmge6Fz9Kqp6QnY5oHuhc/SqqekILSiq3Y5oHuhc/SqqekJ2OaB7oXP0qqnpCC0oqt2OaB7oXP0qqnpCdjmge6Fz9Kqp6QgtKKrdjmge6Fz9Kqp6QnY5oHuhc/SqqekILSiq3Y5oHuhc/SqqekJ2OaB7oXP0qqnpCC0rpnFjOVBmYePf2mXWg7vgEQYl/tAVBdjmge6Fz9Kqp6Qol6xKMFwQ4hT7j0Ow5Th44XDUtesTY5p7fUI75bvsFu+IKC/oqt2OaB7oXP0qqnpCdjmge6Fz9Kqp6QgtKKrdjmge6Fz9Kqp6QnY5oHuhc/SqqekILSiq3Y5oHuhc/SqqekJ2OaB7oXP0qqnpCC0oqt2OaB7oXP0qqnpCdjmge6Fz9Kqp6QgtKKrdjmge6Fz9Kqp6QnY5oHuhc/SqqekILSiq3Y5oHuhc/SqqekJ2OaB7oXP0qqnpCC0oqt2OaB7oXP0qqnpCdjmge6Fz9Kqp6QgXf98Fj/Dzv+FzlaVVodhW/BqEKqg7WJEiAZOx8ZtbmSRbcJomtWAPOkGrQ4Y83wlaUBERAREQEREBERAREQEREBERAREQFGwOpXK6l1P2e35UHL9Ps8o2LWnX+Vstj/q0qSVatX7vXj8Ntf4bDUULKiIr0BERAREQEREBERAREQEREBERAREQEREBERAREQEREBERAREQEREBERAREQEREBERB06dyTk5cg07PbvatP87tS2v9/Uu4oe2Pue98Iz/pTqmEBERAREQEREBERAREQEREBERAREQEREBERAREQEREBERAREQEREBERAREQEREBERAREQF0neSdUWdejlewd2fHztlqDXxfrbNd1Q8r77ab8HTfnYqCYREQEREBERAREQEREBERAREQEREBERAREQEREBERAREQEREBERAREQFG0+oU+ZMqUaIOAvQZQsSt3Tji7sG3OP8rcdbUkq1azJBW7uMgxEXqy0Y6sOcPU6GP/qKihZURFegIiICIiAiIgIiICIiAiIgIiICIiAiIgIiICIiAiIgIiICIiAiIgIiICIiAiIgIiIOnTpcWYwbsTDiAXnWi3eLfB0gP+8JLuKHtnDEac9hiOOGOM+eXd/SnVMICIiAiIgIiICIiAiIgIiICIiAiIgIiICIiAiIgIiICIiAiIgIiICIiAiIgIiICIiAiIgLpnKjN1BmGeHf3WXXQ7ngCQYF/tMV3FDyMMcbqp5aceIafNHj/wC9jf8AsgmEREBERAREQEREBERAREQEREBERAREQEREBERAREQEREBERBUqncdzDc8q3bdoFKmcigRJrr02puRvb3HwEREWHf5gv7WC5OqGZ/kja/SOR6Cv2nfxnV/4Bo/0ior9vLMbL/LmKxPzDvu3rXiynNkw/WaoxCadPxBJ0x1F/Ug+eqGZ/kja/SOR6CnVDM/yRtfpHI9BXDcOa2WNpMUuVdWY9r0Zmu4jhS3KhWGIwT9WnTsCM8Nrzh5vHzsF8XLmtlhZNWboF45kWvQKk9FOc1BqdZjxpBxw1a3hbdISxaHQW/zd3FB2eqGZ/kja/SOR6Co6n3LmHUZVThs2fbuDlLlBEe1XA/pIyYad3fsPm6XQ/vKw0m46FXHpLFGrlPqBxdkUgYksHSb2rYutatPN1AYkPjCWBYcaxlrhB2rbOZ7GXtQcp5Vy+7rmxYTAVuH3piGwxFJ0++c4nWiAWB77qExxw1ASihq3VDM/yRtfpHI9BTqhmf5I2v0jkegqRO46C1IqUU65Twdo7QyKi2ckMChtEBEBu/zQkIEWovwCShwzUyycuKFZ2GY1r9Xak0MiFS8KxH5ZKaMNYG01gesxIN4SHDmq9Bz9UMz/ACRtfpHI9BTqhmf5I2v0jkegqu2fnTQLvccMWWqVFjyLiZfcnTmGjDqRU8YL7uz1a8WiMSPa80N0T0kYrmsrPCwsxr6qdnWPWafXmqZRIVaKrUufHlw3QkyJTGDQG0ZbwlDLV+eKCc6oZn+SNr9I5HoKdUMz/JG1+kcj0FWlEFDdunMNivQ7fKz7d5RMiSZjR9cT+nQwbAFq+w+d38P/AJEpPqhmf5I2v0jkegr9qP8AGdQPgGsfSKcrQgq3VDM/yRtfpHI9BTqhmf5I2v0jkegq0ogq3VDM/wAkbX6RyPQU6oZn+SNr9I5HoKtKIKt1QzP8kbX6RyPQU6oZn+SNr9I5HoKtKIKt1QzP8kbX6RyPQU6oZn+SNr9I5HoKtKIKt1QzP8kbX6RyPQU6oZn+SNr9I5HoKtKIKt1QzP8AJG1+kcj0FOqGZ/kja/SOR6CrSiCrdUMz/JG1+kcj0FOqGZ/kja/SOR6CrSiCrdUMz/JG1+kcj0FOqGZ/kja/SOR6CrSiCrdUMz/JG1+kcj0FOqGZ/kja/SOR6CrSiCrdUMz/ACRtfpHI9BTqhmf5I2v0jkegq0ogq3VDM/yRtfpHI9BTqhmf5I2v0jkegq0ogq3VDM/yRtfpHI9BTqhmf5I2v0jkegq0ogq3VDM/yRtfpHI9BTqhmf5I2v0jkegq0ogq3VDM/wAkbX6RyPQU6oZn+SNr9I5HoKtKIKt1QzP8kbX6RyPQU6oZn+SNr9I5HoKtKIKt1QzP8kbX6RyPQU6oZn+SNr9I5HoKtKIKZAr2YdSjlIi2lbhCDzzHGdwPjvtGTZf/AAfjCS7XVDM/yRtfpHI9BUnb0Z+LBdakDjgZTprnEXiHKdMf7pYKWQVbqhmf5I2v0jkegp1QzP8AJG1+kcj0FWlEFW6oZn+SNr9I5HoKdUMz/JG1+kcj0FWlEFW6oZn+SNr9I5HoKdUMz/JG1+kcj0FWlEFW6oZn+SNr9I5HoKdUMz/JG1+kcj0FWlEFW6oZn+SNr9I5HoKdUMz/ACRtfpHI9BVpRBVuqGZ/kja/SOR6CnVDM/yRtfpHI9BVpRBVuqGZ/kja/SOR6CnVDM/yRtfpHI9BVpRBVuqGZ/kja/SOR6CnVDM/yRtfpHI9BVpRBVuqGZ/kja/SOR6CnVDM/wAkbX6RyPQVaUQVbqhmf5I2v0jkegp1QzP8kbX6RyPQVaUQVbqhmf5I2v0jkegp1QzP8kbX6RyPQVaUQVbqhmf5I2v0jkegp1QzP8kbX6RyPQVaUQVbqhmf5I2v0jkegp1QzP8AJG1+kcj0FWlEFW6oZn+SNr9I5HoKdUMz/JG1+kcj0FWlEFW6oZn+SNr9I5HoKdUMz/JG1+kcj0FWlEFW6oZn+SNr9I5HoKdUMz/JG1+kcj0FWlEFW6oZn+SNr9I5HoKdUMz/ACRtfpHI9BVpRBVuqGZ/kja/SOR6CnVDM/yRtfpHI9BVpRBVuqGZ/kja/SOR6CnVDM/yRtfpHI9BVpRBVuqGZ/kja/SOR6CnVDM/yRtfpHI9BVpRBVuqGZ/kja/SOR6Cuq5XMw257NNK0LbxdfadfH/L7+nSBAJf/B/9KH95XNRMmM+dxwZYDjsWoMpoi8UyNjEf9gEgjOqGZ/kja/SOR6CnVDM/yRtfpHI9BVpRBVuqGZ/kja/SOR6CnVDM/wAkbX6RyPQVaUQV+0q5LuGiDUpkBqDICVLhusNv7YBNiQ4wWk8RHEhxxa1c0VYFVsufvfl/D1b/AMUkq0oCIiAiIgIiICIiAiIgIiICIiAiIgIiICIiAiIgq9O/jOr/AMA0f6RUVgnC8yquq97hs27LOsu8ajWLfiVNiNV7WqVJwfh4yMGh2D8Cq6Y8qO7p3iE9YaObpJbJKj3Q/mZWOtysUmFpoVK23Laa7L14befp06H2tPheMpbqfmf5XWv0ckenIPBl18FrhA1CdbNeu3L+XV8J2VA2RVqJYM+iUpiDMwlOOGwYTWiYaiutOjrOKOoDEtA6dKjc/sjMwMqLQz5qNTysK7rcuTLegQqXcUyqQ3yoOFIp2LD7T5PbOQZEYA+JsNcRu6NWA72j+gvU/M/yutfo5I9OXQqltXvXKdJo9brtoVCnzGiakRJVsOutPgXOAwKZpMUEdko69hZdME7SOnAFGpBNVHVHLqt9gtb+4WsdHtXfcB5u7u8SyTKvLa/oea8CqT7f2EG3bxzDfmP4Smi2TVUlsS4BadWo9q07q4h5vh6SW5xqJmJBjNRI1z2oy0yIttg3bT4gIjzREeXdxR9It7M6BUK5JK5baawqE8ZOvqHIPa8UVlrUI8s3PatOne7o6vC0jFDNOELk/fd4XjFdsOALtIv2kBZd8vBJbYOLSQmC/tx1GJGWwdqjGkdRapoFzQJUXMnLTPKr3JWCpNg1ZyHT8xbfuWDGpBUGDS51LgSoJatRaZrs7ZRzDvptBoaERPRpE/TvU/M/yutfo5I9OTqfmf5XWv0ckenK9B5LuXg35wVqj1uDHthnA5VJzHaBt6cxokHUrsi1GHFPSRcQyYrDv5A6tLukt1bTldQbvqOfd45p1jK2dZtJrNpUKkxgny4RypEqLKqBu7UIrzojpCQwI468d0R/NHS+p+Z/lda/RyR6cnU/M/yutfo5I9OQWlRNbrUC3qc7U6m9oYa/B7JmRY8QgA+ERFxCIqM6n5n+V1r9HJHpy+Kba9UeqzVcu2rRKrKi8eEJuPDONGjfjcFo3HdTuPHp14l3B5unjLUH7b1Mqs6rdd9wtcmlHHONBgAXHhDjmYkesvDdPZtavBHQIj4RHa0RAREQEREBERAREQEREBERAREQEREBERAREQEREBERAREQEREBERARFX26vWpuLzlKpEF2O2+6wLj84miMmjIC3RaLwhJTVbRIUioY1GIcnERwxGVIj7v/AET5t/8ACpBVmltXXTorkfqTSHdciQ/q6puj3XXSc0+0flKVpFQ6pQRlYs7EtbrbjerVpMDIS/vCS83CRREVgiIgIiICIiAiIgIiICIiAiIgIiICIiAiIgIiICIiAiIgIiICIiAiIgIiICIiAiIgiqvUZFP5MEeOD78x/YR2zc2Q69BHjqLiLwQLwcVwcqvDUP8AkWjafhR36hK8WioUD4SP6HIUntVkpFMVSqsTokSr0yGxhNM2m3I8wn94QI+ItTQeCBKeUBVi1Va3/hI/ob6n1UlCIitKrZc/e/L+Hq3/AIpJVpVWy5+9+X8PVv8AxSSrSgIiICIiAiIgIiICIiAiIgIiICIiAiIgIiICIiCr07+M6v8AwDR/pFRVoVXp38Z1f+AaP9IqKtCAiIghZ1TqWFSKl0mnMSH2mAfdKRKJkREyIR5oFq5hf/JdWK5e4yJhP06jutm7gTA4VB0dkGgd32jf3tRavytPgrsMnpu2pfB0L52UpXV/UsuauiMplTmSZcim1GI1HlMA07xMv7UCE9enHViI4/yZeCpnD2FCQi1XbU/g6F87KU3h7CqeLyn6iIreCIiAiIgIiICIiAiIgIiICIiAiIgIiICIiAiIgIiICIiAiIgIiICIiAiIg/MfYUFbBf5Of+Eah9MdU7j7CrdulogyPhKofSnVlXJUp7HHj/Aou1PuU78JVD6Y6u1tV1LS+5Dn6fP+lOr38jXinERFokREQEREBERAREQEREBERAREQERZ9eub9u2Jd1q2VVKTXZk27Kg1T478SBiUWKTgukBPvliIDq2Du4Oo93mad5BoKLJb5z9pdgVqow6nYV4SKJQXYUetXHGhx+p1POVp0YltXwffEdq0RlHad0a972C06PArNKqz8ximVWJLdp0jGHMBh8XCjP6BLZuaeYegxLSXjD+PBBJooGNdtsS8IDsa56W8FXkuxKaTc1owmvtC6TrTWOrvhgLDpEI83Bo/FJRtDzZyvudiqSbazJtarMUIdpVHINZjvhBDe3nyAsdlzC53i4oLgipkHN3Kiq22d5UzM61JdBbf5KVTYrUZyGLunVs9uJ6Nenu6dSsdOqVPrFOi1Wkz2Z0Kc0L8aTHdFxp9ohwITAh3SEh9gv8A5IJBERAREQEREBERAREQEREBERAREQQNyY6ZlBx/ziX0V9dnarp3Zjpk0H4RL6K+m1WFV7mkOOeeur0D9PP6K+rKqlJPVXKD+nn9FfVtVYk0IiLVKrZc/e/L+Hq3/iklWlVbLn735fw9W/8AFJKtKAiIgIiICIiAiIgIiICIiAiIgIiICIiAiIgIiIKvTv4zq/8AANH+kVFWhVenfxnV/wCAaP8ASKirQgIiIK7iWi7qh8HQvnZKkdqop49N3T/g6F87JXb2v9aw3tdPDipha7rqf6BC+dlKfw9hV6jFrump4/igQvnZSsOHsKsfFFeX6iItUiIiAiIgIiICIiAiIgIiICIiAiIgIiICIiAiIgIiICIiAiIgIiICIiAiIgKqUA9ESV8I1D6U6rWqZRz0xpXwjUPpTqwyKnymNr/Wvmz/ALjn+nz/AKU6uHa/1ry/cd45rNXNPo+ccyTYWVvViQMWrW9Ndbjzo5yn9uc+qtNE7T9O7pHTFA9X214C8x8lVwesI1ao8+dMpkKqRZEunkAzI7Twm5GxIdQ4OD7Iah7uGpSazOwLd60bViwstbBsun0x9jlrQ02sObCU+bvthOjF77qa4nNuWoiPdx/nVaXJt5C4Wzt+jEO1kYCRVV0SIRDvB/a2O8Z7pj4A7w4u8xdDNY0Vcbm3kTg7S36MI7WPgRDVXSIRIO/n9rYbwHugPhjvFi1zF88tzA5Nq626ByjYatn1bf0co2nN18j5my3tenj17uni30FlRVxybeQuFs7foxDtZGAkVVdEiEQ7wf2tjvGe6Y+AO8OLvMRubeRODtLfowjtY+BENVdIhEg7+f2thvAe6A+GO8WLXMQWNFWuW5gcm1dbdA5RsNWz6tv6OUbTm6+R8zZb2vTx693Txb6+nJt5C4Wzt+jEO1kYCRVV0SIRDvB/a2O8Z7pj4A7w4u8xBY0Vcbm3kTg7S36MI7WPgRDVXSIRIO/n9rYbwHugPhjvFi1zF88tzA5Nq626ByjYatn1bf0co2nN18j5my3tenj17uni30FlRVxybeQuFs7foxDtZGAkVVdEiEQ7wf2tjvGe6Y+AO8OLvMRubeRODtLfowjtY+BENVdIhEg7+f2thvAe6A+GO8WLXMQWNFWuW5gcm1dbdA5RsNWz6tv6OUbTm6+R8zZb2vTx693Txb6+nJt5C4Wzt+jEO1kYCRVV0SIRDvB/a2O8Z7pj4A7w4u8xBY0Vcbm3kTg7S36MI7WPgRDVXSIRIO/n9rYbwHugPhjvFi1zF88tzA5Nq626ByjYatn1bf0co2nN18j5my3tenj17uni30FlWEcIY7/n3Bl/Hs7Jy6bpi23ckO5Zk6nTaSw1g0DUpo44jMnMOE/3wC5mjSfP1YYitUcm3kLhbO36MQ7WRgJFVXRIhEO8H9rY7xnumPgDvDi7zEbm3kTg7S36MI7WPgRDVXSIRIO/n9rYbwHugPhjvFi1zEGIX7LzUvHMpmHdeQd81XL6inT59OgUqpUAW6pUcBB/a1Db1JpzRFd0iLACQEbROkTo4tCG5UB1/CVW9vaTlHwGoELTupgsKmODLX2VhsixxH8LXfdJ968XSvNsnO3Oe1s475CvW3SqizElW7att0CJdBhFKoVAhLB10yp4kPetq6bu/oFrZg0erWrfT+Ebd431EywuHLWkwricuhy2JIx7kdfjBidEfqsWU27yMDNp0Y7rR6gAmiHV33BBSLYyzzbabyxsOrZSyep9h3fcs+p1KVV4QQp0SVArTUUo+ydKRoPlzAnqaEw1809JEFcq2SGdFw2BWMvqBa9x0ygQ7dpjFNjXS/RHqiw7CqkOT1JgzImvaxCjsPtcc3VhrNrnDtRHT4vCWzGrF4U+xrayeocuo1KrV+ktOSbtdYjtFSDbB910uQkekydHRoAy8bSo2mcKXMm/KRgzYuT9LOrBaMq5as3LuomOp+iZJhiwwYwz5Q6Zw3iHXsg3d4hQQ55H3bdk8rmmWnekiXPvW0plRG76hRydfhUt9x0n9hA0tDoF3TxkZuu6B3NIDq9bYYYDhpH8CyLIm6MzLqyOy9uWtU6kVCo1W1afPly36o6Dkh04DToOkIxd03XTLWP8lzh2vNV8bm3kTg7S36MI7WPgRDVXSIRIO/n9rYbwHugPhjvFi1zEFjRVrluYHJtXW3QOUbDVs+rb+jlG05uvkfM2W9r08evd08W+vpybeQuFs7foxDtZGAkVVdEiEQ7wf2tjvGe6Y+AO8OLvMQWNFXG5t5E4O0t+jCO1j4EQ1V0iESDv5/a2G8B7oD4Y7xYtcxfPLcwOTautugco2GrZ9W39HKNpzdfI+Zst7Xp49e7p4t9BZUVccm3kLhbO36MQ7WRgJFVXRIhEO8H9rY7xnumPgDvDi7zEbm3kTg7S36MI7WPgRDVXSIRIO/n9rYbwHugPhjvFi1zEFjRVrluYHJtXW3QOUbDVs+rb+jlG05uvkfM2W9r08evd08W+vpybeQuFs7foxDtZGAkVVdEiEQ7wf2tjvGe6Y+AO8OLvMQWNFXG5t5E4O0t+jCO1j4EQ1V0iESDv5/a2G8B7oD4Y7xYtcxfPLcwOTautugco2GrZ9W39HKNpzdfI+Zst7Xp49e7p4t9BZUVccm3kLhbO36MQ7WRgJFVXRIhEO8H9rY7xnumPgDvDi7zEbm3kTg7S36MI7WPgRDVXSIRIO/n9rYbwHugPhjvFi1zEFjRVrluYHJtXW3QOUbDVs+rb+jlG05uvkfM2W9r08evd08W+vpybeQuFs7foxDtZGAkVVdEiEQ7wf2tjvGe6Y+AO8OLvMQWNFXG5t5E4O0t+jCO1j4EQ1V0iESDv5/a2G8B7oD4Y7xYtcxfPLcwOTautugco2GrZ9W39HKNpzdfI+Zst7Xp49e7p4t9B+3iWh2h/CJfRX11tquGtQL1q0mGLVKozTUSoPObQ6m6RGxg0QNlo2HPLaFqDVu6R4jNOpF4f0CkfGLv1C5ck1uaTrpo/MS116g/prv0V9XRVGnUKtHU4c2qNwY7cJ0nh2MgnTIiaJvwmh085W3D2FeGfamn6iIt0qtlz978v4erf+KSVaVVsufvfl/D1b/xSSrSgIiICIiAiIgIiICIiAiIgIiICIiAiIgIiICIiCr07+M6v/ANH+kVFWhVenfxnV/4Bo/0ioq0ICIiCqzD03bP+DoXzslc+1/rXSqR6bumfB0T52Svvarktvp4c9ALVc1U/QIXzspWX8OC865k8IumZUX63ZcO2J1Xua4oETqW2/gUSAR7V8dJStBk6W9h3qK0/I06j2WgDIbXabV2w68V2ZmX7cVVqLXK2GqLQ7cmxKJDxaHU5pDZG9LLTui666QOl7Q0Bbq2x8WV8mwIq4F2Uo3BaCLWdTr0dnDE6NNEdT4aw4yxa3R8c+a2W6eIl3F89fFH2fKuR3Bs+T8p09b8/Xp2uy5uw1a9Xgc7Rv6dG8tUrKirh3ZSgcJo4tZ1NPSGccQo00h1MBrPiLBreHxD5rhboYkXcQLspRuC0EWs6nXo7OGJ0aaI6nw1hxli1uj4581st08RLuILGirXXxR9nyrkdwbPk/KdPW/P16drsubsNWvV4HO0b+nRvL6O7KUDhNHFrOpp6QzjiFGmkOpgNZ8RYNbw+IfNcLdDEi7iCxoq4F2Uo3BaCLWdTr0dnDE6NNEdT4aw4yxa3R8c+a2W6eIl3F89fFH2fKuR3Bs+T8p09b8/Xp2uy5uw1a9Xgc7Rv6dG8gsqKuHdlKBwmji1nU09IZxxCjTSHUwGs+IsGt4fEPmuFuhiRdxAuylG4LQRazqdejs4YnRpojqfDWHGWLW6PjnzWy3TxEu4gsaKtdfFH2fKuR3Bs+T8p09b8/Xp2uy5uw1a9Xgc7Rv6dG8vo7spQOE0cWs6mnpDOOIUaaQ6mA1nxFg1vD4h81wt0MSLuILGomuNV96ky2LclwolSNogiyJkYn2GnceaZtgYEYj7OI4EGrxh9ldILspRuC0EWs6nXo7OGJ0aaI6nw1hxli1uj4581st08RLuKMuK44lZt2UxTaveNCckROUNT6fbUgpkcdrstxqREdDaavANoi0b+nTvIM2y1r2aV+cHaNV5eZMqFcDNZq8ep3BGoTUmYcGFVpTRclig2bW3JhgQDvTv5hkuXg+ZiZgXbRKri89MumLBvORR2p1cbYpFYiUoYTbu1nQ2mQ0SOUEQg0TTBky606Qh4XRtzJekWrZz9iRc3s3pDcSsyKtTJ2NKYafpk5p56TIcZKPTG2pDb5yXdyQL7TvMaHHuirHZFj0G05BzY965hz6zV7iiVqtVOZSCB2rvOwdg1HfAIYMtRQaBrULQNbI2g2hiWrUH7nZno7lHWqBR+otBwGvR5TuNVuS4OotLaNomhGLyrYPjyp3F3jBs9AkLR7+7xLO69wh8zLKufNK6zs1qq2tZ1AoVwVGFIrbTDtMjuxXXZQxtk06Ep7cItOJtAWgdLu8tPzAgxL6bYmwr2zHthvCnPDKYptvE81MjuPC0QuxZkF8dqJDxhpAXdBEW80qozkPlFTrGu/K+GV7sUe67absqZopsl1yPBpsAow4sOFGLe2Tm4ZaxdL2rVzUHcrnCPqtIl3DWothMybGtO5Y1rVesnWcWpwy3XWGnXWIewIHWGnZICZFIA9x3SBaR19ej8K6kzq3Z1Hq9sOU3Cvt1QK2+c3U1QJUI5beLDu533W7Tp4a937X5u93Oap5P2LW6/UHSuG/o9AuK4KbcFTtlujmNOl1LvLjTpmcPGQ23rjMG6IvA0Jh33TrMShLn4PmTd3Uq/2Kg9mFFZzEkRazPONSZQPxAYlF3mL9ia2tq6/KI2i1O6ZT5hpAhIQl8z82bxc4OFt5sW9R5dDrVdqdmyBpYviT4tT6zAByGThiI6jafNou5u6i/0r5c4R90wqtJy9qWWdOG/xuiJbECnRbiJymySfpxVHlRzCii600Edp/X9jkWsNI69WpXu/qbZ990Ni0asxcseFArEKojhAo0oeJ2kzGJwCJbAhxaI2Gx3fbRxIWi1exUriyssO57mqN2MVS+aRcNSr1HrcKpQ6Q9gVNnBAKK2TW1im1sjik60/tdYDtSEtkWlBGRuErdtTrkDL+lZXQ3b1crlUtyfEfuEmqbDlwobEzXyrkpOmw7HktEJ4Ma9RgJBhvaYuk8MCQFu0q/L3yzct+16vbVbuBiQxWRmTGypLWuUw6xsAARLvuyMXT1aB1A1ielWO18tMvbXq1KvXqjflSrVPlVK4JU2bRJGL1SlTxbhunIaahhvCDTQA00DWhoBLRiG8uDDJPKXC36HZ1WbvCpUy2oFxUQY79KkkMuNNa+zBcMIw6twsRaNvTr5obQkHPktwmoma94OWXJp1vM1ByidcEYqBcw1poGAdbadYlELDWwfAnWtwdoBaj0mWgluyyfLyiBZkoRnZg5j3TgLEKlwm63SjFuK2Y62y7xDaEy08Quvu6ib04CZARFqufXxR9nyrkdwbPk/KdPW/P16drsubsNWvV4HO0b+nRvILKirh3ZSgcJo4tZ1NPSGccQo00h1MBrPiLBreHxD5rhboYkXcQLspRuC0EWs6nXo7OGJ0aaI6nw1hxli1uj4581st08RLuILGirXXxR9nyrkdwbPk/KdPW/P16drsubsNWvV4HO0b+nRvL6O7KUDhNHFrOpp6QzjiFGmkOpgNZ8RYNbw+IfNcLdDEi7iCxoq4F2Uo3BaCLWdTr0dnDE6NNEdT4aw4yxa3R8c+a2W6eIl3F89fFH2fKuR3Bs+T8p09b8/Xp2uy5uw1a9Xgc7Rv6dG8gsqKuHdlKBwmji1nU09IZxxCjTSHUwGs+IsGt4fEPmuFuhiRdxAuylG4LQRazqdejs4YnRpojqfDWHGWLW6PjnzWy3TxEu4gsaKtdfFH2fKuR3Bs+T8p09b8/Xp2uy5uw1a9Xgc7Rv6dG8vo7spQOE0cWs6mnpDOOIUaaQ6mA1nxFg1vD4h81wt0MSLuILGqLSj0sy/hGofSnVLhdlKNwWgi1nU69HZwxOjTRHU+GsOMsWt0fHPmtluniJdxVWk1XaR33SpNcFt2ZKdaxdo8oTMSfIx3Sa1BzvCXPmaYvKwbVd2zAA7fISHjEps3d/8U6q8NUAh3YNVIebu0uV9UrJaUaREobYSGiAzkSH9Bc4RcfMh/uks8PJeTi6Vo5c2TYLdSbsm241EYqkjlcqLDxxajE94TgMYd6bIvCxAR1Y87jVqRF2MBERAREQEREBERAREQEREBERAREQZZdGQVp3RULkq8ms16HU7hqdJrATojjIu0ybThHkr0bU0Q9zTvC7g4BaiHEdJYioiTwZqNK01Yswbt67huRq6sbrw5By/lrUAoAhsuTcl2HJXHGtnsfDxLn762pEGSWXwdLQsauUy5IdxXHPqFMmV2fg/PkNFi+/V3WnZZu6Gh8JgdOA6cB1F+Tph2+CvalIajdbV93jQyCmTKJOchvQydqlPkTHZZMOk6wenS7If0ONbMxF0t7j3luaIK1YVnU/L6x7esOkSpMin2zSolHiOySEnyZjtC0BOEAgGvSOGrSI938SsqIgIiICIiAiIgIiICIiAiIgIiICIiAoeRjjhdVPHVjxFT5pcX/exv/dTC6ZxYzlQZmHj39pl1oO74BEGJf7QFB3EREBERBVsufvfl/D1b/xSSrSqtlz978v4erf+KSVaUBERAREQEREBERAREQEREBERAREQEREBERAREQVenfxnV/4Bo/0ioq0KhTqyxbmYlVn1GnVlyPNo9NZYehUmVMDE2n52oMSYbLSXfQx3vGUp2RqB7n3P0Vqno6C0oqt2RqB7n3P0Vqno6dkage59z9Fap6Og6dfwfhXC5OKFMcYkQ2WhxjxTe4iA3SLVgIF/OCug1Xoj7rzDEWpOOMHsnQGmSi2R6BLQW7u7hCX6wqawzFoHufc/RWqejrow7/s0JNQOnwLg2zkgCmbK2qkRbXZN8WvvG6Wy2X6ulc9YetdWmmTo4Y1r0e8Wa3T7stlip0SpRY8Z2DVoGtqRoJ0iwJp0eIh3x9kV1LMypnZf1wRtW+q31pk2YlbVVd6oNRj8EoslzHlDA/8ARGbrWndAGlYOyNb/ALn3P0Vqno6dkage59z9Fap6OtZnbO1NVuWlFVuyNQPc+5+itU9HTsjUD3PuforVPR1aVpRVbsjUD3PuforVPR07I1A9z7n6K1T0dBaUVW7I1A9z7n6K1T0dOyNQPc+5+itU9HQWlFVuyNQPc+5+itU9HTsjUD3PuforVPR0FpRVbsjUD3PuforVPR07I1A9z7n6K1T0dBaUVW7I1A9z7n6K1T0dOyNQPc+5+itU9HQWlFVuyNQPc+5+itU9HTsjUD3PuforVPR0FpRVbsjUD3PuforVPR07I1A9z7n6K1T0dBaV5uz/ALkt+n565eW5f2Z9Ws+0Kla1yyp/JrkkUaPJlNSqTsNrJadaNrRtXdJax52Ic0yEto7I1A9z7n6K1T0dVioy7EqV+UjMKVT7tKpUikVCixx62qlsSjzHorrusOTd0tcFjT3fG9lB5Crubd6VXLWlQqzelwRLmgZcu1mjyJd5zKHIq7rsqY1Afiw4jG1qszZRWDdB0tl31rvXfSJc+ZWdLlYsTM286hndWqPdMS2qLMsaNR7gdjNzIjtOYdlSmIbR7KVqlHNadd0HsBY3Ta0617bLMK3CITKm3NiQ83HrVqnc/wD26ze/bXy/zGqL79w1XNHqZUW2WapRI9Mqw02oC0eoRdaxjcYD+AtkTe0Hn60GMTLuzIn523DAmZlUmgXLBzAiQKNTKheVRYedo+qNpaaoTTBR5TUhgnfsotRAZultQ5Pue2lVOyDbeLm16mXNtB3dXWrU/R19dkage59z9Fap6OgtKKrdkage59z9Fap6OnZGoHufc/RWqejoLSiq3ZGoHufc/RWqejp2RqB7n3P0Vqno6C0oqt2RqB7n3P0Vqno6dkage59z9Fap6OgtKKrdkage59z9Fap6OnZGoHufc/RWqejoLSiq3ZGoHufc/RWqejp2RqB7n3P0Vqno6C0oqt2RqB7n3P0Vqno6dkage59z9Fap6OgtKKrdkage59z9Fap6OnZGoHufc/RWqejoLSiq3ZGoHufc/RWqejp2RqB7n3P0Vqno6CRtj7nvfCM/6U6phUuHf9qttmEWn3Fg3tXSLZWzUcR1kZ6/5DnatWr8pdvsjUD3PuforVPR0FpRVbsjUD3PuforVPR07I1A9z7n6K1T0dBaUVW7I1A9z7n6K1T0dOyNQPc+5+itU9HQWlFVuyNQPc+5+itU9HTsjUD3PuforVPR0FpRVbsjUD3PuforVPR07I1A9z7n6K1T0dBaUVW7I1A9z7n6K1T0dOyNQPc+5+itU9HQWlFVuyNQPc+5+itU9HTsjUD3PuforVPR0FpRVbsjUD3PuforVPR07I1A9z7n6K1T0dBaUVW7I1A9z7n6K1T0dOyNQPc+5+itU9HQWlFVuyNQPc+5+itU9HTsjUD3PuforVPR0FpRVbsjUD3PuforVPR07I1A9z7n6K1T0dBaUVW7I1A9z7n6K1T0dOyNQPc+5+itU9HQWlFVuyNQPc+5+itU9HTsjUD3PuforVPR0FpRVbsjUD3PuforVPR07I1A9z7n6K1T0dBaUVW7I1A9z7n6K1T0dOyNQPc+5+itU9HQWlFVuyNQPc+5+itU9HTsjUD3PuforVPR0FpRVbsjUD3PuforVPR07I1A9z7n6K1T0dBaUVW7I1A9z7n6K1T0dOyNQPc+5+itU9HQWlFVuyNQPc+5+itU9HTsjUD3PuforVPR0FpRVbsjUD3PuforVPR07I1A9z7n6K1T0dBaUVW7I1A9z7n6K1T0dOyNQPc+5+itU9HQWlQ8r77ab8HTfnYqjuyNQPc+5+itU9HXV7IFqYS2nCp9xYSRacFr/wDDVS1aN3VpHYc3dD+6guaKrdkage59z9Fap6OnZGoHufc/RWqejoLSiq3ZGoHufc/RWqejp2RqB7n3P0Vqno6Blz978v4erf8AiklWlVLLcXsLbdeeiSIuEirVWU21Jjmw5s3Z77gETZiJDqEhLew8JW1AREQEREBERAREQEREBERAREQEREBERAREQEREBERAREQFWrV+714/DbX+Gw1ZVG0+oU+ZMqUaIOAvQZQsSt3Tji7sG3OP8rcdbUUJJERWCIiAiIgIiICIiAiIgIiICIiAiIgIiICIiAiIgIiICIiAiIgIiICIiAiIgIiICIiCHtj7nvfCM/6U6phdOnS4sxg3YmHEAvOtFu8W+DpAf94SXcQEREBERAREQEREBERAREQEREBERAREQEREBERAREQEREBERAREQEREBERAREQEREBERAUPK++2m/B0352KphdM5UZuoMwzw7+6y66Hc8ASDAv9pig7iIiAiIgIiICIiAiIgIiICIiAiIgIiICIiAiIgIiICIiAiIgIiICIiAq1azJBW7uMgxEXqy0Y6sOcPU6GP/qKsqi6bVmqhNq0EWsQOlzBiY44+GRMNP6sP/q/3VFCUREV6AiIgIiICIiAiIgIiICIiAiIgIiICIiAiIgIiICIiAiIgIiICIiAiIgIiICIiAiIgh7ZwxGnPYYjjhjjPnl3f0p1TC6NLnhUYxSBDEcAkSGO7+Np0m/+Fd5AREQEREBERAREQEREBERAREQEREBERAREQEREBERAREQEREBERAREQEREBERAREQEREBQ8jDHG6qeWnHiGnzR4/8AvY3/ALKYXRcnNtVaPTdGOqRHef1f9mbQ/wDNQd5ERAREQEREBERAREQEREBERAREQEREBERAREQEREBERAREQEREBERAVetyHKi1i6JEiPi03MqzbzBF/KhyGKGr+2BD+qrCoaj1jGp1CtxDaAcKVPGGBYeGJRmH9X/m8X6qihMoiK9AREQEREBERAREQEREBEXyRiHOLAUH0i6xT4LfPmsD+c4OC4Dr1Fa59YhD/pkDggkFA3ZdVvWTQZNzXPWGKZS4Yji7Jec4g4yLAQHD8JGRGIgA7xkQiPHj3FzldlrN+2XJSg/OmNfvKqX9m5lvaFtSqzXbgblR2cRDZ0uK9VJGssd3SxFB13neFo3UE3RL5tO4rFh5l0mtR8bYqdKbrcepPibDeME29qL57XASbHZ46t/Tpw9lctj31bGZNpUu+7LqfLqHWo/KoUrGO6ztWsfYLQ6ImP6wryFltc8y9+DTlBYVCftpqLatJpMC9aFedQnWw5LehQmNMMCegO7djlG86QDoPZYNaiEzVt4Nt9WNRsuct4GZ2NDpV1wWqqFOdaqRSBgNGep3GS6421hHJ3miB4b+jcLHwQ9ZIvDvCuvTKF6+XrwZuG37orEW1wjQaNU6K7WKdLMZD5CECfCd10icRmIlILwOTl/JEQUup3RZlWzfuGqXhmnbtJuaTe9On0KqR6BjVJsamhyYmmo9aCYMWLFEQfakNFp/+I1Ce1DWH9FkX83oec+WsfOm1sw8KvaVDqwZlVPricp9LfwmNUp0Z8ZkpVWdfPl8d0yiu6WA5O0Gj2oWhXxZl28Gy0MtMkyzCrdo1C2nWJr98Ut0mqlJdqpRdMB6dBDXIkC0AutBraLZamuZoHSH9AmL1ocq9ahl6y671ZptKhVl9vZloGLKdktNFq4udiUN/d9ndwViX84a5d3BSvaXes56t2y1SY2TFMhWrCuSuxZMqFNCTWjaab1yHdMxoCikA6uUNC6A7mrSvVOX/Cl4PAWHbONxcIvLdupdSYXLBlXbAF3lGLA69et3Vq1akG6osoHhYcFvweEjlcX5t4QC/wCamPCu4MngcITLk/zbmhF/zUGrospx4VnBqx5metjn+bWmC/4k7ang5Y4budFql+bUAJBqyLKMOFRwei9jNmhY/mukX/CmHCkyC4tzMunl+a0+X/Ag1dFlGPCkyIx5l+Cf5tPlY/8AKX720OSOPsXbKL8yiTy/5CDVkWUYcKDJjH2LhrBfm2zVC/8Atk7Z3KDwKjcp/m2dWS/+1QauiyjDhN5TY4bpXkX5th14v/s15G4fnDnzBykay/urg/1irQ45TZrFchV+ypsWLP3GijjtJsZosea/7Q6J739SD+iC+ccPxL+YeTn8Mz1Waai5x5H1MMMMdk9VbQPGS1tS5g8lfxw0f/XLH8le/wCyM2rUv+24ty0GHdDUWWPtc63J8aQ2WHdxEm3Gf6/Z5virzXXTQWi3Yz8WA61JHHAynTXOIvEOU4Q/3SwUuq5Du2K80TkqBU2D2roCIUmUW7gZYCXtXhDpL/WpqFNjT4rcuI9g4073RLBTumh2URFYIiICIiAiIgIiICIiAiIgIiICIiAiIgIiICIiAiIgIiICIiAiIgIiICIiAiIgIiICiZMZ87jgywHHYtQZTRF4pkbGI/7AJSyj3ahi3WotM0DxSIsiRq/FszaH/moJBERAREQEREBERAREQEREBERAREQEREBERAREQEREBERAREQEREBERBWpcXqpccmBIkTBZiwozwhGlOsb7hviRFsyHV7WK+mrOobD7r7B1Fs5Dm2dIatKw2haBDUXfN7dEB/VFcoHpu6o/B0L52SpPa/1rDbN8lM6uDKq2bzuZ2LWq1ezTMCDHcZCm3rWKaPG6b2rVySS1tfah5+pcHa0ZZ44b9UzHL87M25S/wDv1eYBartqfwdC+dlKdH2Fpj4lMp7WXK3+Uevo/wA7MO4C/wDvUx4MWUmPsxrtL8+964X/AN4tXRWllOHBiycxw3qPXy/Ouyrl/wDcr8w4MGSmPPtupH+dcVSL/nrV0QZRjwXMj8fZs10vzqvPL/npjwWsheLey+YL86bKL/mrV0QZT2rHB+4t/K+lF+cTpf8AEvztVuDtxb+T9uH+dF1LV0QZR2q3Bwxw7uSVoF+fS2i//hMOCpwZ8cN7ISwj/PoEUv8AgWrogyjHgo8F/wAPg65alj+VasIv+Ug8FHgtjzeDXlXh/wD6bTvqlq6IMwDgu8GdrmcHbLMf9FpQPqlzjwbODq3zMgcuR/NtWB9UtIRBnocHnIFr2vI3L8PzbZhfVLnHIbI5v2vJmxg/NtyH9Wr2iDHszrdyAyhsmff1xZPW27Tqe7FadbgW1FdfIn5DbAaQ0b2Ot0FRJ+ZWQtvFNgVrg4yqZcMCrUyklbp27S3J7rtSFzkRtGy8cc2nSYdDVtd0gLXp04q/cKe27gu3JOrUC1Y8t2pSKpRDZxis7V1vAKtEdN0Q8LQAEf6igu10r9bvB3MG88wIEuvO16g1I+ptDOLF5FSOU4sRhaOS6WszmPkTuJlzxHRuoI+XmRkrSJkpp/IZ9qkUeqQqFW66NFpeECkVKVsNMV/S/tTxApTAuuMNOtCR8/cPTE17NOzn7itGBYuTrbVErN/Y2i9cEuiwcYM7FjlTUoI+l3lAkDsUx2jrQAWyLQR7mqz3Bwc65WZ1yUKHfsOLY15XLGuetUoqOTk/CQ0cYnWGJnKBAGnTigRamDMdbukt4dHWpvBpuqnz6BSmczYI2fa17Sr0plNGglhMI5EiU+cV2VynSbYlMd0ELQlzNWrTvhK0/NvI522LNu92149PpV606bVIb8mlsByaNFilJdN/Tx6O9CXN1Ks3Rwg6Vb9kY3ZB4OV2A49IonIGJtOpzAzItSmtxmn2nRfJoS1Oh3h0gdEnWtYAGow46VwRawdHtmy7uzOj1O0rSp1aocGBDoZRpL9PqMV2NxPvnIdAnWmnRwEwaEd0tze3Jiq5EZr3LYEmxroznp0zkLVE6hlHtjk7Dcimz2JbUqYPKidkOuHGaA9k6wGnEtIYFjhiIbVCpkB1lp4qE1CMhEiZNprW3+SWnUP9klIBFjNcyO2P5orhhYVAYjGFQfYek4NBtjaaxaEj4sNRCOJFpHj493UX52K7iAiIgIiICIiAiIgIiICyThBcGzLjhJ0Gh2xmYNQdp1Dq4VhpmI4AbdwWHWsW3cSAu9Yi9x7uktQBvfj1tEGaZZcHbJPJwGexvlrRqPIjtbAJ2DO3mbHxOUu6ndP5OriVvtctNNf+Eqh9MdU3j7CrtunpgyPhGofSnVlXJU/dPYucaibU+5bvwjUPpjq7m0XUtL7lO/CM/wClOr38jXT2ppERaJEREBERAREQEREBERAREQEREBERAREQEREBERAREQEREBERAREQEREBERAREQEREBRj8J469Cn4adizEkslh+UZsEPzZKTUY/NeCvQoGGnYvRJLxY/lAbAj84SCTREQEREBERAREQEREBERAREQEREBERAREQEREBERAREQEREBERAREQVsy0XdUPg6F87KXf2qjJJ6bun/AAdC+dkrt6v9C5d7XR8Ustd11P8AQIXzspT+HsKuUTHVdNU/QIXzspWPD2Frj4ory/URFqkREQEREBERAREQEREBERAREQEREBERAREQEREBERAREQEREBERAREQEREBVagnoiSvhGofSnVaVTqKWiPK+Eqh9KdWWRU+UxtV8Wh9xnP0+f8ASnVxbVfdnfcQ/wBPn/SnVM8lVxTyIi3ZiIiAiIgIiICIiAiIgIiICIiAiIgIiICIiAiIgIiICIiAiIgIiICIiAiIgIiICIiAo92n4uVqLU9Y8UeLIj6fx7Q2i/5SkFEyZL4XHBiAWOxdgynSHxjE2MB/2GSCWREQEREBERAREQEREBERAREQEREBERAREQEREBERAREQEREBERAREQVKcei7pvwdE+ckrm1f1Lq1M9N3S/g6J85JTWuO+TeXZt7HVctU/QIXzslWYvZWWVfM+x8tqxLkXjcLUNybGiNwITYG/MnO65PeosVoSdkH+S0Jku9Z90Zo3lWsKtPsJq0bTFosWm6vI2lZmH4BYx2S2UVrwt903S5pNNeyt8PFlXJo6Ii1SIiICIiAiIgIiICIiAiIgLBLbu7NljMfOa3K9cYVrqBQaVVrfhU+lC0MM5A1HvQ4b7r5Y8mY49ZFqPVpEBLSt7WPUHICXRb+rd/S87swqq/csUINUgScaSxHfjtA+LACcWA1Ia2XKnSAmnQPVp1ESChZIX7fzQMUe+LlzMrN/T7RKsQLbvGlUmkQKjKaFrGRyV+HBbda0POtNkL5EYA/qJouctezSzGl5cWTGr+Fv41Gr1GpUyjQKXy3ZC7UJspqM02T+gtDYm7qNzQW4BY6S5qr1F4PQU6oHWqxm3flfq8ShSreolSqL8HlFGjyMW8XXWNjFADkcbDHf3xdLvQ/jPXa8wstKbmLaA2lWKnUo2wlQZ8OqRHGxmxZsR9p9iUBGBhiYOsgXEQEBd0SHEccUGJ0fOa/4+btZtq/KfIiOYXzQ6DFptMqwvxYwv0R+SRi6bAHIaImtWkgaLX+bv8A3SeGRInZd3PmI/YdIJu2aIVXkUaDdQP1mE9rEep9RhusNOwpO9j3O+hqaMdfM1Xmn8Gi249eK76xel2VqtSLhg3LLmS5EVsnZUWA7DaDSwwAg1sneaGneAS1c7VneYPB7j5m5ZXNVrWzJuHMSuHb9Ss2iO1SVAb2AcsaGU0T8dhg3XQeg6NT5mQE0fhEZEHezGzzzBgVNmwaxbrFoXEzcVkShcp1XxqTEukVK4Gob7ZGbDWzd7060YaSHS6Ogy8GUx4Usx7MtjLiLa1sTJVVqdYodJYg3oxKn8uhRpL4jNjMsEMVp0Ip721dNrW1tWwLEhCxO8GugVSqSLgu6+LsuGsPT6BJbnzChtusM0ify6JGEWI4Bg2UjUTpadoevnjpDRG0vgyW9QJFBm0bMG85IWFXpdfoFJblQBZhuyAf28QuON30XQmOjqfInREh0OhxmZBPZe58U3MqrWhBtugvk3cdqHdNRdcf0lSMNq0w1FdDTvOm7yoPB08jdWtLF+DzlNMy+K77trVDwpNXvquyasdNGXykaXEJ1x1qLtR3ce+vypBCG4Lsx4RxIeIsdoQEREBERAREQEREBERAREQFR6OelqX8I1D6U6rwqBTD48Jo4c4ajN+lOrnzNMXlKbX+tdyzPuHj+nzfpTqi9ak7I+4OH5U2aX/7p1Ri5KvisCIi62IiIgIiICIiAiIgIiICIiAiIgIiICIiAiIgIiICIiAiIgIiICIiAiIgIiICIiAiIgLouQW3atHqWvHVHjvMaf8AtDaL/lLvKHkY44XVTx1Y8RU+aXF/3sb/AN0EwiIgIiICIiAiIgIiICIiAiIgIiICIiAiIgIiICIiAiIgIiICIiAiIgrlZtyVNqWNVgVJqM8ccGHBdj4uiYgZEPc1D45LohbtdcIwC46aRNlpLTTT3S538+rhx9zu4Kt2p93bx+G2v8OhrCsc60rfTPb04M1i5h1MrpuAzi3Y3GCExX6U0LD7ccD2gtE07tWpTeviPZSAda1AJaNQ8a7FoWfetMrxUDMOxrLuSmu4y32rqpsFqG+Tr4aXuWQT1bzobhvNOntfCaaFa+i0mdqVdCybOadB5q0KOBtOx3RIYLWBCccNDBc3nNDuh4o81cfY+sHYcj6yKByfY8k2XUxjRyfabXZadHM2vfdPsa972VZkViunZNnOum87aFHM3XZDpEUFrEiOQGh8ubznR3T8YecgWTZzToPNWhRwNp2O6JDBawITjhoYLm85od0PFHmqxIgrPY+sHYcj6yKByfY8k2XUxjRyfabXZadHM2vfdPsa972VyHZNnOum87aFHM3XZDpEUFrEiOQGh8ubznR3T8YecrEiCuhZNnNOg81aFHA2nY7okMFrAhOOGhgubzmh3Q8UeauPsfWDsOR9ZFA5PseSbLqYxo5PtNrstOjmbXvun2Ne97KsyIK6dk2c66bztoUczddkOkRQWsSI5AaHy5vOdHdPxh5yBZNnNOg81aFHA2nY7okMFrAhOOGhgubzmh3Q8UearEiCs9j6wdhyPrIoHJ9jyTZdTGNHJ9ptdlp0cza990+xr3vZXIdk2c66bztoUczddkOkRQWsSI5AaHy5vOdHdPxh5ysSIK6Fk2c06DzVoUcDadjuiQwWsCE44aGC5vOaHdDxR5q4+x9YOw5H1kUDk+x5JsupjGjk+02uy06OZte+6fY173sqzIgrp2TZzrpvO2hRzN12Q6RFBaxIjkBofLm850d0/GHnIFk2c06DzVoUcDadjuiQwWsCE44aGC5vOaHdDxR5qsSIPAF1s2NHuLMiNFuTEb7o+ZdKoVoWvhOJth6lOuUpx2GFM17KVGI3Zjp6mjFotbobIh1qUxt+lNWm3eV3V6oMUW5c57no12VV6qPMDS6KFRrDAttuiY8iB11qEw6+BA6TRC0R6BDR7CtWw6JZtQuKoUnbk9c1ZOuTMXiwPTIOOwwWz3d0dEdvufnKzGAkOIkOoS9nBB4IpkmyOumi0i5LrKFk6N81hmi3RjXHYfKwgUmGVNaOsi6D7rTMh2rNtHt97kohqMRXzwd65lzaD1khe9XprFpVWi5gQ4h1xpptmpSI947WO1oIcBN/QRmDQjr5+gV73Jlkm9kTQ4hh4OlfRAB8WJDgWneFB/POwKrZFdtS3Kjn7f1VtgnMr7frduTok02JtXqs9p8avKFoNfVWYRBDaNh0H9YkGtotrvbvwZLJy2gXtnNAiRo0muwb9B92FNllKdgx2orRQHQYdMuTjpdfFoxEdwdA7jQCHpMmgMhIwEiDujx+CvrAAwLEsB7pIK52PrB2HI+sigcn2PJNl1MY0cn2m12WnRzNr33T7Gve9lch2TZzrpvO2hRzN12Q6RFBaxIjkBofLm850d0/GHnKxIgroWTZzToPNWhRwNp2O6JDBawITjhoYLm85od0PFHmrj7H1g7DkfWRQOT7Hkmy6mMaOT7Ta7LTo5m177p9jXveyrMiCunZNnOum87aFHM3XZDpEUFrEiOQGh8ubznR3T8YecgWTZzToPNWhRwNp2O6JDBawITjhoYLm85od0PFHmqxIgrPY+sHYcj6yKByfY8k2XUxjRyfabXZadHM2vfdPsa972VyHZNnOum87aFHM3XZDpEUFrEiOQGh8ubznR3T8YecrEiCuhZNnNOg81aFHA2nY7okMFrAhOOGhgubzmh3Q8UeauPsfWDsOR9ZFA5PseSbLqYxo5PtNrstOjmbXvun2Ne97KsyIK6dk2c66bztoUczddkOkRQWsSI5AaHy5vOdHdPxh5yBZNnNOg81aFHA2nY7okMFrAhOOGhgubzmh3Q8UearEiCs9j6wdhyPrIoHJ9jyTZdTGNHJ9ptdlp0cza990+xr3vZXIdk2c66bztoUczddkOkRQWsSI5AaHy5vOdHdPxh5ysSIK6Fk2c06DzVoUcDadjuiQwWsCE44aGC5vOaHdDxR5q/Y9jWTEjhFi2hRGGG+a23TmhEfC7g6e4rCvnHH8S81001Ffh2XaDbZAFuUp0doZaiiNY72ot3m+DzVOMstRmxZYbFtsB0iIjpEVG2x9znvhGf9KdUwp2zIIiKwREQEREBERAREQEREBERAREQEREBERAREQEREBERAREQEREBERAREQEREBERAREQF0zixnKgzMPHv7TLrQd3wCIMS/wBoCu4oeV99tN+DpvzsVBMIiICIiAiIgIiICIiAiIgIiICIiAiIgIiICIiAiIgIiICIiAiIgIiIKxKptPrF0TI1WgR5rLECITTUhoXBAidf1FpL8wP7K7fWdaHkrR/2Br91fjZ6buqXwbC+dlKS1rDbKkNR4cSm3BUYFOYajR8IcR/BlkcAHAyN8SLT+DjwAf7KsY+woOCWq7an8HQvnZSnB9haY+JT9REVpEREBERAREQEREBERAREQEREBERAREQEREBERAREQEREBERAREQEREBERAREQdOnck5OXINOz272rT/O7Utr/f1LuKHtj7nvfCM/6U6phAREQEREBERAREQEREBERAREQEREBERAREQEREBERAREQEREBERAREQEREBERAREQEREBdJ3knVFnXo5XsHdnx87Zag18X62zXdUPK++2m/B0352KgmEREBERAREQEREBERAREQEREBERAREQEREBERAREQEREBERAREQEREFdxPTd1R+DoXzslSO1UU+Wi7p/wdC+dkru7Vc7TTw4KYWu66n+gQvnZSn8PYVeoxa7pqeP4oEL52UrDh7CvHxTXl+oiLVIiIgIiICIiAiIgIiICIiAiIgIiICIiAiIgIiICIiAiIgIiICIiAiIgIiICIiDp06XFmMG7Ew4gF51ot3i3wdID/ALwku4oe2cMRpz2GI44Y4z55d39KdUwgIiICIiAiIgIiICIiAiIgIiICIiAiIgIiICIiAiIgIiICIiAiIgIiICIiAiIgIiICIiAumcqM3UGYZ4d/dZddDueAJBgX+0xXcUPIwxxuqnlpx4hp80eP/vY3/sgmEREBERAREQEREBERAREQEREBERAREQEREBERAREQEREBERAREQEREFVlFou6d8HQvnZS7OtdOcXFds3D/N0T5ySuTWuXXy3lyUE9VzVT9AhfOylZPw4KsW998tV/QIXzspWfH2cFrj4sr5P1ERapEREBERAREQEREBERAREQEWH8J0bkp9Msq5qLe9fo7cS+7Uhvwaa/gw1OCVXYDDoSCEdobeyN0Nnq0FtS1ifEGnNs77rvapZn5j4DDvJy3csrYptW/wDw9d5UR2NtRlPyJjTQbk9/QwIgxK+x+8F/Omg9coqzas6r1gpFZelU56hT2o0iibBp0JGxJkSPF/UWnEsSx4x0iPEPEsOk8I68I2bFKpLL1FqdrVa9XbN0Qbdqg4xzFp8dr1VdIYjzoSGCF1hprc3w2pE0aD0ui8YSc88x6gOTWd1xO0hu1q5jcVxR6JSmpDEpmIxQai+zHkum+QSiIREiLZNaHQw3C5wXKwbozbrefGV83MCt0J2PcGW1frYRKHGkR2mTOVRC2ToOvu8oJoXNIv7mrWfeg8IPTqLy9e2cOa9mZq5jQodWok+mxn7Ot+3qXJprreEafWZnJRlPvg/vtBiZGYiAkeloRJrSWvTMsL5vOp3zeeWV+u0WdVrSGmyhqtHhuwY8yPNbdJseTuvvk06BR3RLvpah0Fu8elBqqIiAiIgIiICIiAiIgIiICIiAiIg6NLnhUYxSBDEcAkSGO7+Np0m/+Fd5RNvRn4sF1qQOOBlOmucReIcp0x/ulgpZAREQEREBERAREQEREBERAREQEREBERARYfmvhcdMz3yVqMO+a8xTapcU+kyaGxJ2UB9saDVX9boAOp89q0yXfTIA2QYgIlrI4XMzL6mVrOq07Ztq6b/p1brEk7qrTsW/K23FjUqE61raCEMvkocofdYY0bLTssZBDvBgg9FIoSh43G0zNcul+mEfLJBwyhNm2IQ9XetrrIu+acd4h4h/qXmJjheXbRnyuCtx6NcFuVC1biuiAVJt+qU8NFNaF9oWp03cqDbrR+2tNNDzDHWBIPXCLxpeWb2cmW19wrxvCfbdYmHlfNqNPhUtiTCg4TpNWpLDQPtG+7rFonx7+JDiQEe4HhahlbNzFDhJZhULMK4KXVHodmWq5HxpEV+HDLazK1qPkrr7+xd3dBd9LULQF+SIb2i8rUPN/Opm767aZXDbU2fcuaMy0rfel0WQMeixYlJOe6boDK1StTTGkWxNrvpmevSWgNeyZvy4b1g3NTbsZp/Vq0LjlW5Nk04DaizDabadF9psyMmtTUhrUGs9Jie8SDS0REBERAREQEREBERAREQEREBdFyc21Vo9N0Y6pEd5/V/2ZtD/AM1d5RMmM+dxwZYDjsWoMpoi8UyNjEf9gEglkREBERAREQEREBERAREQEREBERAREQEREBERAREQEREBERAREQEREFNqx6bul/B0T52Sv3WuzW6HV36rjVaQMRzaxwYdbkuk1xaCMhISES/nCXRGl3eZHqplKHSWkSKpO73/AJC46mtzeKnRWapetzWtdMtmg5RXdeQyIMQ3HKLKpLYxu+v7pcvmxi4y9nd1YdxcvZjzF80/NX4xtX1yrnblJqMKVLnVTCM2/LZZa2TLpOiAta+LeIR/nPFVj/DgujHxZXyZV2YsxfNPzV+MrV9cp2YsxfNPzV+MrV9crVkWiWU9mLMXzT81fjK1fXKdmLMXzT81fjK1fXK1ZEGU9mLMXzT81fjK1fXKdmLMXzT81fjK1fXK1ZEGU9mLMXzT81fjK1fXKdmLMXzT81fjK1fXK1ZEGU9mLMXzT81fjK1fXKdmLMXzT81fjK1fXK1ZEGU9mLMXzT81fjK1fXKdmLMXzT81fjK1fXK1ZEGU9mLMXzT81fjK1fXKdmLMXzT81fjK1fXK1ZEHmnMpiRm8UEr44KOeb7VNeakRW6bfVLpbQPtPC606TcO4WhN1t0AIDLUYEPGOIqPui16bd4QxuDge51zcY9MCiPmd6UcXalTxIiGLPLq/qntaiPdlYu893xz1epkQYjTL7u6i1KpVWn8E3NoH6sbRSsMa5bhtcbTYtjsmzrWhndHDjwbEdXOLjJUJ+zKG/Ucao7wNc5doFdO44reF40cGINSN4n3ZMVoK/ojmbpukWyEde1dEt0ywWicJyk1KrWfb7fUSdW7ei3VTZN00uFDdmOS6QBFtRxitCRyGxd2Bm0IlqAD3S5uOL3hQrPqwWjbls5BVCBYJv1+ZDC4rGqdZjBK1xQaaYo4OiEJp/XINopQtA0LR6Aa2upBZaTZtu2/V4Fdi8CvNwjo7s6RTmJd1USRCp3K2nW5QMRXa8TDTTovu4E0IYBzd3cDT+ZXs27bz1CzEy64JOcMvAKB1Pok9+76JUGmqRI2DoMMcor5iLH2PHIBHuBp3dOotVIyUyfqt8tUIc2cuKxUJFEylaoZNXPSncWQqzUyW0YYYSB0OOi0WkXMNXenccRLSeK9A8FKlwKFwc8u6LAtaRbp0634UafT5FHepjrU8WxGXrYebAtRP7UiPTvljiWotWpBSbmgR7wrNZr1e4GubkmTcVOj02qCFy0JlqQ1Hd2jDmyarogL7R7zT4jg6HgGKlbJrFYy9bqPW3wSc4Dl1eQMqoTqjcVv1CZLMQEBxckSa4bpCACIiOrSHg4L0EiDKezFmL5p+avxlavrlOzFmL5p+avxlavrlasiDKezFmL5p+avxlavrlOzFmL5p+avxlavrlasiDKezFmL5p+avxlavrlOzFmL5p+avxlavrlasiDKezFmL5p+avxlavrlOzFmL5p+avxlavrlasiDKezFmL5p+avxlavrlOzFmL5p+avxlavrlasiDKezFmL5p+avxlavrlOzFmL5p+avxlavrlasiDKezFmL5p+avxlavrleRf4SvhEZ3WdknbdctGyMzcqKgF4xf8rv1aki1IHkUz7FLCBUHzPAsRE9Bhsu9b29o1f0QVIzNyiy9zgp1MpGY9uBWoVHqIVWIw4+62IShada1lsjHV3p90dJcY73sIP5hcHL+Et4aNQqDdvXFk3hmyTeAmQU+EVPq5gfNPSwBNE13OdhH/Dzl/TWwsxq/eNtRa3UcqLntyU7iQP02dIgG6w4JYiWGJNSSHHfwxw8bxhD2FY7YtG1bIpIUKz7XpVCpjOHe4VMhtRmB/wBAAIjgvy2S002Rj/nKofTHVFPXHGrVa2ePKbPqeBaz4tm7E5urHT/L+LpVLqHCEsOmVCRSpdDzHckRXDaeKDlzcE5nWOPEQi/HhuNO6S4x4wMh41p20UXa33Ld+Eqh9MdUzzeqJ2y2Xfk3mr8lF1erk7ZbLvybzV+Si6vVy1ZFqllPbLZd+TeavyUXV6uTtlsu/JvNX5KLq9XLVkQZT2y2Xfk3mr8lF1erk7ZbLvybzV+Si6vVy1ZEGU9stl35N5q/JRdXq5O2Wy78m81fkour1ctWRBlPbLZd+TeavyUXV6uTtlsu/JvNX5KLq9XLVkQZT2y2Xfk3mr8lF1erk7ZbLvybzV+Si6vVy1ZEGU9stl35N5q/JRdXq5O2Wy78m81fkour1ctWRBlPbLZd+TeavyUXV6uTtlsu/JvNX5KLq9XLVkQZT2y2Xfk3mr8lF1erk7ZbLvybzV+Si6vVy1ZEHmC/axweMyblgXVdVvZ/9UqWW1gOU63Mwac3Ed2TjWLjLURhttpwmnXAIxHUQmYlxqzxs38mYl2nfLNl5sY1x6ltUZyW5lldx6obbpOi1pKDp57plq06i8IvYW8IgxGj55ZUUFiaxTLXzaxGpTX6g+L+Wd3v6nnS1Hp2sAtA/kDxAPgjgs7pdN4J9IxpeMbLXOJ9uhR3odLal2NfMluHCdaJp2G0DsYhGKTRaeT+1bobu4Gm78I2jxqndeXs297Qm3NlzClVLq/TmqK9V2+VHF0wn34TTTputCWD4+1mIm60fc4tQ4JnHaMy7aE/b1t5H1yA1By602UNctWpVup4S3XJmlhh/lHJ6O+xoiltHfsjS80O7stkgvT58D21aPVajcFi5sY0xu3H7fnzK9Zt7ymo9FxJt02NpKjFgy0GwAxIcR2WjEhIMSLHG3WReWQeXlZqVx25aGc2NXrUaLEqVRqNhXrUpMpmKTpMCbsqGZbvKHf7Wnu4COnIr2ykl5n5f58XlXsrqvWq7U7WpPW/hVqC/wAqN4KMwb/JWJDWoH9u0InoHXraAecIr2ZaeNAwtil9alJ6lUbCIyMCF1NOn8mY0YaGuTGIGxpHuaCAdPioPP8AVKnwaqxLrNRkWPnM3JrtXYr0h2NY17MEzUmWsWgmRsWoo8ldJvcM2NG1HdPV7Cs1lZsZK5e0bGg2rZubEaM5Idlvm/lld8l+TIdLW6+++9BJ110i9kzIi9hbyiDKe2Wy78m81fkour1cnbLZd+TeavyUXV6uWrIgyntlsu/JvNX5KLq9XJ2y2Xfk3mr8lF1erlqyIMp7ZbLvybzV+Si6vVydstl35N5q/JRdXq5asiDKe2Wy78m81fkour1cnbLZd+TeavyUXV6uWrIgyntlsu/JvNX5KLq9XJ2y2Xfk3mr8lF1erlqyIMp7ZbLvybzV+Si6vVydstl35N5q/JRdXq5asiDKe2Wy78m81fkour1cv5o1b+Fkz5y1zzvm2ptApl5WnFu6pRabAqlMdpVUjQm5TgMRx0iJtGIYCOIyGCdEh4i3tS/sIvOFH4BvBrpt83HmRV7LO5azc9YqFYmFWXcHY+uW+T7rXJwEWnmtZ7uD4u4iPhIK7wcv4QvLrhAzwto8ur+tavhpCQy/Q350MHeLVs+UxwLTu93U8DS9GndcTCeywFOqpMG06bjvUmVuFgQaR9r8LjP+yuJ6kUi3sLYpFCpUOmQos4wYiRI4stNDyV/dEQ3RVk2mH4lHWlIyFcNNnPjFa5W09jhujJhvsavzdqI6v9Sl8PYUJV8eOqUD4RP6G+pxJrq81ERFbwREQEREBERAREQEREBERAREQEREBERAREQEREBERAREQEREH4oShVOXOqlxQ39OzptSCKxxYeBjDjO/7zpruVCsUulYDjU6rEh6+bt3xb1f2lXqPWLUptQrczG7qMeFVnhMAcJjW4IxmGNPO/6L+8sqp70XFFhGdfDW4NmQLYx8wsy4XVV2PyhilUwSnTHR4uMd1rULWrwSdIB/KXhvNr+GxnuOuQsjMoY7TIHhoqN1vkZGH4cMYkUx0fg3uUF+atdHj+raLKO2x4LPnL5V9Mqd9anbY8Fnzl8q+mVO+tQauiyjtseCz5y+VfTKnfWp22PBZ85fKvplTvrUGroso7bHgs+cvlX0yp31qdtjwWfOXyr6ZU761Bq6LKO2x4LPnL5V9Mqd9anbY8Fnzl8q+mVO+tQauiyjtseCz5y+VfTKnfWp22PBZ85fKvplTvrUGroso7bHgs+cvlX0yp31qdtjwWfOXyr6ZU761Bq6LKO2x4LPnL5V9Mqd9anbY8Fnzl8q+mVO+tQaus9zVzitzKSNSpdwUuvTxrFRiU5vCmQNsDGL8pmMLrzpaWmmxdks849RatwT4scFFdtjwWfOXyr6ZU761YnwpOFLkrX7Ci2lYuYNl3ZJmVakVJ12BfltsNRQhVSJKMHOW1FgtZtsuYBoE8NXFq0INrzD4QFCy+r9UoOFmXVcZ29SG7guB+hxmHGqPT3TdFt13bPtE6RcnkHsmBdd0tFud0NV+pNz0CvPG3Q67BnuNMx5LrbEgDNtp8NTREGG8ImO8Pjd1eH87s9snb4k1KvWZmNS6NVL2tAKDO5JmharEczwKTsotYEpLpNNNcoI9vAdN0hddDwQ1bblxwjuDBZ8NqzezflczGoNJpVOZrWN6Uf/ACrgyxs8d0X9qOz04e2ePu8aCxTOErCj1O62o+UOYFQo9lVN2lVmvwI0B6Ky800066Qxxl8tdEQdEtyOSt7Ob1hYx51el3fQ4ttxaVTawNYkViM3HKNN2uxdLUWBNAWzw0mekT1cQ8ekl5VtvhZWRlvXc0aVbVesStyLpu+XW6HWHcyrZZo+DTsOK0ByP8ocsABNg9YhGM9PNVLpdVyDsOmybecztsi46fRbXsKm0up0HMShQaj1QpDtRJ+VFCQ/stTRPsHsn9IGDpDv6dKD3FLzkyjhUSJdMzNG0GKJMbedi1J2txRivg0Yg6QO69BCBGAljhzSIeP8C4MM4bOK7utsanFKn9bHXb1c5Y1yDkO22Wva6tOnw9fN0rxNSeEhYNEzNy3vK7b2sO5HqO/eD+uPcltMVTYPtU4GJMwo8oIAzHdL/NdDU0PjiQKHpt52dblnyXKbm5k+7Lk2rIj4U87zt2XyXCVdDlRdgNtyJBxzfYgPmDWvVH2rQYatKD+gNAzNy3u2FDn2zmDbVbjVGadPhv0+rsSRfli0TpsNEBY63BaEz0DvaBIlOQqtS6q/Mj0+oxJbtOk8kmAxIFwoz+gT2TmA90D0OAWku7pIceLeX88ZWbGWzWGal9zc57UOpNFQr2tCXU76t2VPfn0kC1w3Wqe/uuviBMaWgISZkadercH0PkNwgeDjaWXEI7m4RmVTNyXBIkXFXxwvGnblQmuk+617bzWtYsD+Q0CD00iyjtseCz5y+VfTKnfWp22PBZ85fKvplTvrUGroso7bHgs+cvlX0yp31qdtjwWfOXyr6ZU761Bq6LKO2x4LPnL5V9Mqd9anbY8Fnzl8q+mVO+tQauiyjtseCz5y+VfTKnfWp22PBZ85fKvplTvrUGroso7bHgs+cvlX0yp31qdtjwWfOXyr6ZU761Bq6LKO2x4LPnL5V9Mqd9anbY8Fnzl8q+mVO+tQatj7CrtunpgyPhGofSnVS8eFjwWfOWyr6ZU761TthXBRblttu4bcrkGr0yoTJr8adBkC/HfaKU7pNp0N0w/KFZVyVK17RdK0/uS78Iz/AKW6vvarjtD7jH+nz/pbqmeRXFOoiLdIiIgIiICIiAiIgIiICIiAiIgIiICIiAiIgIiICIiAiIgIiICIiAiIgIiICIiAiIgg7hx0z6B8Il9FfXd2i6Fz46ZdC+ES+ivrl2qw/JWjrVQ9VUoHwif0V9WJVeaWus0D9PP6K+rQqxFCIi1SIiICIiAiIgIiICIiAiIgIiICIiAiIgIiICIiAiIgIiICIiCCjYDjeFQ1BhuU6Fp/q77J/dFTmrBQjGPFd1S+DoXzspS+r/QspVqoN25bZf5kVqpUTMCyqJcUHCDCdGPUoLb4geLsnfHWO6W6O8O9u4Lypm9/BD8Ha+dvPy8n1axKi6JaAYPGdCEi8Mm3S2pY/wDfafyV7Th/fdUvg6F87JU2qkoREVpEREBERAREQEREBERAREQEREBERBkFn5yXhelVdrFFyzGRYuNUqtHarTdbbGYDsB19h192G60ABHORFdaAxkGe80RNABEQZvH4bEduk3TUapaduTJNv2TOvaOzbl4tVcXY8UmxdivvAwAMv6nWsO9bdot/SZ6VoZcGu3sXalTsL4vELUqcuqzTtaPNZYpwP1EX+VlqbaGQYEUp90WjdJoHXdeAboaK9UuCDbNep+MC4cz79qeu0Ztik4btObxOjyBa71pahgAEBMCYugImRc8jHQAh3rVv/M24M/WrUvXLS1KPHp1pBWMHwrBTZ8LGVMfa0AXJQHfGK1tRE9I4+G7pwW7qjP5bwSzVZzYi12qw6gNH6hyoDWLBQ57AuuutbTW0TokBuuFhsjDnb2rDBXlBF1ah0Wt8kxrVIhz8IMkJkXlDAubB8Oa6GrmmOot7DuqUREBERAREQEREBERAREQEREHz4KqFEPTHlfCNQ+lOq3+CqPSj0sy/hGofSnVhlXCZ2q+7O+4h/p8/6U6ultf613bJ+4P/AI2d9KdUY+T2uCeREXUzEREBERAREQEREBERAREQERQN2SLqYoUt2zYNNl1rcCK3UpBsxRxIxEnXCACPSA4megcN/Tp1Dq1iE8i80O8Im8Mcgcns05r9s27IzDGmY16tT4b7tJoeEiA6/tcWRfE9BPg0wGp3SJPiRF3N685JZuVzMS0qNWKxRcZuNVqVYiMVujxdnS5MWHIcaZm6HXSdaakCAkA6ne74WnSWIa8iyHMnPa3Mq7mqzVyvViREpVDp9UdiQacD5YcqqPIwMT2msz1EPetHNHUOstxR0zhP2zSeqMCuWJd9LuKn1mn0TCgSsIIy5Uia0TsUmnQlFE0GDbu8b48WyMS39AkG3osjqXCBhUvqLSuxner9zVpuc+Nt7GGxPjx4botPyHTfkhF2Wp1rQQvltNqOjXvaYU+FXaVSxjjZFn3bdLsi1uvDEIDEVgWIOuQ1385T7Wh0XoxNE1ztReEIniAbsi8+0fhY0+VZ9BrNQyzux2rzrUjXfWqXTcYDpUanv69k+4ZyhF0Xdg+TTTWLsghDeaAtxdHOPhXxaFYd41fKug1evHbtGi1A6+xHYdpcN2YwD8QHRJ8JB62nWjx2TRCAOgRkKD0gipV+Xg1aVUsyG7Mks43JcQUYAbii/tTOJJf0ERGOyH7H49Y68d3Tp3tQZbE4X9t1S2YV2UzLe9gh122KhctuuTWYTDVVCE0Dr8cPskjadES4++gAGIGTRH4Qeh0WDQ+FNCxtyPWJWVd4SJ0S2Yl1XHFpwwXuocJ8XSaddI5Q7XWLD7gNsbV3QG8AkWAraqVVafWqXDrVKlBJhT2AkxXg5rjRjqAh/VxQd9ERAREQEREBERAREQEREFduvHTIoPwif0V9fu1Xxd+Ol2h/CJfRX1wbX+tctcmscXxJPVW6F+nH9FfVsxVOM9VdoP6e79FfVxx//lXgRkfSIi3ToIiICIiAiIgIiICIiAiIgIiICIiAiIgIiICIiAiIgIiICIiCCb++6pfB0L52UpTWojD77qj8HQvnZKkdX9SylWjowfvsqfwdC+dlLsVe4KFbsUZ1drcGmxyPYg9NkgwBH4uo8edu4rrU7766n8HQvnZS6l3ffBZHw89/hc5e4+JXl+9lLLL3xbY+N4/76dlLLL3xbY+N4/76tCLRKr9lLLL3xbY+N4/76dlLLL3xbY+N4/76tCIKv2UssvfFtj43j/vp2UssvfFtj43j/vqak1KnxSeCTPjtFGZxkO4OOiOza3t8vFHdLe/JxXOw+xIZCSw8LjTg6gMS1CQ/jQV7spZZe+LbHxvH/fTspZZe+LbHxvH/AH1aEQVfspZZe+LbHxvH/fTspZZe+LbHxvH/AH1aEQVfspZZe+LbHxvH/fTspZZe+LbHxvH/AH1aEQVfspZZe+LbHxvH/fTspZZe+LbHxvH/AH1aFVs0/wCLO7vgGofRzQfvZSyy98W2PjeP++nZSyy98W2PjeP++rQiCr9lLLL3xbY+N4/76dlLLL3xbY+N4/76tCIKv2UssvfFtj43j/vp2UssvfFtj43j/vq0Igq/ZSyy98W2PjeP++nZSyy98W2PjeP++rQiCr9lLLL3xbY+N4/76dlLLL3xbY+N4/76tCIKv2UssvfFtj43j/vp2UssvfFtj43j/vq0Igq/ZSyy98W2PjeP++nZSyy98W2PjeP++rQiCr9lLLL3xbY+N4/76dlLLL3xbY+N4/76tCIKv2UssvfFtj43j/vp2UssvfFtj43j/vq0Igq/ZSyy98W2PjeP++nZSyy98W2PjeP++rQiCr9lLLL3xbY+N4/76dlLLL3xbY+N4/76tCIKvjmlll74tsfG8f8AfVTo92Wy81LJm5aY62U6aQmMxohMSfIh0lq/KWqL8xw41lkx71TWxnfXNb3u9T/2oFlI8LvLemvyLDy/q1Gui549SkR5G3rbFNpMB52U6QDKnO+F/wBFHB93/ol6Op0SLDYJqJ3QJ510t7j3zdIj/vESoV45I27clcO9rbqVQs28SERwuChELUh8Q5rUxoxJqa17O4+B6fA0FvKceLZW4qtyCsTOG04VOk1LMjhHZb1WdNxGWDFLqUONBp7GvZ6GiN0nXd/dJ0z3j5oNcxWzHPHJnAyDHNyy8CAngxwxuCLhjraHU6PtngYc7xfwqVstu+o1FGNmHLosurMuGOMuksusMSGsOLQ5snCMmjx8INZj+Vj+CyEOBYaS9hbpUYc68m8SEAzbswsSJoRHq7Gx4yd3g8PwsOb+P8C/Ozjkrstr2X7L2enaa+uCLp0atOv2zm6t3/SrxsWf5oP7K+eTx9OnZN8XN5qCllnZk4JEGObVmAQk6BDjXYvOAdR+H4OHO/F+Ffg515N4kIBm3ZhYkTQiPV2Njxk7vB4fhYc38f4Fd9iz/NB/ZTYs/wA0H9lBR+zjkrstr2X7L2enaa+uCLp0atOv2zm6t3/SuXHOrJ3AiEs2LNEhIxLDGuxe4Qc7Dun4KuPJ4+nTsm+Lm81cWNPhY46iiM9zVj3QHwucgqeGdWTuJCI5sWaREQCOGFdi90j5uHcPwl89m7JnRtey3Zuz07TV1di8zVp1c/2NW6rdyCFhjqGIz4OPcAfB5q+epsHTxciY08WnTsx4tOrj4v8AQgquOdWTuBEJZsWaJCRiWGNdi9wg52HdPwUwzqydxIRHNizSIiARwwrsXukfNw7h+ErZjT4WOOoojPc1Y90B8LnJyCFhjqGIz4OPcAfB5qCpDnVk6Q7Yc2LO2enaaursXTo1adXHr9jVur7xzlygwLEcc1LQwxwxMfu3F8DneH4KsxUillulTYpYadnxbEebq1af9GreQqVSyIixp8YiLEyLHZDj3T539pBWcM5coMSwHDNS0McccQH7txfD5vh+EoO6s3rOlUN5ux888t6TVC0OtTKtIZqMUWtektTDUxgy8XVtR4i8bmrQhpVLEhLCnxhIcQIcdkOHdDm/2V89RaRp2fUuLo07PTsR5mrVp/0at5B5UtWzqNadiZcWxjwq8rZVZymf2dvTcYAtxXY4U04brUyN1TInXdk6Z7Vp1rR4mjUJ3zLCoWZl41scOERYs/Gp1ypVy4BByMy3MlTy1tjFDlJclbEt7SWLxFvb29qW4lSqWREWNPjERYmRY7Ice6fO/tL4xo1KIxLGlROPAmjEtgPcJrmF7Hg+D+JB58zXoeUeZlyVG5sOEBZ9NGfR6PTdly2K9gAQqwM7a6tuPPIdl+Icd7e5qXjSsuK7cN4V+n565akF5dS2ZdKr8SHVaa41AafEmH2ikhi6J8oE90gICaHnDqBegOt+h6Nj1HgbPZ7HTyYNOjVr0+xzde9xeN3V9Y0GimRGVJhFiRumWOMcMdRO4aXcf1sOd434UHkFjJDJ2ExbsuLnVlFVarReqsUIVdpUWoUFqLUn2nxjQ4BzNcUGjYDZYC+W6bo+EOi/23Q8lqFUZdSxztsXYzbGjWi8zAdgQWh0PynXZTQNO7JoSKYXehDc088tSj7Svec7ClZyXfmnSaBTI9y3LSnLTl0WEbANUgpzTAsEIjMOYDULCUXfTHZbYAaDdMcqqmcuZ1oUG7o702fJldhyoXzTSuKjUJp2PIjvsbImI9P17KK6b5nspROkJtc495BZm8mcu2WqJLl53ZJVmuQLUhWfMk123ItRYJiATvJZMZh2fqjviD5g7vmDu4WkNOAKWvfLSyq9T76tazeE1Ydv25mJFp7dUilGivvsSY0NiKJRTblNNNNOR4rAk1si5paCHVuWizrLrkDhQy6NdGYlWuNmPYkepPxpVOpzEV+RKnzG3S2TUYTDdAR7h6yEAF03VvgW5QQITGhwAIDZMSGMG6bQ6Wi/VHuD4qDMcwa9lNfFRsup9me0oQ2fcTVxaOqcZzlQjFkxtlx7UdH21gWre5mnTvLO4eXGUsSw8vLDk8IS1XQsK2qlbTrwyooFOwlQOSm7p2/esQw39G9+Jej+ta2dnset2mbPRsNHJGtOy1a9HN5urf4vGX2duUEyIyocAyM3jIijBvG6Ol0v1h7heMg8uRLJplNpUyBRuFPlxGmXJaUCz7ikYwWzCQ1FF9qNKhh1R+x39hJIC1k6BEIHgI8wt3tm/smLVtulWvSMzbVGBR4MeFEHGtxiLBhoBbDw/wAQ4d1WwLcoIEJjQ4AEBsmJDGDdNodLRfqj3B8VcZWpaxt8mO26YTGz2GyKE3o2WraaNOni069/i8buoI3ss5V++banx1G/fTss5V++banx1G/fUljattOOkbtu00iI3XCIobeOonR0ul7HsmO6XjYJhattNuibVu00SE2nBIYbeGkmh0tF7HsgO6Pi4IIvst5UadfZOtPTzvuzG/fX12Wcq/fNtT46jfvrv9Z1p6OTda9H2Oy5Ps+p7WnY7Ta6Obzde/p8beX3jattOOkbtu00iI3XCIobeOonR0ul7HsmO6XjYII3ss5V++banx1G/fX72WMrvfJtb45j/vqRwtW2m3RNq3aaJCbTgkMNvDSTQ6Wi9j2QHdHxcFwdZFl8n5P1oUTYbHkuz6mtaNjtNrs9OnmbXf0+Nveyg63ZXyv98i1fjmP++nZXyv8AfItX45j/AL67rtnWm4ZunatJM3DkPERw2tRHIHTILujznB7h+Nhzkas602zB0LVpIG2cd4SCG1qE446Y5dwec2PcDxcOag6PZYyu98m1vjmP++v3sr5X++RavxzH/fXZ6yLL5PyfrQomw2PJdn1Na0bHabXZ6dPM2u/p8be9lcjtnWm4ZunatJM3DkPERw2tRHIHTILujznB7h+NhzkHU7KeWXvj2x8bR/31+9lLLL3xbY+N4/765wsqzxcGSNo0cHBdjvCQQWtQnHHRHLm85od0PF8FcXY+sHYcj6yKByfY8k2XUxjRyfabXZadHM2vfdPsa972UEFW72s2uzaLDoN3UWoPhPxMwiTmnzEeTvDgWkC8Yh/tKQ1qSOybOdf5U5adGcf27srFwqe1q2zvcdd49PHgZ6R1F4WnBfGNmWdywHMLdpWBCBiLfJW+LHDHEeMtOn8H/F+UsKx1dNJrorlTr1FodWocmtVaDAaCU6ZOS3waEA2Do84/yyEf1lP9lLLL3xbY+N4/76loFBotMcJ2m0eFDcMdJEwwLZcX6uCklWONqarcq/ZSyy98W2PjeP8Avp2UssvfFtj43j/vq0ItUqv2UssvfFtj43j/AL6dlLLL3xbY+N4/76tCIKv2UssvfFtj43j/AL6dlLLL3xbY+N4/76tCIKv2UssvfFtj43j/AL6tCq2af8Wd3fANQ+jmrSgIiICIiAiIgIiICIiAiIgIiICIiAiIgIiICIiCu4/ffUPg6F87KXf1qOd++6o/B0L52Su7q/qXO008OtSvvrqn6BC+dkrrXd98Fj/Dz3+Fzlz0f76an+gQvnZSiswKlFo9Rs6oyglOtsV1zEhjRXZLv3NnDutNCRl+qKvHxTSt8J64sw7VyarFUymqtEp12E/Ej012rTo0UDNyQ2JNNHK+x9uYYkLQu7uJ4jxryhXuFnnPRbEYtCn3FdMm9XMy6VaNWKu2/R4NWorEqMT4NA6DnUuQ67su9OmIAOvHWHMJeyrkuDLy8KNJt27rPqtbpMwdMqBUbMnyo7w87SbZxiA1XIdp8HynWbKy4gZMxmLUmPYuyaG1l7KGC+73N8mOS6CLdHe4vBwWqXm+m59cI+qVrK7KS6L8gWfMuq8bopUu7Weo1SmFDpsVqRFYkDHJ2AxLdJ42nQ0iXeNwR1LWeB/mbf8AnBZQ3bemaMWqPwrnuSkbOHAisx6rHYfEI7rejDWANCOrdLHVtd8i3Vd6hanB7qVowLAqOS0aTa9Ke5RBozuXco4UZ3iLfbj8l0AW+e9gPhF+PFV7JGwcucl6W9T2YVbrErq9WK3Amu2PPadp4VF/aux2i2BaB3QHd069A9xBnnC8k1m4avftihWXKdTmLZsqYZx4EMnZHKLilMOtuuOsmZtaRAtlzdQfiN0T1zO2oXraNGy1s6w7wdosiuXVBtuTUsIMVx3CGUOURkDZNbAXe8CQ6WtAkPM0cYKx1Kp5YVqbIlVexKhPkS2I8aS5Ksmc6TrUd0nmGyI43GQtOkToD4JFiQ91dyfddkVd2I9VbZrs46dLGXDKRaFSc5NIECEXW9UbcPQZDqHu75IMAp+aXCAq18VyVRXaxIpttX+xaZRpjlBjUh+ELrDTxvk6Qz+WOg6b7Wy0tajYEWjDn/Ns3tnjc1TsOQ7nJOgxr5ve77VfjRqNTtMGFTXaoUd5gzYIuUaacIandbWh32rWOotokQMl513s3/NywdfudjETbrLliTCmiYjoEsH+Ta+MR3fZ7nsLvxarlnC5FySwqjH6lS5FQg7OyZw8lkyNrt5DX2LuOu7d/WQ7xbU9XOJBiGWeZObWatTolhVXNabbRwqDX50uuU+m03lVWfhV1+mAZDIYdYAQaYF10Wmg33w3gHdxhqLwk83qjZNMZnT4jN1ZsWlQJljE1BHZR6lIdGHUHQAg761H2sWf33VuOmPNBbjW6LkRdFPiUO4soMKnT4T8iXFiTMv5brTLsgiJ8gA4ukCdIyI/G1FqUzJrGXMydSKrLsuovzbe19RpTlkTzdp2tvZnsC5Nqa1BuFo07u6gwy3s1M/7jvufVKZjVsaPSsyHbQkRJTtBYoxU2PM5K6ZEZjUuWE19lBp3DIgAWtBal63WVuQMl3bxHMBzLF07nDHWNZKw5nLdWjRq2/JderRu8fHzd32O4rX2RqB7n3P0Vqno6C0qlZkyRn25ULOgjt6vcMKTBhRh/BqbxEnT8VoNe8f+gecQjj+yb9alDyWgW9X5tRf3Y4SaLMhx8C8Z191oRAB/teKJF3FIW7buNFJ6o1CRhOq87SU6cQ6dXitND4DQeCP+vHUREWIWRF050pmBEemyMTwbYbJ0sQAjLAR/JHeJY6xwp7RjtTJN62TeVmR2rak3dCcrcJjVUKbHJoXTaajvuug4JPsd4dFp3vobnOwENuRZhbOeFCqs+rUe7qDV7BqdHhxKk/EuhyE1qhSnSaZfB1h91rTi60bWI69Ylp1DhrDVc7mu617Np+FZu64qZQ4Osg5TUpjUZrUIkWO+4QjzAIvzQLFBOIqiOZ+Wp3LCtAcwrZxuCewEiFSsKvH5ZIZINYm2xr1mJDxlqEeb3V0pOdOT0KXJgzM2LNYkwWHpMph2vxRNhpp3ZOGY690Qd3CLHmnu491Be0VMqub2U1CoFMuit5oWlTqLW8dVMqUutxWos7wu8Okel39XHFSpXfabcSqTOuak8nobW3qj2M9rRBa2e11vlq70Oy75qPi3N72EE8iqgZlZcu3Q1Yrd/wBuY3I+3tmqLhVY+M8mtOvWLGvXiOje49PN7qreZWednZY3vZNg1qXEKtX3UMYcNh+pRY3J2hHefLamJHvaQEA1GZlpFBp6KhyM7cnItDcuiTm1ZrVFalDDOouV2KMbCQTQuiztdejXszA9PO0EJLtVvNnK62Y0SoXLmbalKjzmmpEV2bWYzDb7LvHsjAjPDWJ6cdJDzvwILkirlv33ZV11CqUm1ryolYm0N7k1TjQKi1Jdgu724+IFiTRY6S3S8VWNAREQEREBERAREQEREEPbH3Pe+EZ/0p1TC6dO5JycuQadnt3tWn+d2pbX+/qXcQEREBERAREQEREBERAREQEREBERAREQEREFPDK3LZm7Zd9N2Bbg3JObJqTVhpbGEx8THATEntGstQAIlx490RHBRkbIbJCBCCBBycshmK01IZFgLfi6AB9sWnxwDZ811oRAx8IREce4tDRBAybPtKbcsK9Jtt0t+v0xh2LCqjsRspkVlzntNu4jrEC/COGPdU8iICIiAiIgIiICIiAiIgIiICIiAiIgKHlffbTfg6b87FUwuk7yTqizr0cr2Duz4+dstQa+L9bZoO6iIgIiICIiAiIgq2af8Wd3fANQ+jmrSqtmn/Fnd3wDUPo5q0oCIiAiIgIiICIiAiIgIiICIiAiIgIiICIiAiIgrL/33T/g6F87JXb1rpSfvun/AAdC+dlLs6v6lztJ8OOi/fRVf0CF87KXDd/3wWP8PPf4XOVVruWNs5iXbKkVyo3dGKHTYgt9Rbuq1GEsCek47wwJLQu/nFqxVUung62CzWbRZG4szvsitOtFrzQuYy09Tph7pFUNwt3DeHu8WoeaRLTHxTfJvyLKe1py78pM1flXur1ina05d+Umavyr3V6xWiWrIsp7WnLvykzV+Ve6vWKdrTl35SZq/KvdXrFBqyLKe1py78pM1flXur1ina05d+Umavyr3V6xQasiyntacu/KTNX5V7q9Yp2tOXflJmr8q91esUGrIsp7WnLvykzV+Ve6vWKdrTl35SZq/KvdXrFBqyLKe1py78pM1flXur1ina05d+Umavyr3V6xQasiyntacu/KTNX5V7q9Yp2tOXflJmr8q91esUGiVaVLiUuZKplNcqEphg3Y8RtwGykuCGOINiR7o6scMB1Furyn2Pc281bJvTsgZS3RR8x7loBNR6tWJ1HKiU7Fp0X2KTEGHOfkCwTwhrdJrU7o1np0tNBtHa05d+Umavyr3V6xTtacu/KTNX5V7q9YoKtTaff9z5i1rN64MlqrBYi21BtyDblSn012VPdKcT8h/HZPuxwba71o1O6y0u7g7mu0Z3WLVr7k5btwqIFUj0K+IVbqQuE0IsR2WJOG10mWGvS6bW6Ool+9rTl35SZq/KvdXrFO1py78pM1flXur1igxrsFX7jmDclKr1NvmoUit5ix7yiTKXUKIxSmmgeivtOvm80VQF9jYYNaWtWoGgETADLRNWTkXdlLkZVyapZsXBy3czb0uWrGTscyaiTSrWMKRz94j5VB3R1EO5q07Ld0vtacu/KTNX5V7q9YrNcwMu7eoN4UbLqwIeY9x3NWKZPrewqOd11UyLHhRHGGjI3glPnrJ2U0IDs/GxIh090InLrLLMzKavUu7ahlVPudjGnXXRcKVTZtO28DlVxvzo5/ZD7TOwkRzaEtJah2TQkHiRFO4MWalCt+wMuGqfFk0S5bXo9t5lOsTBwZiNUt8XwBvAiE3gfYclQNQjiWAbHVujuxualesTKltuXcdMvmA1EocKt1em1XhDV1itti6RbVqLBZnP8AKCa0c4nWgM91sj3l1szWZ1Mh5hPWHbV9FEsO4abbRVKp56XW1yqVKOnFhs2AfPHTg1UcdREe7pHTr3hALbSsjL9j5gVGk3HTb6m0uXmcd8Rp0GfRGaOLXLBksOOkbRVLatCAxybHniOnWLRlp2PNGzLluHM3Lu4aTS8ZNPoQ1wZ7+1bHYcpg7JndItR6j3d32PwrrQ+DbZZw2iqFazMZk4tjt22c3LqdbAu5qESKcGofZ3tI/m/gXb7WnLvykzV+Ve6vWKDLLEyuvzKigcH+vBllLrbtjZev23XaDS5cHCVAqkpinEcprbPtMO78OU0ZC7/8RqHUOpQNm8HDMWlUGrxqvaUQpE7K+4KHFYCTHIYkuo1SZMbpolr5rTT7DWv2rvfOW49rTl35SZq/KvdXrFO1py78pM1flXur1iggcsMsrks/Mai1d63gg0qFlfR7acJpxrEQmx5DpExpEtW4J87m73OW6LKe1py78pM1flXur1ina05d+Umavyr3V6xQasiyntacu/KTNX5V7q9Yp2tOXflJmr8q91esUGrIsp7WnLvykzV+Ve6vWKdrTl35SZq/KvdXrFBqyLKe1py78pM1flXur1ina05d+Umavyr3V6xQassg4R/CXy94LlnUm/Mz4dYOk1Wts0IXaZGB82HnWX3cHDEjHveAxz49Oou6O7iuz2tOXflJmr8q91esV5u4c/Aeq2beWVuWlk65eVRqo3SxKnFX79qlUixoQw5Yk9sKlOJrEsHSYHUA7XSZad3Wg9IZScKHg/Z5iDeVea9Arcp3WQU/CRsJ/EHOPkr2h/T+VoWrr+Y+Un8DFbUEGpecmYb7zuOgziW6RamzHxJjojuF4vJ9X5a915XZaUG0LRZtqnVS6JMSnSZMZgp1yT5LottPm0I6zc1cWkMN3m+KoqhdbZw/yc/8Iz/pTqluLFQo2nSAw0DIrGHhbtZmfWr6th56RSscH3CMmpUuOJOY6iIW5DjY4l+qIpueppERW8EREBERAREQEREBERAREQFm1Bz8ysue7mrKotxynqhLky4UF46TMagzpMXXyhqNMNoY8gm9k7rFpwvaj8UuLSV5ksi9IuZub9OrV2WpfFAj2xUag1aFAesGtRozTuLTrDlUmTjiDFwddaOQLTQu6BB/eI3T0NBs9hZqZf5mya2zYNyx6z1uzBgT3YwHsQeJsXREHSHQ6Ogxx1NEQ932VdF5iytu23Krf2c7VQsC/AolzuRZUNqbYNbgtT4Meixo8hoeURmx16mnWwa3TPwRJW3hC209dHBvk25Z9CrGAyjoQxoEVh8ZjMYJ8QjDSHfQIGhLV4Q6S8VBuCLwxnFkzLjZi3bQW6CdKoh0SmQ7Ceo+XUqtu0rAGndqNMkRn2maVKGUW11O6NWpoiMgAtEtduSUyu1e9blrNh1Op10s5rXGHVMIDoyCoZsUVie6wQ4bkYgOcL5NbukXtZbm6HtFF4pey0Zti7JFJuLLGe/k9SczKq+dAj25ImwBZfoUMoz4wGmy2sMJpTea0bQPHr3dGoepFtvODLq1adfmWdm18ZVxSros2jUk4D+1o9KnzXX6DKlMadcdiKYc09OyamaD0aN0PcKqmYGYVvZa0ePW7jwmuBNnx6ZEjwoxyJEmU+elpptsfZLFeM72yHqtFvK47JPCpx4cOl0Kl5eVaNYMyv1GBHjw2miODUWnxap74zBfdd2ujVrAzIh5vofhN5c07MODl7EqdjRrobh31Sn5Tb9LGWDMXUWD5mBCWlvTzvB8ZBuCLxVBymao1h0K4Lny0qc2n1LNavz8wIONHflzKjRRn1oabtYoAb0iG06/BfBoAINJbXTpIyX1Z+UONz3za8SsZaz8csDuq6plGolVozrcKHSnYEMWGn4bo/Y7BzAlOtMOgHODSA7qD2mi8fcH7Kio2RWMkq+xY9VptUcolw0256g/CdGSTIk1yNic6Q69A4NCMcXeYAaQXsFAREQEREBERAREQEREBEXhUv4WTJS2M3rwynzVtKvWwVr3NUKA3WIumoQ3QjSHGdu6IiDzWrRq0ADvF4yD3UoeV99tN+DpvzsVVbK7PnJnOuFhPyqzMoFyDs8HnWIU0SksDj/OsF31r9cRV1OVGbqDMM8O/usuuh3PAEgwL/aYoO4iIgIiICIiAiIgq2af8Wd3fANQ+jmrSqtmn/Fnd3wDUPo5q0oCIiAiIgIiICIiAiIgIiICIiAiIgIiICIiAiIgqkwuK7Z3wdC+dlLsa11Z332zfg6J87JXNq/qXLq3l+0D75qp+gQvnZS+Lv8Avhsf4ee/wucvq3fvkqn6BC+dlL5u/wC+Gx/h57/C5y2x8GV8lpREWiRERAREQEREBERAREQEREBERAREQFnuYGVTV716kXfTbvr9qXFRI0uBFq1Gwik7jClYtE/HMJTDrRiZMMHzNQk0OI44b2rQkQYHX+CNaVwUq46A9mFfkej3bR4VJrcUKiw67OwisbBh9yU+wcjF3TpMu+6TId8TEjE7BUOD5blQtC8rQm3Rcbrl71mJcE6qaouEpqoR2oLTTzOljZBxFTmHcRJoh1Efc0bg64iDoQY8mHBYiv1GROdabFspD4gLrxiOHGRaBANRcWOO6Ij3e4OC76IgIiICIiAiIgIiICIiAiIg/MfYVfts9NPkfCVQ+lOqwY+wqzb5fYcj4RqH0p1ZVyVKc2v9aymNwdeD7dzlRuW68iMva1Vp9UnuSp1RtmFJkPnyp0dRuG0RF/rWmbVcFn/cdz9Pn/S3Unm9/BRO1O4LPm0ZV9Dad9UnancFnzaMq+htO+qWrotUMo7U7gs+bRlX0Np31SdqdwWfNoyr6G076pauiDKO1O4LPm0ZV9Dad9UnancFnzaMq+htO+qWrogyjtTuCz5tGVfQ2nfVJ2p3BZ82jKvobTvqlq6IMo7U7gs+bRlX0Np31SdqdwWfNoyr6G076pauiDKO1O4LPm0ZV9Dad9UnancFnzaMq+htO+qWrogyjtTuCz5tGVfQ2nfVJ2p3BZ82jKvobTvqlq6IMo7U7gs+bRlX0Np31SdqdwWfNoyr6G076pauiDKO1O4LPm0ZV9Dad9UqXmLk3wSsuY1HF/goWHXKlcVUCj0qlUqzKTjKmStk6+QhtxaaERaYdcIzMRwEMf6l6LWc5q5cVi/HLWrltXHGolxWZWurdLkTKeUyMRHFkQ3mnWhdaIgNiU7zTEhLSX5OIec7EtbICr0a4qpUOBFatYmRrzqVvQqVTbBorT8RiM0JY4ynpBNxG9Jaw17fS4WnZa+NdqgU/gmXVelq0m1+BfZs6hXLadSud2qYWZR9rD5K+0wUco3tpEJkTRi2B75taNY7Qgtr/BKr8iZEq9UzBt+uzxuKtXDJYrln8spbrtRbYDHTD5SOh1jYFsnSM8RB0wLAtWtcNI4H1xUG3Ilp0bN1uNGjWxc9nnLboOLUwafVXwkNOtG1JEGpUdwR39Ggx7gtNIM8zFb4MNHsG759P4HFmWtc9uUiFXWYVfsOjOE/CkTBY2ohEJ3eHfEmjxF0SxHcV0iWhwUHnbipcjgQUWHcdvN09923isOivT5Mee6bUV9omiOPsiNl8SJx0Nlsjxd0D3UmcCqpTo1UCNfVrW2Vbttm2pTFuWOEFhsGJTcll9oOVH33UBie1J0S1Bp0ad+x3lwY7rzEn1q5b0zAoNQr9QcoTbTHWy6NHOBS5D74RZMMphlIF12Y6R99HDda3dzeCljE4F70SPg1wOrVKvybmctDrbxs23xmhUmoXLCbJ0nOR6eTEDokMje1CI6i3F3qzbfBEpLkCmscCqh1KuSKQ7W5dFZsSiMzaXCB0mtb4yCaAtToOgANG6TmgiDAg3lPUngr12i0S6qBDuiwKlSbuuAbim0OrWA0/SdsUBiK81ycZQ6W+OMy41pLUG/rJ/VqHoN8DAKc3QahCr9p1us02iv0KQ5dlndV4YxznvzGORsHKEovJylOtNCTrvetAFzNSC72pweeCDelsUe8bb4PGVcyk12CxUoEkbMp47WO6AuNF7T7GIkKlu1O4LPm0ZV9Dad9Ur5bFEatq3aZbsXBrY06I1FbxZitxw4gHTutNCINYfkiOAiptBlHancFnzaMq+htO+qTtTuCz5tGVfQ2nfVLV0QZR2p3BZ82jKvobTvqk7U7gs+bRlX0Np31S1dEGUdqdwWfNoyr6G076pO1O4LPm0ZV9Dad9UtXRBlHancFnzaMq+htO+qTtTuCz5tGVfQ2nfVLV0QZR2p3BZ82jKvobTvqk7U7gs+bRlX0Np31S1dEGUdqdwWfNoyr6G076pO1O4LPm0ZV9Dad9UtXRBlHancFnzaMq+htO+qXi2P/AAQNu3Jmjdl43rdsCk2/VrhqU6mUW3YuH2LCdlOuxm29Yg1H0NEA7LZPh3O5u9xf0pRB5ssHgS8GbJatUCq2jlhTXauc/S5VKk0MqRjpivlu4H3prmD7UAewt360LQ4vvVpH7A1+6lwY8VQt/wCET+ivrv7VZ/krT7oKRSKTRqtRXqPS4cHGTNNl7k7QtbQOTPlpLTzt4BVqUBVC1VWgfCJ/Qn1PrzG81ERFq8EREBERBVs0/wCLO7vgGofRzVpVWzT/AIs7u+Aah9HNWlAREQEREBERAREQEREBERAREQEREBERAREQEREFQqJcV2zPg6J85JXJrXFU/vtmfBsT52Svpcd8m8uW3vvlqv6BC/35K/Lw++Cx/h13/DJy/LZ++WqfoUL/AH5K/bw++Cx/h13/AAyct8PFlfJakRFqkREQEREBERAREQEREBERAREQEREBERARFH1KqU+iUyVWKrMZiQYTByZUh49DbDQDiRmRewIiOGOKCQRZPSuExk1VqbVarhdMymx6LTBrMrCsUafTDOAZaQksDKYbKQ2Rbom1geoiEecQ4KxWJmpZmZL9Ti2zMqATKIbI1CFU6RMpUyPtR1NEceW007oMRLSenSWguLm4oLsiIgIo+q1OnW/TJlcrE1uJT6ew7KlyHi0gy0A4mZkX4BERx/8Aku0y8zJaCQwYmDg6hIfCFBzIiICIiAiIgIiIPnwVVKEXFElYf5xqH0p1WzwVS6OXeZXwjUPpTqwyrhMav9C/bO+4xfp8/wClurqav6l2bL+4X/jp30p1Rj5Pa4J5ERdTMREQEREBERAREQEREBERAREQEREBERAREQEREBERAREQEREBERAREQEREBERAREQQFyY6ZlBx/ziX0V9drarp3R9tUL4RL6K+vrV/UsLr3NNPDhnnrq9A/Tz+ivqyqqST11mg/p5/RX1a1WJNCIi1SIiICIiCrZp/wAWd3fANQ+jmrSqtmn/ABZ3d8A1D6OatKAiIgIiICIiAiIgIiICIiAiIgIiICIiAiIgIiIKbVvvvl/B0T5ySvxctep9UCuHU4NNemtPxWo5Ay42JCQG6XhmP87/AHVExZ9TmyJkaJbNQNynv4MPjtYu67shd0+2+K6P9pcNc20Je1/vjqn6HC/35Krt15gWY/mjZmXUe5YUm5WKo9MfpzDm0fjMdS5nEb4hx7LVq3denV4PGs1zmsbhFVqodWLGqDrFrnFaYq1vU2SEGtzMQMi1NTBdACHSZDshkQz8Lb/yRfVg1uxeqdr2LldIt+2JlPr82XJtqTbb9PqkPa0uZsnZUd18XXcderXK4tEjwDHnF1Y+KL5vS6KuNwryFwdpcFGIdrHxIRpTokQiHfw+2cd4z3gLwB3Swd56+eRZgcm09clA5RsNO06iP6OUbTnaOWczZbujVx697Vxbi0QsqKuOQryJwtncFGEdrIxESpTpEIkHeA+2cN4D3jLwx3Rwa56NwryFwdpcFGIdrHxIRpTokQiHfw+2cd4z3gLwB3Swd56Cxoq1yLMDk2nrkoHKNhp2nUR/Ryjac7RyzmbLd0auPXvauLcX05CvInC2dwUYR2sjERKlOkQiQd4D7Zw3gPeMvDHdHBrnoLGirjcK8hcHaXBRiHax8SEaU6JEIh38PtnHeM94C8Ad0sHeevnkWYHJtPXJQOUbDTtOoj+jlG052jlnM2W7o1ceve1cW4gsqKuOQryJwtncFGEdrIxESpTpEIkHeA+2cN4D3jLwx3Rwa56NwryFwdpcFGIdrHxIRpTokQiHfw+2cd4z3gLwB3Swd56Cxoq1yLMDk2nrkoHKNhp2nUR/Ryjac7RyzmbLd0auPXvauLcX05CvInC2dwUYR2sjERKlOkQiQd4D7Zw3gPeMvDHdHBrnoLGirjcK8hcHaXBRiHax8SEaU6JEIh38PtnHeM94C8Ad0sHeevnkWYHJtPXJQOUbDTtOoj+jlG052jlnM2W7o1ceve1cW4gsqKuOQryJwtncFGEdrIxESpTpEIkHeA+2cN4D3jLwx3Rwa56NwryFwdpcFGIdrHxIRpTokQiHfw+2cd4z3gLwB3Swd56Cxoq1yLMDk2nrkoHKNhp2nUR/Ryjac7RyzmbLd0auPXvauLcX05CvInC2dwUYR2sjERKlOkQiQd4D7Zw3gPeMvDHdHBrnoLGirjcK8hcHaXBRiHax8SEaU6JEIh38PtnHeM94C8Ad0sHeevnkWYHJtPXJQOUbDTtOoj+jlG052jlnM2W7o1ceve1cW4gsqg7sqsehWzV61Ko0+rMU6BIlO0+DFKTKmADZETLLA+2uHxaRDDnEWA/hXA5CvInC2dwUYR2sjERKlOkQiQd4D7Zw3gPeMvDHdHBrnqvXXd9csaTboV6swXBuKvU+hsYRqMePfXGnSd1EUrcEybx0FvbPuDiLvOQY9l3fBVkrhziunL6+6xeuNFabG2xseq01mlUgZAmUKK7PjMNTZWo8HXdJanSa4mgEAFcGWUGLMunMWu3PRr8va2atItUmK7clryoNWk1Bqa7oYCGLEf7DhnyV/ajHaAdrIIyPSZq11jhC1OmVnC0ae1JrdxHXpVpsRKfbQ9/qrERuoOkO1qIALHI3dO+6PfQItWndXxT+EhLr71OgWpRqrV6xUnK6b9DjW+zhPpDUB8YruEza1EGtTUotJbIz2/8AJCPPQSHCSpjdUmZeSLjtedcdgw7hfcuqmRqW7UhdaKBKCK4/DaEzkMBKJrUOg8BLQZDxDrDDszrUh3XT6Va1vZE1iDQGbQqfWo3cNoVKtygmvzXxCKwO35PSC0gw607I0k0060H2ODBAtBtThOXq3k5aeaN1WzUqzFqVuR7nrUyjW6ARYMEALlOpyROa1ulpxMGmBddAQ3mj1iu9I4S1yUyu3nTqpTRGBa8ejMQKtHo4uBWqhUnQ5K1Hj4VHa99B0AAT0jgWt111oB0oMmPKWsZq5c5p3HeOW1ZrVzyMmqPAoXV+iyBlYVrqXObl7BuQAlhK2+yEiHf5njb3sLK8aE3l3bzdr0A6PSwpzIxaedKdppRw08zkroAbX5pCKyh3hITCB6C3SqkF0YXAVAZtLqNHcqZyJEM5UPS6NS5EQCw0++bu30GDRD3oxUvkTmHmVmfDuio1uRTaf1Cu6RROSPUM2pDbEcQ27R4hKMNqRlumJGA6f5XAhJBtqKtcizA5Np65KByjYadp1Ef0co2nO0cs5my3dGrj172ri3F9OQryJwtncFGEdrIxESpTpEIkHeA+2cN4D3jLwx3Rwa56Cxoq43CvIXB2lwUYh2sfEhGlOiRCId/D7Zx3jPeAvAHdLB3nr55FmBybT1yUDlGw07TqI/o5RtOdo5ZzNlu6NXHr3tXFuILKirjkK8icLZ3BRhHayMREqU6RCJB3gPtnDeA94y8Md0cGuejcK8hcHaXBRiHax8SEaU6JEIh38PtnHeM94C8Ad0sHeegsaKtcizA5Np65KByjYadp1Ef0co2nO0cs5my3dGrj172ri3F9OQryJwtncFGEdrIxESpTpEIkHeA+2cN4D3jLwx3Rwa56CxY9zBUWmFuTPhGb9KdUw3CvITHaXBRiHax8SEaU6JEIh38ftnHeM94C8Ad0sHeeoin2hdEVg+U3HTXHnH3ZDpBSXBDUbhHuhtyxw534SJYZZquKpdnWpCzDALf1EXEPLZvd/wDFOqHpdGuGpRnJOFbpzWl+RH0404y9qdJrV7f+SvPd7WNmVR7umyc9n5F7ZV8tB+HGoNNfOBBYJ0jkYVSmNO8ol6tQ6XdUpgNBmccFOKK3e5V1L0naOY1k383UnLJuSNW2KXI5JKlQ8MXYwveE2D+HenCHwsAItOPO4laln9nVGXXrRptRy+uizJ9Fdg6IEqlQyOFiWDu7sxbf07IWt3Tr49eHg81WAxvLbnsnqNsttI04E27q2ejvPhc7Vz/yeaulmsCKvt9emtvaDRscNcXa6Cdw3dP2Rp/W5n95cJHf2DBEMGgk/sTLDDlr4ht9puh7VzNl3dXj+D4SCzIq6Ui8sHS2dHoxhtpGGGONSdAibwDvBe0Y8REe6f4BHDUOJ81frMq88Tb5TQKMAkcXVs6s6ekSw45Hsxh5hcz+c8LZILCirXVK9hY1YWxTMZGxI9lhVj0bXa6RDXsObst/Vp527xeEuV2fcoPGI202bYvPiJ8vHUQA3qaPTp8Mt3T4POQWBFX26rcRk2DtpEOBlFEiGa0WnA8O+l/3X97wVwY125RZ5R1kTcXNgTmzGXGx39ro2erXz9HfOPm8W7x6kFnRV063WBcMcLNq5iLj4DiD0TeFsNQn3X+PS4W6PhaufgI7yN16q4k3gdlVpvW5Fw1GUPHTtcN8i0v4+1c0/wAfgbRBYkVb6652EbbHZlewLYYv4t6WCLj2uz2e67zuLf8AzPyt1cjlyOg8bZW5WMRB59vULAkJYNBq1c/mlzQ/GXcQWBFANXS24bQ40OtBtTjDvQy3duOre/M8PxVw43jDFjGS5SLgHDBjGQQdSJBFp2uy06RDnce9p52je5qCyoq87dkBlw2nIVa14OvtcY0eUQ96DWfEQt83TzS8Mt0NR7q+Ru6kvELIDVwJ04zQ6qRKHST46m+c1u8Xh6va/D0IMUtupZyxM22LLjZu4XnOwo1Qk3bHdo8Vqk2/KMQKmiyUdsXxMyIu8PPumTIm7ubpH9Zf3Lm5Dvq6qFSb4mZsRLftw+XOTY0GmRWroA9ynRpMVgRESb1bUT25x+9ai1Hpx/bEyop2XtvSqPSuEFms5R5UOoS3W5VKpgOk7JM2nJhSGqSEg5QuuYOiRukREIkQmHs9+xMsYGW1tyLBpPCBzAOks06bRIUaRT6Oz1OdbETOUw7HpjRHIAdRa3SdAyMyIHC7qC85w5mTsq7MiXNEtg69OmVmlURmnBMFjE5E+Y1FDvhCXFpN8fwLI7v4ZsGybjrFu3BQbZaes96nw7ljhdn+UMJUiOw+6NLinGEp7bQyB3zJgj0npDUOhazesWxMwqVSqFV7jkNhT67QazHxZLQ65Kjy2pkMC1BjuuEwOruc3V3R9lVioWdYR3XV75oOdVatiHcJxazXYVOqENqFUDY2UMXzdeYN1rUDDUctk61q2Q+FvIOelZ4XJWKvVqrTcuWnrDodbqVBn17CtCMxh6BtQlSMYJNYDyYX2nGtQyCd7mrZaVUpXCxrtBtGLe125Wx6bTLhs6qXlbYxrgxkyJTUOGMzksweTCMV02C1d6OQA6D3ubqsMfLbLWl3XOnR84qnDokqt1GszLSCrQmqa7UcWiKfte9cqMe+G+6wTuy1nrIFBRcgMpplCC0avnHWK9SY9tyLNt+JJqdO/wAjwapFwaEY5tMCTrpRxEGnH9qegfD1GRB3Z+fOZE4yt2iZVwBrrdrHdtQYduXRjBp7puNxQbLkpC7MLZO6mt1kCb07c8N5aBkDXaxdWROXNy3DOObU6vaVHnzZDnOfkOw2jcMv6yIiVUurLTL26KsxcdJzYqFvyMbb6357tHqUDDqnSBeIBF0nmnNGh03RF1nZGJOmOru4ab1YdNtOwbJoGX9Hr7UiDatOj0OOUqS0T+IQmADvujSO1EAEj4hHi8UcEFzRR7dWpjunFqoxS1aNOl8cdWvmfh8LwfxrmGdCPdCWyXc1brg832ONB2kXwBAfHoLAtPcxX2gIiICIiAiIgIiICIiCu3d7fQ/hEvor64tX9S/b09sofwiX0V9dTWuPJybxxHT1Vyg/p7v0V9XFUcT1V+g/prv0V9XhaYWeXyIiLoQIiICIiCrZp/xZ3d8A1D6OatKq2af8Wd3fANQ+jmrSgIiICIiAiIgIiICIiAiIgIiICIiAiIgIiICIiAoaj0fGmVCtyzdAsKrPGYA4eAIxmGNP/lcf6ymVXrcmSpVYuiPIkYutw6s2ywJfyQchinp/tmRfrKKFhVIvSl02ReVhVR+nxnJsWtSGmJBtCTrQHTJmsQLnDq0jx/mq7qtXZQKpWzpEyj1SLCmUidjNaKTCKS2WJR3mCEgFxvwX8ced4PsK9BZUVW6n5n+V1r9HJHpydT8z/K61+jkj05BaUVW6n5n+V1r9HJHpydT8z/K61+jkj05BaUVW6n5n+V1r9HJHpydT8z/K61+jkj05BaUVW6n5n+V1r9HJHpydT8z/ACutfo5I9OQWlFVup+Z/lda/RyR6cnU/M/yutfo5I9OQWlFVup+Z/lda/RyR6cnU/M/yutfo5I9OQWlFVup+Z/lda/RyR6cnU/M/yutfo5I9OQWlFVup+Z/lda/RyR6cnU/M/wArrX6OSPTkFpRVbqfmf5XWv0ckenJ1PzP8rrX6OSPTkFpRVbqfmf5XWv0ckenJ1PzP8rrX6OSPTkFpWeZv5d1XMWkUZqg3DGotXt6uwq/TpMunlMj4vMa+9utC60RAQGY7piQ8epTXU/M/yutfo5I9OTqfmf5XWv0ckenIPPdTyJzStrMiz67Qrxj1Os1O+a1dVQq524XU+n7ehDD2DjAv6tkRNaQLaie+PGRaN+z27wabtsqt0+9rSzLpjF0vjXAuCXNt83os7qpUBnGbDASgOOTToaWtTru5z9Zby13qfmf5XWv0ckenJ1PzP8rrX6OSPTkHnV7gOYda8O0378otTiDY8ayHZdWtQZkyILRSdcqnGT+iE67yrvu473Y7JeCpyrcEeqV6DV6ZcV/0WexVYtuyNLlsEbQ1WjG1yd02jlELsV0W9DsUt4tZaXQW3dT8z/K61+jkj05Op+Z/lda/RyR6cgySNwZ6zT4lIrNCrdk0C6qBco3FT3KHZYQaXgPIH4RxnYov7V3UzJf76UjUJGOjSI6CvuTeW9Ty0p1xM1q6wuCoXFcc24pUhqnYwwbdkYBqaBrF1zcHTu72rTgPHqx4yKe6n5n+V1r9HJHpydT8z/K61+jkj05BaUVW6n5n+V1r9HJHpydT8z/K61+jkj05BaUVW6n5n+V1r9HJHpydT8z/ACutfo5I9OQWlFVup+Z/lda/RyR6cnU/M/yutfo5I9OQWlFVup+Z/lda/RyR6cnU/M/yutfo5I9OQWlFVup+Z/lda/RyR6cnU/M/yutfo5I9OQTNIp+NOiHGxIccSlSJG7/0r5uf8SkFQ6PGzLlxXHWbsoAiMqU1xPUOQ4W6+Y4//GDu8Y7o+CO7v85SfU/M/wArrX6OSPTkExTaRSqUMgaTTYkMZb5Sn+TsC3tXT5zhaeLUZeN7KkVVup+Z/lda/RyR6cnU/M/yutfo5I9OQWlFVup+Z/lda/RyR6cnU/M/yutfo5I9OQWlFVup+Z/lda/RyR6cnU/M/wArrX6OSPTkFpRVbqfmf5XWv0ckenJ1PzP8rrX6OSPTkFpRVbqfmf5XWv0ckenJ1PzP8rrX6OSPTkFpRVbqfmf5XWv0ckenJ1PzP8rrX6OSPTkFpRVbqfmf5XWv0ckenJ1PzP8AK61+jkj05BaUVW6n5n+V1r9HJHpydT8z/K61+jkj05BaUVW6n5n+V1r9HJHpydT8z/K61+jkj05BI3U46zbFXfYdJt1qBIcAxx0kBYNlxEvEuNbvKi2NkVjceYtRwoN52Y7cdfrFy5h1KgtTK6canG0x1RY1Oxx2RyjaigTTR6HTLWYlr9k9T8z/ACutfo5I9OXy5S8ynR0OXXaxDj4ONtyPTkHkSoTcxazbdXC4c3rhlybfyVcuSDOoFbmwmJU8ZU7ks8iAWDdLZNNatYaHfDAt1du77ivqxnqnDpmYN2nTK1adlVy46hJqz8h2nNSq2TFXnxdZFyL7D2pELGhprRrAR0ca9ZdT8z/K61+jkj05Op+Z/lda/RyR6cg8tYX1Ktes3VfWXWZNZr+VuXFwUGpPy3bgkVeM/FlMPsVpjljrrpyGorTsWbpIy2RtEIaeaq9WrqzDckWLVr/u8aDbl+UytXf/AJavmfazDEh6UwUCByyKBmJsQDHTG1iBnyg9J6dz2I3S8y2hwBq67WER8HC3JHpyOUvMp0dDl12sQ4+Djbcj05BB5JxKtNyhtErxqdPuKpu0iPhIqTDBC3NDHiIHdLrTRb46DLjAd7j3VdTotJcLW9TIpFqMtRMjjzx0n+Dwh7hfjUR1PzP8rrX6OSPTk6n5n+V1r9HJHpyCTG3aGJ4O4UWBg4JMmJYRQ1amsNLRfq4c3xV1isy0HGOSOWlRij4t7DZlT2tGy2m10adPN2u/p8be9ldXqfmf5XWv0ckenJ1PzP8AK61+jkj05B2XrMtF9wnpFpUd0yckOkRwWSIjkBofLm850d0/GHnL8asm0GXWzZtmltkwcZ1vEYQDpOOGlgh7nc2Y7oeL+Bdfqfmf5XWv0ckenJ1PzP8AK61+jkj05By9YVnYRuSDbkEWthyXQIae87Xa6PzdpvLlcs22XiN0qWOt1yQ6ZC4Q6jfHS6XO8IV1ep+Z/lda/RyR6cnU/M/yutfo5I9OQdhuzaEybbjcMxxZOO6P2U7pEmB0teF4I/2vCXx1kUDCNyccKoI4scm3avLEtG12vO2urVq8Lnadzm7q4up+Z/lda/RyR6cnU/M/yutfo5I9OQczto0hwic5RVwxcekOFs6xNbHU+Og90HcMP6w/my3g0kv1m1qcJNOtzq1uOxnBwKsSyH7HHER57m8JeHx+247x6lwdT8z/ACutfo5I9OTqfmf5XWv0ckenIOTGzovJ9gFcuHDvHJ9eNWfI9O12mrnc7wdfO0bvGuU7ZwccNzCuVhrEnpDukZmOnDaho/sjzgHwSXW6n5n+V1r9HJHpydT8z/K61+jkj05B2G7bfA2zwuOsYjg7HPECkCWBbIdOnm80+cfjY+KuPC2alhGxZG9a+B4M7Db/AGKRatrr2nETGnXxbnN06fwat5cfU/M/yutfo5I9OTqfmf5XWv0ckenIPmoWbJqb7Dku7qxiMeW7LBoRi6MNY6RD2jVpDe072rHUWojXyVmyuUBgN0VLYYCWrdjate7p/kvzv7q++puZ3lfbHRyR6co12LmThW4kTG6rfxN2K+5hjhQn9nxCbXHqDlm8W9hpLVu8R87VuxWOb8q3apuDajMGcxOeqs6YcfEjbwf2WkS04hq3AHwSL/5qwY4caq/U/M/yutfo5I9OTqfmd5X2v0ckenJM7eKVpRVbqfmf5XWv0ckenJ1PzP8AK61+jkj05WLSiq3U/M/yutfo5I9OTqfmf5XWv0ckenILSiq3U/M/yutfo5I9OTqfmf5XWv0ckenIGaf8Wd3fANQ+jmrSqJX7WzDuGg1K35l424EepxXobpt26/qEHQICxH7M528r2gIiICIiAiIgIiICIiAiIgIiICIiAiIgIiICIiAoum0lqnzatOF3EzqkwZeOGPgELDTGnD/6X95SirVrPEdbu4CPEhZrLQDqx5o9ToZf+pKKFlREV6AiIgIiICIiAiIgIiICIiAiIgIiICIiAiIgIiICIiAiIgIiICIiAiIgIiICIiAiIg6NLgBToxRxPEsDkSH+7+N10nP+Jd5Q9s44lTnscSxxxwnzx7v6U6phAREQEREBERAREQEREBERAREQEREBERAREQEREBERAREQEREBERAREQEREBERAREQEREBdFyC27Vo9S146o8d5jT/ANobRf8AKXeUPIxxwuqnjqx4ip80uL/vY3/ugmEREBERAREQEREBERAREQEREBERAREQEREBERAREQEREBERAREQEREBRtPp9PhzKlJiFgT06UL8re1Y4O7Btvi/J3Gm1JKtWr93rx+G2v8ADYaihZURFegIiICIiAiIgIiICIiAiIgIiICIiAiIgIiICIiAiIgIiICIiAiIgIiICIiAiIgIiIOnTokWGwbUTHjAnnXS3uPfN0jP+8RLuKHtj7nvfCM/6U6phAREQEREBERAREQEREBERAREQEREBERAREQEREBERAREQEREBERAREQEREBERAREQEREBdM4sZyoMzDx7+0y60Hd8AiDEv8AaAruKHlffbTfg6b87FQTCIiAiIgIiICIiAiIgIiICIiAiIgIiICIiAiIgIiICIiAiIgIiICIiAo2B1K5XUup+z2/Kg5fp9nlGxa06/ytlsf9WlSSrVq/d68fhtr/AA2GooWVERXoCIiAiIgIiICIiAiIgIiICIiAiIgIiICIiAiIgIiICIiAiIgIiICIiAiIgIiICIiDp07knJy5Bp2e3e1af53altf7+pdxQ9sfc974Rn/SnVMICIiAiIgIiICIiAiIgIiICIiAiIgIiICIiAiIgIiICIiAiIgIiICIiAiIgIiICIiAiIgLpO8k6os69HK9g7s+PnbLUGvi/W2a7qh5X32034Om/OxUEwiIgIiICIiAiIgIiICIiAiIgIiICIiAiIgIiICIiAiIgIiICIiAiIgKNp9Qp8yZUo0QcBegyhYlbunHF3YNucf5W462pJVq1mSCt3cZBiIvVlox1Yc4ep0Mf/UVFCyoiK9AREQEREBERAREQEREBERAREQEREBERAREQEREBERAREQEREBERAREQEREBERAREQdOnS4sxg3YmHEAvOtFu8W+DpAf94SXcUPbOGI057DEccMcZ88u7+lOqYQEREBERAREQEREBERAREQEREBERAREQEREBERAREQEREBERAREQEREBERAREQEREBERAXTOVGbqDMM8O/usuuh3PAEgwL/aYruKHkYY43VTy048Q0+aPH/wB7G/8AZBMIiICIiAiIgIiICIiAiIgIiICIiAiIgIiICIiAiIgIiICIiAiIgIiICi6bVmqhNq0EWsQOlzBiY44+GRMNP6sP/q/3VKKvW5DlRaxdEiRHxabmVZt5gi/lQ5DFDV/bAh/VUULCiIr0BERAREQEREBERAREQEREBERAREQEREBERAREQEREBERAREQEREBERAREQEREBERB0aXPCoxikCGI4BIkMd38bTpN/wDCu8om3oz8WC61IHHAynTXOIvEOU6Y/wB0sFLICIiAiIgIiICIiAiIgIiICIiAiIgIiICIiAiIgIiICIiAiIgIiICIiAiIgIiICIiAiIgLouTm2qtHpujHVIjvP6v+zNof+au8omTGfO44MsBx2LUGU0ReKZGxiP8AsAkEsiIgIiICIiAiIgIiICIiAiIgIiICIiAiIgIiICIiAiIgIiICIiAiIgKGo9YxqdQrcQ2QHClTxhgQ+GJRWH9X/m8X6qmVB0KmS4NUuKY/p2dSqQSWOLHwMIcZr/eaNRQnERFegIiICIiAiIgIiICIiAiIgIiICIiCmX5frljDTRh2VcV0VGsSsYcKn0RhonTIWydM3HZDrUdkBACx1Oujx46RHURYDjWXuERYUPJ2dnZUo1Xh06myJcGRTHIo41IahHlHFdgC0JkJv8oaNrdPQXO1aN9fufVVzdhUKm0rKa0K3VCq07GPWJ1Gfpwz6VB0HibsYJ77DJPkegAIiIQ1EeInpECzK4ckL9uazKMWXsAbFgW1RKxDp9nXZSmqrKOpSgdA55SodV2XKXRdeEXXDd4uVPme8aDf7Zva3rrgUiTTqg03Jq1Kj1xiA68AzMIjojpcJoS5u9p1c3UuvV80Mt6BXY1tV3MK2qbWJUgYseBMqzDEp14gEhaBoy1kWkxLTxeEP41W8m6Jd9r2vaNsXnbUZyqU61okabXYjTTDYvBiI4Qdli+67qEeIiPAiaIhIsNOrAVl+amRd3Xc7nXjHs2LUOvWbafU/ausfZkeEbBSMC1nuiOl3dPT7G7q40G3Rs3spZVszL4jZoWm/blPe5LKq7dbjFCYd3e9uP69AHvjukXHvYLqDnBaMq4bOodAnx65EvdqoO02q02U0/D0xQEj4nALiPnacNPHzcVjN+5b5txL/ue4rWtKW/SavelCqbr9MwpLtU5JHoxME/DGoFsGnRlDHaIj0nsdrsvBWbY8GXPe8WGLcmBV7WELju+rO1V+dAkhJj1Jpp1hl8Y5Aeh13EmpAtC0Xcd0FpIXUHrqoZwZTUpqkvVTNG0obdex4qST9bitjUN7T9j4kffd7d3eNXReNbsylzTuC4K1cNUy3vCDTb2sSm2w/bdr1G39hTzj8sGRAfdmiWmGW3EmnY/gketoT0gvWdv0jGiW/TqKDz7uMCI1F2j7u0cPAAEdRlu6i3ecgl0REBERAREQEREBERARFXrkvW0LIiwpd4XVSKDHqEsYENypTmowvyjEiBgCdIdTpCBlgHO3SQWFF84Y4FhqH8K+kEfSKhjUYhycRHDEZUiPu/8ARPm3/wAKkFGUOE7ChuMSNOJlMlv4cXiuSHDH+6WCk0BERAREQEREBERAREQEREBERAREQEREBERAREQEREBERAREQEREBERAREQEREBERAREQFHu1DFutRaZoHikRZEjV+LZm0P/ADVIKMfhPHXoU/DTsWYklksPyjNgh+bJBJoiICIiAiIgIiICIiAiIgIiICIiAiIgIiICIiAiIgIiICIiAiIgIiICzOtY5y1uvVhiwL3s+iQ6XOGKTdatWVVHHNUWM7xibVQjad50/BJaYoaj0fGmVCtyzeAsKrPGYAj4AjFYY0/+Vx/rKKFC63eFN78eVXyaVH16nW7wpvfjyq+TSo+vVqyK9BlPW7wpvfjyq+TSo+vU63eFN78eVXyaVH16tWRBlPW7wpvfjyq+TSo+vU63eFN78eVXyaVH16tWRBlPW7wpvfjyq+TSo+vU63eFN78eVXyaVH16tWRBlPW7wpvfjyq+TSo+vU63eFN78eVXyaVH16tWRBlPW7wpvfjyq+TSo+vU63eFN78eVXyaVH16tWRBlPW7wpvfjyq+TSo+vU63eFN78eVXyaVH16tWRBlPW7wpvfjyq+TSo+vU63eFN78eVXyaVH16tWRBlPW7wpvfjyq+TSo+vU63eFN78eVXyaVH16tWRB5zzkubhRZR5a1zMUsxcsq11Fabc5Axl5PaN/W6LeAiZV3TgW8s/qmc/DGtV276Belz5G0a4bah0erNC5RZjdKfg1GU7GB92dIqrXJ9k7Gf2o4NOFxaNltSPAFv3CQsWtZmZK3LY1uMYPVCqtMNNByjYcemQ0R988DdElX6pwZKNW5s24K9mLd9RumTNo8uLX38IGEqB1NdedittNhGGPoE5MkiwNotW2LxQ0BjNg8IThOXlUKZAnXxk6zHk3fKsqdUqXaNRnwGKiNObnRcWneq7ROtPtubPUQNYi7pDSWrjUU/wj+GZUY8qdZr2UlSjNW3UrxjvTrYqMQJNHizHWGnQ0VN3vshpoH2g5uh3DWYrUcxeDTVnLLuyybOrFyViZmXX6fWKlWapUozXUGfH5KBVRjZNA7i7oiNELIcbWtoAAWGiJaXIyIsl0nzjHOgsHZhWI1EiugDTFNxx3NngQl30OaJc38lB5lq3CZ4U1pUmq3BfFx5U0iN1uUm5aFgFoznMZkeozBhsNTCKriEJ0XnWtek32hAzLWWhcVN4T/CjqLEqBTbzyUrddjXBRaCAUC3p86lv9VMXRjvDNOqtFhpNh0XQJrWOA6h16g1ejrh4NVh3LFaiVGo1zDYW3T7aZcbktCbIQpQSo0oC2f2yD7TZ6ubu4bi72GSo1FmB14Zi3fcsmn3BCuGPJnOQ2sQdi496aFuOw00DW8WvSGsvH5vEHnOFnXw4J942/YzlVyTjViRfEyy6wHW/VCixTYo41YH2HOXapAHEPEtJCwYuiAcwiMfQ3W7wpvfjyq+TSo+vVwzeD1bcy5+vOnXNcFLq3Xn17DJjHGLTMKkjSXWNDrBjyc4od3w9ZkQmO7xa4gynrd4U3vx5VfJpUfXqdbvCm9+PKr5NKj69WrIgynrd4U3vx5VfJpUfXqdbvCm9+PKr5NKj69WrIgynrd4U3vx5VfJpUfXqdbvCm9+PKr5NKj69WrIgynrd4U3vx5VfJpUfXqdbvCm9+PKr5NKj69WrIgynrd4U3vx5VfJpUfXqdbvCm9+PKr5NKj69WrIgynrd4U3vx5VfJpUfXq8X/wptkZ/1rIe06Ncl32ddTc2+IjMOBQrSk0uVjI6nziEtq/U5ImOkTw0aBIiIeIu5pL+kyIP47cEzgvfwlFrsxpOXd+1jLyj44C6zGuJ4up+Gvn6qdIEiB3/AMP+uv6hZbNZtnajA31dtsVGtMOPRpEqn0B+K06bbpN6sBKUfd3P/wDkeatHVftkv8nv/CVQ+mOqKVLkwiXgI8RV2kF+dS3fr1z0Sc9UadhIkCGDwuvMOaObradJsscP7K7mtRtq/cp34SqH0x1TPMTaIi1SIiICIiAiIgIiICIiAiIgIiICIiAiIgIiICIiAiIgIiICIiAiIgIiICIiAiIgIiICjH5rwV6FAw07F6JJeLH8oDYEfnCUmo92n4uVqLU9Y8UeLIj6fx7Q2i/5SCQREQEREBERAREQEREBERAREQEREBERAREQEREBERAREQEREBERAREQfOGGKgLcmSpVYuiPIkYutw6s2zHEv5IOQxT0/wBsyL9ddidWMYsrkMWkzJ0gGgeMY2LQ6ALEhHEsXDHxC/sqLpr02nzarOG1KwRVWYMwsMXYe4QsNM6cO/8A/Q4f2llVPei2ovL3Cg4UOdWTkQ2cruCtdV7PDGB5+pYymsYsPE9Wgiaik66Y4aC1ceyH8tfymzn/AIRjhi5lS3olSzDmWXCwe4hp9rNHTBaMd0h24lyg8PySdIVro8f36RZT2YsxfNPzV+MrV9cp2YsxfNPzV+MrV9coNWRZT2YsxfNPzV+MrV9cp2YsxfNPzV+MrV9coNWRZT2YsxfNPzV+MrV9cp2YsxfNPzV+MrV9coNWRZT2YsxfNPzV+MrV9cp2YsxfNPzV+MrV9coNWRZT2YsxfNPzV+MrV9cp2YsxfNPzV+MrV9coNWRZT2YsxfNPzV+MrV9cp2YsxfNPzV+MrV9coNWRZT2YsxfNPzV+MrV9cp2YsxfNPzV+MrV9coNWWf5xsUV2xpUi6L+qloUCnutTKrUKdMOG+7HA8NTASG++tbQsRDjaIXceaOO8onsxZi+afmr8ZWr65VQzHqVUzUo8OhXpwS85noUGoMVSN1PuehU59uU17U6D8SutO4aCLVzudpLwcOIKGNg561q2bbagQL7l2zJvSpVOPSJt/T6NV4tCKnG3DjzZ4P8ALC+ytT+z1umIm0B8wtOx5I3HMuO16UFtQ59KpdDqFXolfp9yVWVV6uxUY8rZ6AnOvu7ZvVg7vGR7hNadGnQshny7Ywq1DyxqfBm4QbtddGoXLRX5GYESTU2BY5PGlGxUjuEnWA+ymAJjB0QPa47hbys1PuiDlbSqTLicE7NWiU+3SkNRTduO38AwenvjtTfxOucUh110h767rPWZb2oy4wkOERnpeOWk6qw7Fn0F1+3bZfuafAftyqVeQ6I4u7MHXIpA1T2j5O6Avuk7vCeOy0tFiutVs+7/AIN80zCpxKVa1n1XGilS5VXoM+UxVRmi1tR6qsO8ngOgbhNA1IZ76YhxF33c616U6Pf9dk3BdfA3zelSajTQpFRbauegxo1RhgbpNMSmGa6DUgRJ93TtRL2wlTYkqwyuml2MPBMz2GoPQ+qjVFl3VBGLNZpD8aKEiQw7XNjIxaLkoiTuonRFot8AAxCxcFvN6u3hXajljBd48Lard1Tq3LrGD/KJjTtx1NqKxA1kO1baEB2r++DfeWRHURbL1QvONL0UaVRptK4F+aUeZbk+qVKnOt1y3sHGnqk86/N4z6ub7TrrpmTR6mtWAaRw2Yabx2YsxfNPzV+MrV9coNWRZT2YsxfNPzV+MrV9cp2YsxfNPzV+MrV9coNWRZT2YsxfNPzV+MrV9cp2YsxfNPzV+MrV9coNWRZT2YsxfNPzV+MrV9cp2YsxfNPzV+MrV9coNWRZT2YsxfNPzV+MrV9cp2YsxfNPzV+MrV9coNWRZT2YsxfNPzV+MrV9cp2YsxfNPzV+MrV9coNWRZT2YsxfNPzV+MrV9cp2YsxfNPzV+MrV9coNWRZT2YsxfNPzV+MrV9cp2YsxfNPzV+MrV9coNV8FVu3T+wZHwlUPpTqpvZjzF4v/ANKGavxjavrlTdi1SbVrdCpT6BOosiRMmuu0+abBSIp8qd3HSjuutavzTIfyljk8qlada6tp/chz9Pn/AEp1fWtfNofcY/0+f9LdXk8iuKdREW6RERAREQEREBERAREQEREBERAREQEREBERAREQEREBERAREQEREBERAREQEREBERAUTJkvhccGIBY7F2DKdIfGMTYwH/YZKWXRcgtu1aPUteOqPHeY0/8AaG0X/KQd5ERAREQEREBERAREQEREBERAREQEREBERAREQEREBERAREQEREBERBCMHpu6pfB0L52UpTaKGwPTd1R+DoXzslSO0WUq0dKEWq7an8HQvnZSpuavBuyNzsjvNZoZYUOuPPN7IppsbGbgHiDKa0vCP+g1b6aWu66l8HQvnZSnh9he4+JXl+oiLRIiIgIiICIiAiIgIiICIiAq1mHFuGdYNyw7PdxarsijzWqW4JadEsmC2Javz9CsqIP57v5e1ibSomGQWUd12rXG8lq/SanKOgS6Wbtadfo5EwTjotYOzzFqV3/V308MO+ls8SHuVzKCm1LLu8pNEtCTUqNhjbEiRbsLKmbQoZOxau26++1DkG67IlDF5QLpNNbwEIERlur34iDwffVLrErMQ74t3KOfS51Cv+2pEd2Bl9V36oNtNPwRdfaqJFoBgou1AqdFa1CO1E2tW1Me0xlxdE5ubGuS276g02XQcz4siXSKS65MaGXeUd+PpaMO+7VgSdBrnOsCWgSXuZEHn3gq0+RSQvClRrGp1GpLM2IcKqUu1p1rw6oZM990UmWXeCa0gJut7jurxgJegkRAREQEREBERAREQEREBERAREQfOHsYqnUY9LEn4RqH0p1XH8GKo1KPQ1M+Eah9KdXPmXCW2q57L+4Zfp876U6uhtV37J+4P/jZ30p1Tj5va4J5ERdTMREQEREBERAREQEREBERAREQEREBERAREQEREBERAREQEREBERAREQEREBERAREQFDyMccLqp46seIqfNLi/72N/7qYXTOLGcqDMw8e/tMutB3fAIgxL/aAoO4iIgIiICIiAiIgIiICIiAiIgIiICIiAiIgIiICIiAiIgIiICIiAiIgrL5aLun/B0L52Su7tVHTD03bP+DoXzsldnarl3tdH5Rj1XRVP0CF87KVhx9nBVugnquaqfoEL52UrJj7OC2x8EXyfqIi0SIiICIiAiIgIiICIiAiIgIiwvMvMTOqxrogT2sLMO36pc9KoFJt7GLIerNXYkG0MqSEkXxaZNoTkO7LFhwdlFIidHVuBuiLzbYnCQq99ZlhTYtz2fBt+Rc1Vt2LSJdMnjPf5ET7RuhUdfJSfM45OjD2WvYEB61tbN6U2PaEy97jgTbcp9Pjypkwao2LbsaOxq1umIEW7pDX7PNxFBZ0WEO8LaxadQqpXrntK7rdZhW47dkVmaxFN2o0pomhddYGO+7pIMX2NbTuydHajuLq3jwqcbYhVZmNlDd+FwUepW2w7Rp5U+O6/BrNR5HHmNFyog0k6DrWAkQmLujai2OoxD0CixlzhLWg1cZUmRbtyBS41dYteZX9MXqfGq7pNNDFPv+3x4n3W2CdFomRdPTtO4XFZMrc26Xm0zVajQLYr0Gl0ydIpw1GpNMNMzpEeQ/HkAxodMyFp1g8CIhEcdQ6NW9pDQkREBERAREQEREBERAREQEREH5xY91UXCBXKe7JaZoMqW0cqQ+LjLsfSQuuk5xbxiXhK9osrx7lTW37s/iyavNAnYts1A8BdNrVtYvOAyE/5XxxJWi16fIptHCPLDS8b0h8x1atOLrpOaf7y7lO5JhHPkOnZ7d7Vp/ndqW0/v6l28MeNeTj2+4qtz9REWyRERAREQEREBERAREQEREBEVMzAezKCHBZy4kW7CdelcdRqddZdksQYgNGRELDTrROmRCAe2gI4ER46tOgguaLzhCzZzZruR4Zv9elj25DpOFYOfLkWjNqrFYjRJTrcWZAaCosGASGmgdaaInSLahgJF3CLUMtrizBm0Wg0vM63Qj3RKooVCrSaXFwbpkaRieA4xB1vuHtR1fljulvIL+ix6/uEfZ9g16vUydQbhqEK0o8eVc9VgNRii0Rp0NoJP7V8HndLXE6WDDTugDEi4lxVDhMWnCuGoUrrNux+n0e6oVm1OutRovIIVSlGwEcC1P4PGBlMjjqaaPTtd/Sg2ZF59tfhXdVo9PYq2UN4R6vWrquC2qTTYmMB85h0uS+06WvlWhrSLBa9ZCOsD0kY6SK527ntZtzMWeVOp9Xwk3nUZ9LjQXWAF+E9AF/lmModeloWjjk0Wki3zaHu6kGnosevXPe3cuLwuGlV/CtT+pka2NEGn00XTxdq9Rlw4+yLa6nSJ1gRINI6dIadeJ6RsuXGZ8HMV64KXjbddt+q2rURplUpdZFjF9h0mGn2i1x3XWjE2n2jEgdL2eItJYcSC+IiICIiAiIgIiICIiAiIgIiICIiAoeV99tN+DpvzsVTC6TvJOqLOvRyvYO7Pj52y1Br4v1tmg7qIiAiIgIiICIiAiIgIiICIiAiIgIiICIiAiIgIiICIiAiIgIiICIiCoVI9F3Tfg6J85JXJtf610bknRqZdDsifJZjMvwY4NOPFpEjFx/UGr9cF0+ua3vd6n/tQLhqttN4TVtlruaq/oUL/fkq0l7KyGRlPlDm3XpNZvzLaz7yGHDjxIcmsUeLUMG8Nb5GDZugWnnDq0/hXYx4J3BZ82nKvobTvqV04eLK+TWEWUdqdwWfNoyr6G076pO1O4LPm0ZV9Dad9UtUtXRZR2p3BZ82jKvobTvqk7U7gs+bRlX0Np31SDV0WUdqdwWfNoyr6G076pO1O4LPm0ZV9Dad9Ug1dFlHancFnzaMq+htO+qTtTuCz5tGVfQ2nfVINXRZR2p3BZ82jKvobTvqk7U7gs+bRlX0Np31SDV0WUdqdwWfNoyr6G076pO1O4LPm0ZV9Dad9Ug1dFlHancFnzaMq+htO+qTtTuCz5tGVfQ2nfVINXWHlk7myznJVc1IOZtnSmpxtR4carWbKmSqVTRENcOK+FTaaa2hiThu7DURmOvWIAAzPancFnzaMq+htO+qTtTuCz5tGVfQ2nfVIKzH4PdQpdwUmlP5iQGrEg3pIvam0LqRoqONTddfmExyzlGgmBkOvv6BY16dzXpFaVVbKl3dlxVcvr+rLVV64IM2l1GXDi8j1xpGDgaQb1noIWjwHVq5w6vyV4Ng5SZXVBvJjM+oZaZf1HG77muJ6TZ8ayqPGZBqLSawTUNvZRQddBo2GgdGQbvfhaLc0aVEBlHS67kvPvebklZcKHcuWNYuTCe7atnx8IU1qEEph2khFaOVsN42i2+1dATaLWB8aD1HB4ITnWJcNizKzYlPKq251uMVOg2DHp0nTqHE5MksHzN4y2QboE0GrUWnm6LHmvki3mJdFw3BSswIFLq1Xh2rTobD0DlIRZtCqz9YaJwRfAnRd24CTQ4gQgOvAt7d8lZu5d5VZe2LcNbtPLC3am9ltZlNqtRcfy9tIYb818TfAai++wL7+1DZDphNNaOPnOGe5Z7jyjyZezk6jt5NZU0+HRszapRogP2nTo8IYY2J1QAJmlodq0Mp0n9/Vp3fFHQG+0bgrMUe/pd1Nv2HJjVS4+uiY5OsZqTV8JZkDshpic6+WDTRuiRBqaN1oTIQPmGGoZUZflljZzdo9WMKngNTq1Rxkcn2H27UH5mAadRczb6NXHvadW7x6V5g4PuQ2Tr90nY+bOR1ou3I7b7VX5DVbCtk4b+l3ZvSqdMprAiUbU4A7KQG13gLxlv/AGp3BZ82jKvobTvqkGroso7U7gs+bRlX0Np31SdqdwWfNoyr6G076pBq6LKO1O4LPm0ZV9Dad9UnancFnzaMq+htO+qQauiyjtTuCz5tGVfQ2nfVJ2p3BZ82jKvobTvqkGroso7U7gs+bRlX0Np31SdqdwWfNoyr6G076pBq6LKO1O4LPm0ZV9Dad9UnancFnzaMq+htO+qQauiyjtTuCz5tGVfQ2nfVJ2p3BZ82jKvobTvqkGrrAOGJwp4fBFy7oeZNUsyRcsOq3FHob8ZmaMZ1kXY8l7ajiQFgZDyfTox08evndxWjtTuCz5tGVfQ2nfVLDOFj/B5Zb51WPQrWyey8y+sCfHuJqbU6pAojEB8qeMWSBNAUdjUeO1cYPZFpEtHOw0igsGUX8JXwR83HGYjWY+Fo1J7AvsC62cKeQ8X4dvqKL+rtdS9Pwp0OoRGZ0CQ1IjyABxt5otQOAXNIS9gl4myo/gk+DlZsdtzMEpl7yuIdq06HI4ZGPhiIEUgfzdvo/JXpzLPKvLKz7Y6hWtl7b1Mp0WdNBqPGpzQgOmU4Pi/kioqhcLZ+5z/wjP8ApTqluLFQvWjaHkrSP2Br91Z1FyIsq5nJtbqVdzEZfdqEwdlT8x7ghR2wB9wRFtiPOBpodIjugI4Jue9Gwosp7WnLvykzV+Ve6vWKdrTl35SZq/KvdXrFW8asiyntacu/KTNX5V7q9Yp2tOXflJmr8q91esUGrIsp7WnLvykzV+Ve6vWKdrTl35SZq/KvdXrFBqyLKe1py78pM1flXur1ina05d+Umavyr3V6xQasiyntacu/KTNX5V7q9Yp2tOXflJmr8q91esUGrIsp7WnLvykzV+Ve6vWKdrTl35SZq/KvdXrFBqyLKe1py78pM1flXur1ina05d+Umavyr3V6xQasssz1yuu7Nih0y3aDeNIo1Pjzhl1aFVqI7U4dZYES0RX22pcYtlr0mYa9J6RAtQaxL47WnLvykzV+Ve6vWKdrTl35SZq/KvdXrFByVvK28LzsygWtfN50SQ9SriptZlnR7fdgxJkeFJB9qLsHZb5BvtNb+1Lm8xXjGLcGNyjUG61GwouEImTgYQ+N0pWsSF/b6+4OAah2enwtWr8C8sZp5ExJeemX+V1u505u2jTbit64qhMdhZkV1+S+/CepmxwYKVLdAS0yX9W4WGjX4WkwwqoM1Kv5VhcFIzWzwYrdsWJKuOsO0PMKotQXTGVMYizJTs+plraf5A6fJ4oiXP76GpoUHrS+eC3CujMi4L9hHY+PXdhCKqdcNlsVmVGdjtCxrhPuuiLOpoGh0ONOhqHXp5wnN1Hg9YVCg3ZQcLrGON0X9Sb5Axp32tyKVTH+S6dpv6+p2na7una8wtO/5qnW9KxqbeXzN8ZnR7izJat2p2TJDMu5SGJFlND1XERKdpexhhFlSuM9fclMgXc4lHUjKO7biq9nSceEJnDBi3jmZd9lOw2L9rBDDp8B2sHHdaI5RHyoRpYN6zImtB7zRnvkHpuzuD5VrbvKl1+XfESZT6DdNzXFTojVGNl/TWXH3XWHX+UEJ7N2SWkhaHdAcMR495R2S2W0js1ZgZuPUur0ujVCSbFuU6qMbBxh2QDBVaU01zgakPxovP0lrZePmugvMFFtW9bsnWzl3T75z3lTBjXYU2r0DM2Y1PqB0qvu0xoiGoVAYoDsmxddFlrVrdDTshXcl5a3/cdPuR2ZnPmZalQtjJ+lXm61Q8yqxNYk1g3asJFg67OfAoroQWtQAWrm6HQ39Yesb74PuN7X/Pvjrs5FhOds13k3IMXdHUCsv1Hn7Ufb8H9lze96NW/zVbbTy/dtW9L6u8axyrG9alBn8m2GjkfJ4DEXTq1Y69Ww180edp/KXmfIHJenXhmPf0+vZo5wy4EeNQnodIxzNrbceNyynNSj0uNShkHpMzEdq6e7/aW9drTl35SZq/KvdXrFBqyLKe1py78pM1flXur1ina05d+Umavyr3V6xQasiyntacu/KTNX5V7q9Yp2tOXflJmr8q91esUGrIsp7WnLvykzV+Ve6vWKdrTl35SZq/KvdXrFBqyLKe1py78pM1flXur1ina05d+Umavyr3V6xQasiyntacu/KTNX5V7q9Yp2tOXflJmr8q91esUGrIsp7WnLvykzV+Ve6vWKdrTl35SZq/KvdXrFBqyLKe1py78pM1flXur1ina05d+Umavyr3V6xQasvL1K/hF+Cy9mTceVd1Xu/aNftquy7ee6vReTxZD0d8mjdCSGtoGtQY7zxt/mrS+1py78pM1flXur1iv5xzf4JXNTMbOS+bmuCux7atqqXNV5FPeqNSOpz3IpzHSYfLfdORqa0kW3fadxIt4tXGSD+rtCr9Euekx67blag1WnS29oxNgyAfYdHxhcDjEv9S45OGPXbTfg6b87GXlvIn+D/wAqeDRXaZXLXuu9JdXqUrYTCYrcmDDMRYdPTsGD3x1tDuum6vUHWpSNWB8orGod3j6szPrVG570TqKsOwRo1UpHIZc7EZco2HsH5jr44jyd1zubUi07zY+wrOvZrc8ERFQIiICIiAiIgIiICIiAiIgIiICIiAiIgIiICIiAiIgIiICIiAq1azBBW7uMgxEXqy0Y6sOcPU6GP/qOKsqi6bVmqhNq0EWsQOlzBiY44+GRMNP6sP8A6v8AdUUJRERXoCIiAiIgIiICIiAiIgIiICIiAiIgpdPyjyrpdyFeFKy1teJXHZp1A6ozSY4SuVmJib+LujXtCF10SPj1Y7U/HLjUbKPKu3ZtTnW7lra1MlVlp2PUnYtIYaKW06WpwHcQHDWJlvEJc7H2VdEQZ+3kLkg1jFwHJ2y8ORU86VH/AMhRe9Qi16mB3O41313d9jvp+OXHLwctsvKXjHwpVg27D5I9yhjk9LYawZd5KMPWOkd0uSgMfVh/JDg3zd1WlEFRs7KzLXL16S/YFgW5brk4Abk40mlsQydAOYJbIR4xHUW7+UrciICIiAiIgIiICIiAiIgIiICIiD8x9hV+2z00+R8JVD6U6rBj7Cq9vnohyvhGofSnVlXJUpzaroWp9y3fhKofTHVz7VcFn/cdz9Pn/S3Unka8E4iItUiIiAiIgIiICIiAiIgIiICIiDNL9yStDMy/bfu29aZTa1AodDqtH6k1KC3Jjv4zX4Lu14j5pByHAeb/ACuP4lMzco8qqnKpM+o5a2tKkUKKMOluPUaOZwI481pjjHvQD4o8WCuSIMxpOStEpGYNPvYCgNU22KY7SbUocCmNQ4tEYf2XKiDR3TM9gGGHNEA1Dp3iLG3x7PtGNjD5LadJY6m1CRVYezgtDyWdI2u3lN7u465yh/W4O8W3d1c4uOfRBSq9lJlXclLYolw5ZWvVKbFlyJ7EWXSGHWmpEgzckOgBBpE3TccIy8MjPVx6sVKhZlpjykcLSo+iZT2qNJwwgNcT9Pa2myinu7zAbZ3S1zR2h9zeJWBEFcgWPZVJr5XRSLPosKsnBaphVCPAabk4w2sdxjaCOvZB4IcelWNEQEREBERAREQEREBERAREQEREBERBB3BjxVC38f8AOJ/RX1I7X+tRlyfblB+ES+ivrs7VZ/krR1aseqrW/wDCR/Q31PqtVA9VYt/9PP6K+rKvMRQiItUiIiAiIgIiICIiAiIgIiICIiAiIgIiICIiAiIgIiICIiAiIgKvW5DlRaxdEiRHxabmVZt5gi/lQ5DFDV/bAh/VVhUNR6xjU6hW4hsgOFKnjDAh8MSisP6v/N4v1VFCZREV6AiIgIiICIiAiIgIiICIiAiIgIiICIiAiIgIiICIiAiIgIiICIiAiIgIiICIiD58FVKhFxRpXwjUPpTqtvgql0cu8S8P841D6U6sMq4S+r+pfdnfcYv0+f8AS3V1NX9S7Nl/cL/x076U6ox8ntcU8iIupmIiICIiAiIgIom4KxDtyiVC4Z4SCjU2K9MewYYN9zZtBiZaWxwxIy3eaO8WKyo+E/bVLh1ty9LDvK059GpLFcbptVixTk1GLIf2DOw5O+6GBk+QNbJ0miEjHXgI7yDa0WbWnnPbtcqNZolwUqoWTV6A/AjzafcL8MT46gWmFiDsd91k9qYm0Ai7q1jp083j7Gama0fK0LbYxs2v3PULrrONBplPouMMX3JHJX5O8Up9hoA2UV3u4n4qDQUWYWxnvZtTj3Kd1xZ1hS7NKN1ch3U9FjchakDxsPE+0+7HNs8RIRMXS3gIVaaHf1j3U1TnrXvSg1ZustPv05yBUmnxltMkIvG1oLHaiBEIkQ9wdQ4fhQWZFSKpnBlJQcccK7mpZ8DDGRyX7LrcVrvu2dY2W8fP2rD7Wn2dbRjzhJduDmdlrVY1bl0zMO3JjNtGbdbdYqzDg0sx1ahkkJd44tBc/TzcUFsRUyPmzldLt8LuhZk2rIoLr5xBqjdYjHDN4RIyb22vRqERMsR1c0SxUU9n/kqzOtKEzmfbUo77mPQbfciVRh5ue81q1i2YlpLfw2Xs+2mAc4sEGkIq3duYFiWCxGl33e1Btxia5yeK5VqkxDB93xAJ0h1F+TguCrZl5cUK4IFqVy/rdp1cqukoFMlVVhuVM1lpDZNGWs9X5OGKC1oqVOzeynpNYcoFSzQtGHU2gkOOwXq3FbkALGonyxbI9XEGk9fc3dJcfFxYrjlZzZRRLfhXXJzUs9ugz2nnYtUcrsUY0gGiEHDbd16CETIRLEcd0iHDH2UF5RUFrOC0JF4Ba8eoRnYLtsFdg1oJbRQCg7fZasHdWnT4evj06V0KzwicjaFake+pubVqHb8urR6G1Uo1ZjvReWumIi1g6B6d3VrPxAEiLiEcUGmoqu3mVl47d3WE1fluldGja9QxqjHL9GnVq5Pq2mnTvc1dfMC/YNgU6ny5NFqVXl1aotUqn0+m4s7eTKcEywASfcaaHdAy1EY83FBcEVWsC96RmNadMvWhhLahVRrbA3IwAXAxEiAgLQRDjpIS3gIgLi4xIh4sceOBmllrVK3VLZpmYdsS6xRAN2pU6PVo7sqCIc8n2hPU1gPhauJBbUVFfzoyejwmao/mxZ7cORNKmtSSrsUWXJYiJEwJ69OLukxLRx6t4fxqJtnhCZYVexbVvu5Lso1pM3ext6XErtUjxXXt7TpDWW+XdHm8fOQagirvXvZoXMNmO3ZR8LgcEiGk4zmuWHgICZd41a+4BiXN5pjirEgIiICIiAiIgIiIIC6ftug/CJfRX19av9C4ru9uofwiX0V9cWr+pc1cmkOKWX+WaB+nn9FfVsVOcPVXKD+nu/RX1cV7hTQiIuhIiIgIiICIiAiIgIiICIiAiIgIiICIiAiIgIiICIiAiIgIiIPnVioShUyXBqlxTH+LZ1KpBJY4sfAwhxmv95o1yTqxySXyGLSpk6QDYPGMbFodmBYkI4li4Y+IX9ldCFWblwl1DGfadQJjGQGMMW3YurBnZN8evv8Aztrtf1dKyqpe6LQi8vcKDhQ51ZORDZyu4K11Xs8MYHn6ljKaxiw8T1aCJqKTrpjhoLVx7Ify1/KbOf8AhGOGLmVLeiVLMOZZcLB7iGn2s0dMFox3SHbiXKDw/JJ0hWujx/fpFlPZizF80/NX4ytX1ynZizF80/NX4ytX1yg1ZFlPZizF80/NX4ytX1ynZizF80/NX4ytX1yg1ZFlPZizF80/NX4ytX1ynZizF80/NX4ytX1yg1ZFlPZizF80/NX4ytX1ynZizF80/NX4ytX1yg0OsPVJilS36LDbl1Bphwo0Zx3ZA87px0gR6S0iRYc7SvNt0Z/ZxZYhecC8Rsm46hbtrwa269RYcqBFok6TLFgI08nX39bWkif2o7ItjHdLEB1CSvFxZq5uVKgVOnW7wa8z6PVpMN5qDUHX7VkhEkEBC2+TXVodrgB6S0ah1aeLjwWQ5fQ+ErZFi1ewp+TdwyYtSp8gOXw7Zt1udIqTunXPnHKuqUE3XvbUDAderDDWIjpQa3ZOb94wr3u/LO+W6bdtatiNQqi1ItGnnG2sSqSHWNLsaRJd2RsEwTpltd5gwMA8HHv8InMm68uIVlBaVbtmjSLqu1igyKpcMNyXChMFCmPk5sgkx+MtUYR9tHDfWPZaUDNfLXGuVuicHC56XcVc6lQ+OhUO1qfSIVNhvm7yViD1wkWBO8om6nSe49b4lo73gONszUl3rmq/Zo1fgtZl4Q7VuVq4HIkl21ZLU7RFlMbAxKtbvck4Fq3uZzUEpYef9yuzr5oNwRafmC/aJUjCLUcvoB4NVE5+0Hk2LTsl1uO6xshN0jlbIGn2jIgVmtLhFWjdNWplAfoNfolTqNbnW07GqDLH2FVI0QZnJXXWHnWiN2IW2aJozAhE94S3VmWbMa8swLHhWTb3BSvqhxadWIlZCE/HtWTS5ewd17CVDCuNYPNH4usd4QPe06ccorNjZz23Yl22ba+Q2Ycev3fdUS77Ym0yj27BjW9WGI8Zt0tTFZfaajkEXSImIY6XXQJx0j1oPQs7hd2VFCa9R7FvWuNU2l1CuuuQIkXSVKhTHor80SdkhgTetgyAfbXQICAC4+53cOFTYsaLWZlXt26qS3T6ZTKzTwmQ2NdaiT5HJoZQwadMtTr+hrZP4NOiToawBZg/ad3MMzKZb/BvzTplLPLjHLqFE21rOcmZw16ZGrCuDr4hLDc3ebzlE35lreF+084VU4PmZ2AjatFt5gXWrTfaGRTZ4zmJTrRVzS62ToCJseEGsde8g2aTworTgMyI1Vs27IFdjVqn0F2gGzDfm8ongRQzEmJJxyad2RjqF3HSQFr0aS4uj2zuM+6LPtajZV3Sc2t3hOtKtxZjsBuRRZEWnFMIj0SSad1NEy73ozHZbX+V0NHldGsrMmIxTnZPBiuClSoV1U24Tbta3rSpEZ1qGLgiwQ9XzcIyJ0y2puHp1bor55FmK5mLjeds5QX+FWYzCkXkcV/rWkiLTlEapMqEQBcAFrEcRdF7wCcASaP2SDY+EFm7cWV9StODEq1EtiiVo5uNUu6v0qVUKdSzZFvYR3QYdY0E/rc0uuvAA7AsN4iDBSFhZvvShtKj3dWbZuCoXjKqTdFrVnObWkzmIreLm3LA3TxZIg/khdf3h5/4qdft+cI6rVKm1vLnJfMWgPQm32JMCqx7XqVPnA5p0kYBX2HQcDRukDunfPUB7unMKTYudNtS6deNuZL3xFvBi6qhdMx0qVbPUd0psEYbrDUBq4wNodDTRiXKDInRIj1akG748JS25seK3aFl3Zc9RluVoipdMjxeVMRqXPKDLkltX2g0coHiABInXNeGkMeItPcx4QFDk14qLQrGvWtw4p01ur1GHSx2VHentNOR2pLDrgSteDT7JuC0w7shdEndG9xefbbsjPnL/Cl1ixMrcxWroisV+HOqVUptsSmJkeqVZyp69gFxNaH2HXcRE9ZAW/qDeHRM0rHP6iXTV6tZGXuZzMO4p1KlXSUqLaMqovzocViM6bDoVwY8cpDEVgXRKOeneINOrDSGv0nhM2RV6/Cp2FEuCNR6rVJdDpdxvNR+p0+dF2u1aaEHykB9rP6DdYAD2WOki1Bqp95cLGoY5CXRm9l3lfdBtxrXeuG3p9QahHAnNbuh0iallo0YGDhsO7KQQasADWJiOdZfZb3vl7czM2lcFqvdTIFSqFUhSBtqz+uASkG64LZ1Iq4WBi0b+6QsCZC00BFz8ThahlDmxWIN59VciLtpkq8LVm21Mftqg2vTAmuyCaLqjPYwuMxlSQ2WkdOy9td8YRAPSFJz2o9Cs26KpeVPr41Gwn6bTriaciRRfxlyosV8dINSHWubMa1aXdOrXpxLuEU/k5e9bviLd7tbxY1UW8avRIuxDT9jR3tLer8pecMwbPztvKq36xR8oMxaNb+Yc+lVSqRHIVsSZbUqE1Faw2UjrhABadCGxgQE0Rc/SW9uXy0pt/23b95W7J4N2bUhq8K1Vqs48zNtaO5GGcXtQF1aLjIPH/0bqCTyp4QtwZk5oVqhx3KDMtamVasUaU9EivN9TpEeULUISnE6UeY7Ka1O7BoBNoTDV+DV6FXg+g5Z5+US7LQupjKK7h6z2IMIaezQreZh1NqLHdYYflNDdGk5TTT5g06GkR8ID0tC16a7MWYvmn5q/GVq+uUGrIsp7MWYvmn5q/GVq+uU7MWYvmn5q/GVq+uUGrIsp7MWYvmn5q/GVq+uU7MWYvmn5q/GVq+uUGrIsp7MWYvmn5q/GVq+uU7MWYvmn5q/GVq+uUGrIsp7MWYvmn5q/GVq+uU7MWYvmn5q/GVq+uUGqcXFhiqJTT3ZnwjN+lOqF7MeYuP/APahmr8Y2r65VdfvG/XH3no3Bpzkhi+6bptsVK0CHUWOoufVS8JYZZquKpro0jWvin3Jb1oWRLuS6q7Ao9LhyprsmdPkgww0HKnd4zLHARUdZdNqdz29HrFWkXHQ5LzkgHKdM6nk/GxB8x0uFHF1rEtzwHSFY5XMiL4snMg805LlVzZo0ecE+FTJhReqdvaSInRgMOjyJ0T1bxALEvd3XXeYXmKKmt1KqureLDzCpmZMGVVKBSa2zS2nRbiz6jTnYbdQH2dqwDuAuk3x+GQCJeyGJjvK4LOrJqUbMC3MKzbWZF0EzoOE5yumxYkyNKF3UeLrDsMTafEe9YgQadPgat9WNygVXF43W70rI4E9IMW9lD0jtQ0g37Rq0tY74d3Vx88jHdXQzWJFXwoNXEwIryqpYC6wRCTMbeFoNJj7V/K47xf3NC4ut2u7DYdf1Y17HZ7fksLVr2uva+0adenvfi6fB1b6Cyoq+dBq5GZDeVVHAnXyERZjbouhpAfav5LHeH+/rQKDVxMCK8qqWAusEQkzG3haDSY+1fyuO8X9zQgsCKtdbtd2Gw6/qxr2Oz2/JYWrXtde19o069Pe/F0+Dq31yuUeuk44Y3jNbEnpJiPJo+OkXB0tD3Q/ki3h8bwtSDkuufW6RbNYqdt2+ddq8aBIkQKWMhtgp0gAImmMHXdxvWWkdZbo8a8vy7HzavfLG+Y9xZQ3WOYV1QIQ1eo16VQhhzoTUpsn6NTgjzpXJRxjlKFonQHfPauu695enG6LXRcbIrxnOCL0YyHk0feFsdLo9wP5Ut4vF8HSuHreuTYbPr6qG02Gy2nJYvHr2uva+1c7T3vTzdP5W+gxXKOyLltCvXpWomT9djW1XZtu4waNX6vFnVTlTTpNzai5Idkv96aaxikDZPkf2K7sgHWOu1cIHLO5czqplczRJFRiR6FemNVqs6mzxiyYMTqTUWMHQI/w7V9gNIiRd8x9gdRLRnKPXSccMbxmtiT0kxHk0fHSLg6Wh7ofyRbw+N4WpG6LXRcbIrxnOCL0YyHk0feFsdLo9wP5Ut4vF8HSgxbMXJar2jbjczK6BW7jrNUuemVC5apLkQ6hXDhxRPZFDKpfYoOtFstHN0iTxh30tayCqW3mjlNZ1dzEm2/IjX1Sszertos1aowXHK+xV2GILsAuSlp2/fSIx2YhtWmiEjHvq9gY0G6NlowviVtNhstrjBY1bXaa9rxadPHo73p4tPhc5cFQsp6qVSLWZlWafmQHJjsF92mRnHYe3b0gLRkOoNH9/wALjQeeKrwZLlo9GvO26BQW6wMnJE7Lgz3XWBOo1px2e7I1YGe4Trz7TpEWkNR87dXBmvwfMxbhkzcbRoRRYcW07GjNMRJMNopjtIrL8yRDb2uBNYGLBDsidHYayES3Na9OBSLhBxs3LtfIRejmWHJGsNQAOl0eb/Klvfk+CuHqHdGw2fXw/r2Gy2nIWPbdrr2nN8XvWn8W9zu6g85xMkbrrddpF4ybUu5x9/MSkV2rdds+kFJONDp0loJmwgaWAxE3Wg5xulshLd04KQp2VuY9tZu06827GkyqW3mfXKueESZDwNunz6S3GCZpN0NzlGvWHtvhaCVuqeYmZ9QzDuG1rCoZ1yl2lUo8CvScagxFlMOTWGnWxisGwQSBjNPtPltX2tWvEd7TpUFQM+L4qVSt6vSqWw3Yd0XZjalMq/LBKc7IjlIYJ12HycQaYlPxi0mL5mOtrcHUWgJ3NK37wpmb0PMimZYyswqVIs+fbJUqNLhtOxX3ZDTuoxmOthsHwDZukGox2QcYEPdHNLuygzPctrNTLmlZSt7TNIKQVLq1NqELqbbmDVMhw9i5tSakaIbsVx9rZMFq1jpED1L7pPCQzmuKyLduJm2KZSuvqzKlWbafeqgumM6KASS5W0EXS0BNGQgQk7q0b4NEWlQdh55ZsWfZNPfuebU7muaRb9mSthjUo7jUp246lMhxSEjitbJ1ogFw9zSWsWua1tSC8vZD3U+/i/Js+I4TmeI3seJOsFqpojpCVz+d3B3Of+Sqi9bV15dcICz6lNy5kVl5+6Mwq7AhQH4fKyiyuQ6ZTG1dBrVvlqEjA9Jn4W4douThD5vWnUbgKfYkSdGsisWxRrg5HWQxIpFSYh6m4QnFHbjt5o6zdNjSAgQ84gCLuXhFV61HHqdfUO1qTmBSrjxs6M9LqbQUtk3oDVVOZ1SdjAbTRRSBomthrJ0Q4hLnIKhL4L2clTsKXSGLeCmSJttTXm4jc6LxsOu3Z1YGk6t9rXyXHk+vQUfV4RArbUspswJUSrZgQrKzCqNdK57MqT8K4alQQn1GLSJ+3d2DcImooELTrg6nXdbugR3QEdU1a3CTvbMSTQ7fy5plFqlyViTcWMqM/VRGlxIlNKK1tmJzTBnIHXMik13gdrtT17LSrnwZa/mPfeTNvXhdV1G9Omy5ByG5MBrF0Gmpj7RsEQHp1bg72HN0+EgzK1Mj7+jX3jSbspF9yacOZUq+I02NUqI1RwFyY7MYdd3SqG1EDCKbQ7paNImLSt3Cqyzu7M9+lUXG3K9cNqhTpx4wqLJhg7GrmtgoEp9iW+w1KYARkDsiPRqPDWBceoNp6l3byfZ9eLO22Gz2nUwfbtrq2mnV/Nbmn9Zcp0u5iccJu5Y4iTsghHGAOOkCHvI87+TLe/L/ACUFC4OZZptWjOiZv2e5b9cCoGQRYz8Zyksx+LQwxTti6ZjHBptv20Gi1mW6sVt7JnNh2zMsss5WXcqnS8sYtaCoXC5NhFHrRu0uZDEYuh8nfsp2U1IPlDTWnZb29pXqcKXcwuNk5cschF2ORDhAHDUAj34ed/KFvfkflLh6l3iMfERu6Lt+T7PaFS+5tdrq2mna/wA1uafx735KDAbeyzvbLeZlLWGMqJFyRKDlo5Z1RpMCTBBymVB3kBmZcodBo2nOSuNumBGW4G6QksztPg75xWfb1Di1u1LvkNTssqfZ06k2tUKFhyaQw/LJ+LIKoYEHJnRlNd8j/wA0esS70vaB0+6ycMmrigiBOyCEcaZiWkSHiYH2zwC3ix8P8hAp91i4BO3FBIBdjkQ4UzEdQiPE+PtnhlvDj4H5aDL8j8pKll5fV7VabRiajTafblMpc9+W1KkSmYVOFg9bg7+Ok9W8QBq49Wlbgq11Kvbk+z67IG12Ona9SMdO12urXxbXm7Ld0+NvavBXKdPusnDJq4oIgTsghHGmYlpEh4mB9s8At4sfD/IQWBFXwp91i4BO3FBIBdjkQ4UzEdQiPE+PtnhlvDj4H5a4up978n2XXRSdtsNO16jHp2211a9PKObstzT429q8BBZUVdKDduGJ4t1+m4Bi6+eAlSzLERIeJgfb/ZA94i8P2NznIMG7ccQxcr9NxDB1g8RGlmOJCI8T4+3+yZ7wl4Hsb/OQWJFWup978n2XXRSdtsNO16jHp2211a9PKObstzT429q8BfZQbtwxPFuv03AMXXzwEqWZYiJDxMD7f7IHvEXh+xuc5BYkVdCFegut8dwUbFkHo2ocKU7qJsQ+yB1cp5xnvAXgYbpC7zl8cizA5Np65KByjYadp1Ef0co2nO0cs5my3dGrj172ri3EC8seM6J8Il9FfXT1r9q1AuurPxsXbgpbbMSc9KAQpTm0xb2eItBq2/OHUWo9O9u6RBdY6PcDdVj0vCt0/HlMeRI2vU093ZE0On2//pf7q5cs1u9rSKnR94Hqr9B/TXfor6uuHcwVZp1szmajGnVKpx5PJDN1sGYxtbxCQ8ZanD490yVmw9haYZqZ9yafqIi2SIiICIiAiIgIiICIiAiIgIiICIiAiIgIiICIiAiIgIiICIiCEYPTd1S+DoXzspSm0UNgem7qj8HQvnZKkdospVo6UItV21P4OhfOylTc1eDdkbnZHeazQywodceeb2RTTY2M3APEGU1peEf9Bq300td11L4OhfOylPD7C9x8SvL9REWiRERAREQEREBERAREQEREGD5kXVelUzaq1hUfNTsd063LHauzqlyKG+Ep45Ulo+U8qAvsVgYwk6LRNH38e+gqLcWbuaOFHv8AzRpuZOhmxrvpVvQrZiwIZwKrHdGnajdM2ilbWTy4yaxafEREo+6e/r9D3flnl3mC5BK+7Dt+5Dppm5DKrU5qXsCPTqxDB0S0446R/sivioZXZb1e64t9VSw7dl3LDwDk9WfpbBzGdHM0ukOvDTqLT3d3Vig8+U7MPOFyZAuyTmfLODNzdrFidRm6ZAGMFMCoTIzR4nsNtylrZNaC2uggAdbRlqIsgtS7ryyVyhkVq2Lkwk1Jyxcz7sbmzaTTjkDUotYgNtHtGo4EYliREQlq1Ee9utNAHvALOtFtkY42vSBaaqZ1lpvGC1iI1AzJw5Q4ae4+RmZbTnaiLHjXTkZbZcvw+psiwracicjl07kxUhgmuSSnRclMadPFs3TEDdDmmQiRYdxB55zVujPCzZl+0am511HaWJlbhe4SeotO1z6lymplsnRJjQMXRGaa0Dpd0gPfdeszjMwM5c6stpVfoLd3SbklVWlWVPhyDp0BsqO9WavJgyhj7rTRNALQYtcqItJl310hXqmoWna1XdqMirWzSpzlVgdSZ5SIbThTIO/9iu4kO+1313vZbvfT8bFdeoWTZtWCaNVtCizRqcAKTMGTAacwlQgIyCM7qHfZEnXdLRbm+Xc3sUHm4cwc+4lUpOW9fuOrUALjviJRItfqOFCk1yJFKkzJzrTrUIXIQum7CAGiNjmSuaRDrV64KWMrCFmgxMrpVh+PmVV2HZ+IABPE01FDUeDWkNe7v6BEderdHmrQwyayiZtV6xG8r7WG25D/ACx2kjSGOSuyN3vpNadBObg7+O9u4Kbtq0bXsunnSbQtql0SCZ7bGNTobUZoj0iGrQ0Ijq0gI/6AFBOoiICIiAiIgIiICIiAiIgIiICIiCPpFPxp0Q42JDjiUqRI3f8ApXzc/wCJSCibekvyoLrsgscTGdNb4y8QJToD/dHBSyAiIgIiICIiAiIgIiICIiAiIgIiIMsreRtLql71K8aVf1228NfkQJVdplIlMMx6q9D0C0ZuE0UhrHQ202ewda1gAiS6VF4Ods0mu02WF13FJoFFr0q5KXbDxxcKbDqT5PGToELAyDEDkPkDRukAkfHp3A07AiDIYPBysel21ZNqNVWu4wrCosyhU0zkNbR2PKi8mMn+97x6Obp04avBxXAPBlsQSgENVuD/ACfEtCA1hyhjeC25rkyFiXeu6RuOmLuPhD3A2fOWyogzCuZE2lcJXbjOqNYHryrtHuCdsnWe9yKbyTYC13vdAuQNa9WrHePSQ7unp17g821XK/UrxhXDXaLck64Y9zxqpBdYxcp81qmBTOJoHWjA2ziiQmDonq1nzd3TraIMmqGQ/LpVvVsc1r3Yui3MJ7TVwg5BcmSY802zkR3W3Yxx9lqYYIRBoNGyHT4Wq05W5b0TKKxaZl9bkyoSabStrgw5PfF189q6bpazwEdW+4SuCICIiAiIgIiICIiAiIgIiICIiAiIgKPdp+Llai1PWPFHiyI+n8e0Nov+UpBRMmS+FxwYgFjsXYMp0h8YxNjAf9hkglkREBERAREQEREBERAREQEREBERAREQEREBERAREQEREBERAREQEREFZfLRd0/4OhfOyV3dqo6Yem7Z/wAHQvnZK7O1XLva6PyjHquiqfoEL52UrDj7OCrdBPVc1U/QIXzspWTH2cFtj4Ivk/URFokREQEREBERAREQEREBERAREQEREBERAREQEREBERAREQEREBERAREQEREBERB0aXACnRijieJYHIkP938brpOf8S7yh7ZxxKnPY4ljjjhPnj3f0p1TCAiIgIiICIiAiIgIiICIiAiIgIiICIiAiIgIiICIiAiIgIiICIiAiIgIiICIiAiIgIiIC6LkFt2rR6lrx1R47zGn/tDaL/lLvLrHFApbczUWtps2xw493exH93BB2UREBERAREQEREBERAREQEREBERAREQEREBERAREQEREBERAREQEREFQqR6Lum/B0T5ySuTa/wBa6NyTo1Muh2RPksxmX4McGnHi0iRi4/qDV+uC6fXNb3u9T/2oFw1W2m8Jq2y13NVf0KF/vyVaS9lU+z32ptWqc+E6EiOcWI0DrR6hIxN8iHV+uP8AaVwL2V04eLK+T6REWqRERAREQEREBERAREQEREBERAREQEREBERAREQEREBERAREQEREBERAREQEREHUhwmoLOLMfDHASddfx1eM4ZGX94sV20RAREQEREBERAREQEREBERAREQEREBERAREQEREBERAREQEREBERAREQEREBERAREQEREBERAREQEREBERAREQEREBERAREQEREBERAREQEREBERAREQEREBERAREQEREBERAREQEREBERAREQEREBERAREQEREBERAREQEREBERAREQEREBERAREQEREBERAREQEREBERAREQEREBERAREQEREBERAREQEREBERAREQEREBERAREQEREBERAREQEREBERAREQEREBERAREQEREBERAREQEREBERAREQEREBERAREQEREBERAREQEREBERAREQEREBERAREQEREBERAREQEREBERAREQEREBERAREQEREBERAREQEREBERAREQEREBERAREQEREBERAREQEREBERAREQEREBERAREQEREBERAREQEREBERAREQEREBERAREQEREBERAREQEREBERAREQEREBERAREQEREBERAREQEREH//Z;" vertex="1" parent="1">
          <mxGeometry x="7" y="30" width="812.75" height="1031" as="geometry" />
        </mxCell>
      </root>
    </mxGraphModel>
  </diagram>
</mxfile>
